<?xml version="1.0" encoding="UTF-8" standalone="no"?>
<!-- Created with Inkscape (http://www.inkscape.org/) -->

<svg
   xmlns:dc="http://purl.org/dc/elements/1.1/"
   xmlns:cc="http://creativecommons.org/ns#"
   xmlns:rdf="http://www.w3.org/1999/02/22-rdf-syntax-ns#"
   xmlns:svg="http://www.w3.org/2000/svg"
   xmlns="http://www.w3.org/2000/svg"
   xmlns:xlink="http://www.w3.org/1999/xlink"
   xmlns:sodipodi="http://sodipodi.sourceforge.net/DTD/sodipodi-0.dtd"
   xmlns:inkscape="http://www.inkscape.org/namespaces/inkscape"
   width="744.09448819"
   height="1052.3622047"
   id="svg10613"
   version="1.1"
   inkscape:version="0.48.2 r9819"
   sodipodi:docname="New document 96">
  <defs
     id="defs10615">
    <linearGradient
       inkscape:collect="always"
       id="linearGradient11327">
      <stop
         style="stop-color:#000000;stop-opacity:1;"
         offset="0"
         id="stop11329" />
      <stop
         style="stop-color:#000000;stop-opacity:0;"
         offset="1"
         id="stop11331" />
    </linearGradient>
    <linearGradient
       inkscape:collect="always"
       id="linearGradient11315">
      <stop
         style="stop-color:#000000;stop-opacity:1;"
         offset="0"
         id="stop11317" />
      <stop
         style="stop-color:#000000;stop-opacity:0;"
         offset="1"
         id="stop11319" />
    </linearGradient>
    <linearGradient
       inkscape:collect="always"
       xlink:href="#linearGradient11315"
       id="linearGradient11325"
       x1="161.1244"
       y1="510.20255"
       x2="418.70316"
       y2="510.20255"
       gradientUnits="userSpaceOnUse" />
    <linearGradient
       inkscape:collect="always"
       xlink:href="#linearGradient11327"
       id="linearGradient11333"
       x1="197.4899"
       y1="449.30111"
       x2="584.36817"
       y2="449.30111"
       gradientUnits="userSpaceOnUse" />
  </defs>
  <sodipodi:namedview
     id="base"
     pagecolor="#ffffff"
     bordercolor="#666666"
     borderopacity="1.0"
     inkscape:pageopacity="0.0"
     inkscape:pageshadow="2"
     inkscape:zoom="0.49497475"
     inkscape:cx="416.45327"
     inkscape:cy="599.75038"
     inkscape:document-units="px"
     inkscape:current-layer="layer1"
     showgrid="false"
     inkscape:window-width="751"
     inkscape:window-height="577"
     inkscape:window-x="18"
     inkscape:window-y="2"
     inkscape:window-maximized="0" />
  <metadata
     id="metadata10618">
    <rdf:RDF>
      <cc:Work
         rdf:about="">
        <dc:format>image/svg+xml</dc:format>
        <dc:type
           rdf:resource="http://purl.org/dc/dcmitype/StillImage" />
        <dc:title></dc:title>
      </cc:Work>
    </rdf:RDF>
  </metadata>
  <g
     inkscape:label="Layer 1"
     inkscape:groupmode="layer"
     id="layer1">
    <path
       style="fill:#e9c6af;stroke:#deaa87;stroke-width:3;stroke-linecap:butt;stroke-linejoin:miter;stroke-opacity:1;stroke-miterlimit:4;stroke-dasharray:none"
       d="m 161.42857,600.93361 22.81076,6.46206 27.64538,38.40036 11.51329,18.50852 23.08133,6.87417 18.92154,-5.94801 18.55995,-6.73451 8.35385,-10.04906 39.27586,-22.15278 c 4.00155,-9.37527 7.07516,-23.28758 15.1588,-29.99121 7.24886,-6.01136 17.0743,-6.86859 23.69677,-12.35903 31.2887,-25.94027 63.85859,-44.75942 84.12094,-68.98444 13.80908,-16.50969 13.13074,-33.01711 23.20305,-49.5157 4.34916,-7.12398 18.7308,-13.23617 22.97563,-20.35633 15.71156,-26.35416 37.25424,-52.95621 51.06833,-79.48822 7.03853,-13.51853 22.67552,-28.02902 28.51915,-41.46913 4.56237,-10.49329 3.86742,-21.96002 6.80966,-30.33955 2.57942,-17.23605 -3.61689,-13.41317 -11.62543,-24.00525 -3.5567,-4.70408 -12.00701,-4.64086 -15.26097,-7.97868 -6.1348,-6.2929 -4.54712,-14.46028 -9.50036,-16.96996 -9.00266,-4.56141 -13.55756,12.78501 -18.44825,6.2644 -4.01094,-5.34767 -9.86279,-10.08275 -11.97745,-6.74225 -2.33541,3.68923 -15.93172,0.0836 -21.67138,3.87141 -5.16292,3.40719 -10.50755,15.34925 -5.80188,15.56033 l -17.95524,-0.2275 -4.23053,37.11744 -21.01268,46.88296 -25.74801,26.74862 -12.85961,30.68408 c -7.52059,8.63616 -10.13335,9.94204 -22.57191,20.16802 -7.26921,5.97616 -13.96132,10.03211 -20.20925,15.6807 -8.31735,7.5195 -15.18416,20.77263 -23.1139,25.72884 -4.84284,3.02685 -14.45249,0.84935 -18.69089,3.74332 -13.22873,9.03255 -20.19218,23.29581 -32.22518,28.17536 -8.13144,3.29742 -16.59984,-1.89198 -25.27508,0.32841 -9.46506,2.42254 -19.17635,12.31935 -28.96486,17.8269 -8.33021,18.44091 -18.10603,36.43391 -30.36029,46.44876 -17.30787,14.14494 -37.54997,18.40433 -48.21114,37.83695 z"
       id="path10795"
       inkscape:connector-curvature="0"
       sodipodi:nodetypes="cccccccccssssssscssssssccccccsssssscsc" />
    <path
       style="fill:#cc0000;stroke:#a51d1e;stroke-width:1px;stroke-linecap:butt;stroke-linejoin:miter;stroke-opacity:1"
       d="m 203.04066,636.17933 38.21951,-5.22729 13.32946,-12.92521 32.05308,-14.37218 c 12.18283,-4.72929 24.36567,-5.27218 36.5485,-19.96695 l 32.35918,-13.18815 c 23.05453,-11.93909 42.65094,-22.54951 56.51399,-41.78172 3.44552,-4.77997 49.4937,4.19817 21.19974,-17.14638 -15.95944,-12.03958 18.88546,-8.48621 22.57844,-15.97791 5.77495,-11.71526 8.08114,-29.50286 20.9802,-41.7157 20.46354,-19.3749 30.2736,-47.6213 43.57599,-73.17852 19.30741,-37.09434 38.36222,-67.94427 63.46942,-100.09368 l -18.18274,-18.18275 c -5.50283,5.39701 -10.20724,14.17639 -16.10573,20.23207 -7.28206,7.47612 -5.76032,19.43869 -13.56405,27.72521 -9.11458,9.67848 -8.55292,25.86811 -18.40995,36.32769 -11.05126,11.72682 -18.64654,29.81889 -30.66424,42.01644 -8.26339,8.38705 -10.69346,34.96491 -19.33594,43.33849 -11.69804,11.33406 -21.81589,36.28311 -34.15221,46.64921 -17.21108,14.46232 -31.92827,36.10218 -49.473,47.54823 -9.75995,6.36731 18.79614,-35.48137 9.07941,-30.28567 -8.71508,4.66009 -9.39725,25.78511 -21.0933,34.04455 -7.98069,5.63576 -12.80027,19.31049 -21.97967,24.79949 -14.16086,8.46777 -32.80925,7.21083 -47.24779,13.32198 -4.85995,2.05699 -5.37224,12.57687 -9.60052,15.21142 -13.44686,8.37843 -27.65125,10.6568 -33.9669,17.02201 -7.81477,7.87609 -18.16123,3.98705 -24.887,10.43389 -4.83801,4.63737 -14.4022,-6.22148 -18.55465,-2.31042 -16.4859,15.52756 -12.93374,11.63634 -17.73999,14.54987 z"
       id="path10797"
       inkscape:connector-curvature="0"
       sodipodi:nodetypes="ccccccsssssccssssssssssssssscc" />
    <path
       sodipodi:nodetypes="ccccccsssssccssssssssssssssscc"
       inkscape:connector-curvature="0"
       id="path10801"
       d="m 202.32637,635.46505 38.21951,-5.22729 13.32946,-12.92521 32.05308,-14.37218 c 12.18283,-4.72929 24.36567,-5.27218 36.5485,-19.96695 l 32.35918,-13.18815 c 23.05453,-11.93909 42.65094,-22.54951 56.51399,-41.78172 3.44552,-4.77997 49.4937,4.19817 21.19974,-17.14638 -15.95944,-12.03958 18.88546,-8.48621 22.57844,-15.97791 5.77495,-11.71526 8.08114,-29.50286 20.9802,-41.7157 20.46354,-19.3749 30.2736,-47.6213 43.57599,-73.17852 19.30741,-37.09434 38.36222,-67.94427 63.46942,-100.09368 l -18.18274,-18.18275 c -5.50283,5.39701 -10.20724,14.17639 -16.10573,20.23207 -7.28206,7.47612 -5.76032,19.43869 -13.56405,27.72521 -9.11458,9.67848 -8.55292,25.86811 -18.40995,36.32769 -11.05126,11.72682 -18.64654,29.81889 -30.66424,42.01644 -8.26339,8.38705 -10.69346,34.96491 -19.33594,43.33849 -11.69804,11.33406 -21.81589,36.28311 -34.15221,46.64921 -17.21108,14.46232 -31.92827,36.10218 -49.473,47.54823 -9.75995,6.36731 18.79614,-35.48137 9.07941,-30.28567 -8.71508,4.66009 -9.39725,25.78511 -21.0933,34.04455 -7.98069,5.63576 -12.80027,19.31049 -21.97967,24.79949 -14.16086,8.46777 -32.80925,7.21083 -47.24779,13.32198 -4.85995,2.05699 -5.37224,12.57687 -9.60052,15.21142 -13.44686,8.37843 -27.65125,10.6568 -33.9669,17.02201 -7.81477,7.87609 -18.16123,3.98705 -24.887,10.43389 -4.83801,4.63737 -14.4022,-6.22148 -18.55465,-2.31042 -16.4859,15.52756 -12.93374,11.63634 -17.73999,14.54987 z"
       style="opacity:0.21551723;fill:url(#linearGradient11333);fill-opacity:1;stroke:#a51d1e;stroke-width:1px;stroke-linecap:butt;stroke-linejoin:miter;stroke-opacity:1" />
    <path
       style="fill:#980101;stroke:#a51d1e;stroke-width:1px;stroke-linecap:butt;stroke-linejoin:miter;stroke-opacity:1"
       d="m 161.62441,599.81384 c 4.67152,3.18285 16.90496,4.24047 24.84131,4.612 7.53111,0.35257 15.03686,-6.50313 22.76419,-6.85627 4.24721,-0.1941 11.41851,4.48098 15.84062,3.91805 3.49595,-0.44504 7.7546,-10.35788 11.37076,-11.21462 5.77503,-1.36822 12.43304,-8.84907 18.64473,-11.26069 5.08029,-1.97237 14.61246,0.0142 20.08292,-2.77499 3.8859,-1.98129 9.26039,-15.69144 13.29887,-18.32005 4.30072,-2.79931 21.53819,-5.78926 26.04417,-9.0804 10.18175,-7.43668 5.88204,-25.69688 15.85297,-37.48447 18.73148,-22.14429 53.50205,-44.93082 87.8382,-95.38632 l -39.6389,42.87295 6.9348,-14.45537 -19.0551,25.85182 -44.9991,33.01594 -14.35848,15.75022 1.18981,-14.21197 10.10749,-16.80576 25.0682,-22.52036 c 0.18271,2.62986 -10.83154,3.04038 -23.63796,9.00463 -6.69993,3.12031 -9.68131,16.41028 -16.85225,20.17 -6.36284,3.33603 -15.37769,5.41065 -22.60648,9.17778 -2.13214,1.11112 -28.40299,22.69585 -22.17367,17.7167 0.96566,-0.77187 -0.1606,-6.34495 3.55382,-11.81949 4.27046,-6.29408 15.95761,-9.60078 11.08614,-8.18831 -2.74764,0.79667 -16.28066,6.46941 -18.90639,8.6849 -4.31672,3.64227 -10.78445,1.46117 -12.70837,5.4071 -19.01588,39.00117 -35.69591,54.47124 -60.73484,65.27806 -8.30226,3.58326 -10.31996,12.59236 -18.84746,18.91892 z"
       id="path11311"
       inkscape:connector-curvature="0"
       sodipodi:nodetypes="cssssssssscccccccccsssssssssc" />
    <path
       sodipodi:nodetypes="cssssssssscccccccccsssssssssc"
       inkscape:connector-curvature="0"
       id="path11313"
       d="m 161.62441,600.52813 c 4.67152,3.18285 16.90496,4.24047 24.84131,4.612 7.53111,0.35257 15.03686,-6.50313 22.76419,-6.85627 4.24721,-0.1941 11.41851,4.48098 15.84062,3.91805 3.49595,-0.44504 7.7546,-10.35788 11.37076,-11.21462 5.77503,-1.36822 12.43304,-8.84907 18.64473,-11.26069 5.08029,-1.97237 14.61246,0.0142 20.08292,-2.77499 3.8859,-1.98129 9.26039,-15.69144 13.29887,-18.32005 4.30072,-2.79931 21.53819,-5.78926 26.04417,-9.0804 10.18175,-7.43668 5.88204,-25.69688 15.85297,-37.48447 18.73148,-22.14429 53.50205,-44.93082 87.8382,-95.38632 l -39.6389,42.87295 6.9348,-14.45537 -19.0551,25.85182 -44.9991,33.01594 -14.35848,15.75022 1.18981,-14.21197 10.10749,-16.80576 25.0682,-22.52036 c 0.18271,2.62986 -10.83154,3.04038 -23.63796,9.00463 -6.69993,3.12031 -9.68131,16.41028 -16.85225,20.17 -6.36284,3.33603 -15.37769,5.41065 -22.60648,9.17778 -2.13214,1.11112 -28.40299,22.69585 -22.17367,17.7167 0.96566,-0.77187 -0.1606,-6.34495 3.55382,-11.81949 4.27046,-6.29408 15.95761,-9.60078 11.08614,-8.18831 -2.74764,0.79667 -16.28066,6.46941 -18.90639,8.6849 -4.31672,3.64227 -10.78445,1.46117 -12.70837,5.4071 -19.01588,39.00117 -35.69591,54.47124 -60.73484,65.27806 -8.30226,3.58326 -10.31996,12.59236 -18.84746,18.91892 z"
       style="opacity:0.13362068;fill:url(#linearGradient11325);fill-opacity:1;stroke:#a51d1e;stroke-width:1px;stroke-linecap:butt;stroke-linejoin:miter;stroke-opacity:1" />
    <path
       style="fill:#cd8282;stroke:#bc2122;stroke-width:1px;stroke-linecap:butt;stroke-linejoin:miter;stroke-opacity:1"
       d="m 553.57143,250.21932 c -2.85157,4.14985 -1.58434,14.56422 -6.29046,20.23623 -3.1931,3.84845 -12.60521,2.43006 -14.51551,7.30509 -2.71501,6.92863 1.52311,18.3768 -1.80083,22.8264 -7.00349,9.37525 -17.32852,3.4518 -22.73299,13.7395 -4.09544,7.79591 0.22541,19.06113 -4.31451,26.43294 -52.88063,85.86647 -55.093,121.01264 -91.05999,118.74556 3.51875,-9.48681 11.70743,-4.96084 19.26431,-10.0319 5.2751,-3.53986 9.50988,-16.15091 14.72997,-22.88999 4.06585,-5.24896 6.58068,-18.54612 10.10252,-26.17623 2.19628,-4.75827 -10.42824,-36.61242 -7.8423,-41.22723 2.73806,-4.88629 19.02087,-4.06072 21.66963,-8.92388 1.69967,-3.12061 -0.17596,-10.4901 1.50993,-13.52552 1.84979,-3.33054 15.7533,-3.76389 17.4045,-7.00202 2.44433,-4.79353 0.41429,-14.41256 2.42659,-18.80409 5.39514,-11.77408 5.05425,-25.23486 6.6522,-32.08607 0.99986,-4.28692 -22.08749,27.01716 -22.23341,24.03828 -0.72086,-14.7158 5.88806,-25.819 9.17321,-39.79992 l 6.55037,0.72175 c -3.60385,-9.43057 2.77415,-11.37475 6.22159,-15.51685 l 14.59511,-3.93531 -11.61594,40.94523 22.85875,-41.98413 11.25078,11.45786 11.39188,-10.47475 z"
       id="path11335"
       inkscape:connector-curvature="0"
       sodipodi:nodetypes="cssssscssssssssssccccccccc" />
    <path
       sodipodi:nodetypes="cssssscssssssssssccccccccc"
       inkscape:connector-curvature="0"
       id="path11337"
       d="m 552.85714,250.93361 c -2.85157,4.14985 -1.58434,14.56422 -6.29046,20.23623 -3.1931,3.84845 -12.60521,2.43006 -14.51551,7.30509 -2.71501,6.92863 1.52311,18.3768 -1.80083,22.8264 -7.00349,9.37525 -17.32852,3.4518 -22.73299,13.7395 -4.09544,7.79591 0.22541,19.06113 -4.31451,26.43294 -52.88063,85.86647 -55.093,121.01264 -91.05999,118.74556 3.51875,-9.48681 11.70743,-4.96084 19.26431,-10.0319 5.2751,-3.53986 9.50988,-16.15091 14.72997,-22.88999 4.06585,-5.24896 6.58068,-18.54612 10.10252,-26.17623 2.19628,-4.75827 -10.42824,-36.61242 -7.8423,-41.22723 2.73806,-4.88629 19.02087,-4.06072 21.66963,-8.92388 1.69967,-3.12061 -0.17596,-10.4901 1.50993,-13.52552 1.84979,-3.33054 15.7533,-3.76389 17.4045,-7.00202 2.44433,-4.79353 0.41429,-14.41256 2.42659,-18.80409 5.39514,-11.77408 5.05425,-25.23486 6.6522,-32.08607 0.99986,-4.28692 -22.08749,27.01716 -22.23341,24.03828 -0.72086,-14.7158 5.88806,-25.819 9.17321,-39.79992 l 6.55037,0.72175 c -3.60385,-9.43057 2.77415,-11.37475 6.22159,-15.51685 l 14.59511,-3.93531 -11.61594,40.94523 22.85875,-41.98413 11.25078,11.45786 11.39188,-10.47475 z"
       style="opacity:0.05603446;fill:#cd8282;fill-opacity:1;stroke:#000000;stroke-width:1px;stroke-linecap:butt;stroke-linejoin:miter;stroke-opacity:1" />
  </g>
</svg>
