<?xml version="1.0" encoding="UTF-8" standalone="no"?>
<!-- Created with Inkscape (http://www.inkscape.org/) -->

<svg
   xmlns:dc="http://purl.org/dc/elements/1.1/"
   xmlns:cc="http://creativecommons.org/ns#"
   xmlns:rdf="http://www.w3.org/1999/02/22-rdf-syntax-ns#"
   xmlns:svg="http://www.w3.org/2000/svg"
   xmlns="http://www.w3.org/2000/svg"
   xmlns:xlink="http://www.w3.org/1999/xlink"
   xmlns:sodipodi="http://sodipodi.sourceforge.net/DTD/sodipodi-0.dtd"
   xmlns:inkscape="http://www.inkscape.org/namespaces/inkscape"
   width="744.09448819"
   height="1052.3622047"
   id="svg12989"
   version="1.1"
   inkscape:version="0.48.2 r9819"
   sodipodi:docname="bananayellowgreen.svg">
  <defs
     id="defs12991">
    <linearGradient
       inkscape:collect="always"
       id="linearGradient13620">
      <stop
         style="stop-color:#000000;stop-opacity:1;"
         offset="0"
         id="stop13622" />
      <stop
         style="stop-color:#000000;stop-opacity:0;"
         offset="1"
         id="stop13624" />
    </linearGradient>
    <linearGradient
       id="linearGradient13591">
      <stop
         style="stop-color:#b9f021;stop-opacity:1;"
         offset="0"
         id="stop13593" />
      <stop
         style="stop-color:#f6ff07;stop-opacity:1;"
         offset="1"
         id="stop13595" />
    </linearGradient>
    <linearGradient
       inkscape:collect="always"
       xlink:href="#linearGradient13591"
       id="linearGradient13597"
       x1="48.299305"
       y1="562.00195"
       x2="701.53638"
       y2="562.00195"
       gradientUnits="userSpaceOnUse" />
    <linearGradient
       inkscape:collect="always"
       xlink:href="#linearGradient13620"
       id="linearGradient13626"
       x1="104.40024"
       y1="541.07759"
       x2="708.15493"
       y2="541.07759"
       gradientUnits="userSpaceOnUse" />
  </defs>
  <sodipodi:namedview
     id="base"
     pagecolor="#ffffff"
     bordercolor="#666666"
     borderopacity="1.0"
     inkscape:pageopacity="0.0"
     inkscape:pageshadow="2"
     inkscape:zoom="0.49497475"
     inkscape:cx="42.50103"
     inkscape:cy="528.2416"
     inkscape:document-units="px"
     inkscape:current-layer="layer1"
     showgrid="false"
     inkscape:window-width="1618"
     inkscape:window-height="858"
     inkscape:window-x="28"
     inkscape:window-y="20"
     inkscape:window-maximized="0" />
  <metadata
     id="metadata12994">
    <rdf:RDF>
      <cc:Work
         rdf:about="">
        <dc:format>image/svg+xml</dc:format>
        <dc:type
           rdf:resource="http://purl.org/dc/dcmitype/StillImage" />
        <dc:title></dc:title>
      </cc:Work>
    </rdf:RDF>
  </metadata>
  <g
     inkscape:label="Layer 1"
     inkscape:groupmode="layer"
     id="layer1">
    <path
       style="fill:url(#linearGradient13597);fill-opacity:1;stroke:#cccc00;stroke-width:5;stroke-linecap:butt;stroke-linejoin:miter;stroke-miterlimit:4;stroke-opacity:1;stroke-dasharray:none"
       d="m 102.00805,357.11825 c 4.49483,24.01883 24.91929,44.34135 30.76934,65.57652 3.99657,14.50715 8.27657,28.38326 12.81929,41.65015 2.17493,6.35179 -7.55043,25.88134 -5.25732,31.95621 136.89494,362.65734 492.30075,222.79862 559.12248,115.27523 19.78454,-6.45618 11.87439,-45.9807 -24.07638,-40.93202 -25.48028,3.27919 -49.51985,-7.93934 -73.13376,-4.30599 -183.86526,28.2904 -296.86946,-27.4226 -372.87275,-123.24533 -9.88833,-12.46691 -22.92909,-2.27598 -36.34512,-11.57913 -41.3715,-33.57611 -42.32332,-63.4831 -59.75092,-94.88569 -8.97334,-15.07123 -44.174496,23.75799 -31.27486,20.49005 z"
       id="path13075"
       inkscape:connector-curvature="0"
       sodipodi:nodetypes="csssccssccc" />
    <path
       sodipodi:type="arc"
       style="fill:#501400;fill-opacity:1;fill-rule:nonzero;stroke:#4c1000;stroke-width:3;stroke-miterlimit:4;stroke-opacity:0.96017701;stroke-dasharray:none"
       id="path13585"
       sodipodi:cx="77.85714"
       sodipodi:cy="384.50504"
       sodipodi:rx="22.142857"
       sodipodi:ry="12.142858"
       d="m 99.999996,384.50504 a 22.142857,12.142858 0 1 1 -44.285713,0 22.142857,12.142858 0 1 1 44.285713,0 z"
       transform="matrix(0.6897529,-0.57736611,0.71331453,0.3232737,-212.25044,266.33628)" />
    <path
       sodipodi:type="arc"
       style="fill:#501400;fill-opacity:1;fill-rule:nonzero;stroke:#4c1000;stroke-width:3;stroke-miterlimit:4;stroke-opacity:0.96017701;stroke-dasharray:none"
       id="path13587"
       sodipodi:cx="680.71429"
       sodipodi:cy="466.64789"
       sodipodi:rx="16.428572"
       sodipodi:ry="15.714286"
       d="m 697.14287,466.64789 a 16.428572,15.714286 0 1 1 -32.85715,0 16.428572,15.714286 0 1 1 32.85715,0 z"
       transform="matrix(0.97311084,0.23033736,-0.23033736,0.97311084,140.43765,-22.308931)" />
    <path
       style="opacity:0.13793102;fill:#000000;stroke:#000000;stroke-width:1px;stroke-linecap:butt;stroke-linejoin:miter;stroke-opacity:1"
       d="m 114.37157,348.30035 c 97.39154,254.5997 289.04285,331.10721 570.56388,237.81688 l 22.71948,15.65406 c -12.61256,51.51693 -379.62488,324.65746 -568.20503,-105.1344 10.77368,-20.8717 6.13879,-51.36142 -5.91819,-79.11922 -7.62683,-17.55862 -26.21505,-39.09455 -30.06676,-52.68113 -2.40172,-8.47181 5.90677,-10.7706 10.90662,-16.53619 z"
       id="path13589"
       inkscape:connector-curvature="0"
       sodipodi:nodetypes="ccccssc" />
    <path
       sodipodi:nodetypes="ccccssc"
       inkscape:connector-curvature="0"
       id="path13599"
       d="m 113.01343,347.45985 c 90.44142,291.54498 268.70903,447.25724 571.92202,238.65738 l 22.71948,15.65406 c -12.61256,51.51693 -379.62488,324.65746 -568.20503,-105.1344 15.8142,-26.00458 -2.13279,-52.73296 -9.2023,-82.86596 -4.15003,-17.6892 -21.09533,-34.44209 -24.69139,-47.07545 -2.4304,-8.53821 2.30382,-13.29301 7.45721,-19.23563 z"
       style="opacity:0.13793101999999999;fill:url(#linearGradient13626);stroke:#000000;stroke-width:1px;stroke-linecap:butt;stroke-linejoin:miter;stroke-opacity:1;fill-opacity:1" />
  </g>
</svg>
