<?xml version="1.0" encoding="UTF-8" standalone="no"?>
<!-- Created with Inkscape (http://www.inkscape.org/) -->

<svg
   xmlns:dc="http://purl.org/dc/elements/1.1/"
   xmlns:cc="http://creativecommons.org/ns#"
   xmlns:rdf="http://www.w3.org/1999/02/22-rdf-syntax-ns#"
   xmlns:svg="http://www.w3.org/2000/svg"
   xmlns="http://www.w3.org/2000/svg"
   xmlns:xlink="http://www.w3.org/1999/xlink"
   xmlns:sodipodi="http://sodipodi.sourceforge.net/DTD/sodipodi-0.dtd"
   xmlns:inkscape="http://www.inkscape.org/namespaces/inkscape"
   width="744.09448819"
   height="1052.3622047"
   id="svg12258"
   version="1.1"
   inkscape:version="0.48.2 r9819"
   sodipodi:docname="burger.svg">
  <defs
     id="defs12260">
    <linearGradient
       id="linearGradient12884">
      <stop
         style="stop-color:#ffe43e;stop-opacity:1;"
         offset="0"
         id="stop12886" />
      <stop
         style="stop-color:#ffee3e;stop-opacity:1;"
         offset="1"
         id="stop12888" />
    </linearGradient>
    <linearGradient
       id="linearGradient12876">
      <stop
         style="stop-color:#f4ff22;stop-opacity:1;"
         offset="0"
         id="stop12878" />
      <stop
         style="stop-color:#ffcd22;stop-opacity:1;"
         offset="1"
         id="stop12880" />
    </linearGradient>
    <linearGradient
       id="linearGradient12860">
      <stop
         style="stop-color:#412e21;stop-opacity:1;"
         offset="0"
         id="stop12862" />
      <stop
         style="stop-color:#864314;stop-opacity:1;"
         offset="1"
         id="stop12864" />
    </linearGradient>
    <linearGradient
       id="linearGradient12840">
      <stop
         style="stop-color:#f0a513;stop-opacity:1;"
         offset="0"
         id="stop12842" />
      <stop
         id="stop12848"
         offset="0.5"
         style="stop-color:#f0b513;stop-opacity:0.99215686;" />
      <stop
         style="stop-color:#f0c513;stop-opacity:0.98305082;"
         offset="1"
         id="stop12844" />
    </linearGradient>
    <linearGradient
       inkscape:collect="always"
       xlink:href="#linearGradient12840"
       id="linearGradient12846"
       x1="55.407317"
       y1="408.98872"
       x2="629.06569"
       y2="408.98872"
       gradientUnits="userSpaceOnUse" />
    <linearGradient
       inkscape:collect="always"
       xlink:href="#linearGradient12840"
       id="linearGradient12856"
       x1="61.660824"
       y1="655.23767"
       x2="632.64001"
       y2="655.23767"
       gradientUnits="userSpaceOnUse" />
    <linearGradient
       inkscape:collect="always"
       xlink:href="#linearGradient12860"
       id="linearGradient12866"
       x1="79.416465"
       y1="533.89621"
       x2="623.7244"
       y2="533.89621"
       gradientUnits="userSpaceOnUse" />
    <linearGradient
       inkscape:collect="always"
       xlink:href="#linearGradient12876"
       id="linearGradient12882"
       x1="198.92857"
       y1="486.6479"
       x2="638.21429"
       y2="486.6479"
       gradientUnits="userSpaceOnUse"
       gradientTransform="translate(-4.1519023e-6,-5.3173008e-6)" />
    <linearGradient
       inkscape:collect="always"
       xlink:href="#linearGradient12884"
       id="linearGradient12890"
       x1="198.92857"
       y1="486.6479"
       x2="638.21429"
       y2="486.6479"
       gradientUnits="userSpaceOnUse"
       gradientTransform="translate(-4.1519023e-6,-5.3173008e-6)" />
    <linearGradient
       inkscape:collect="always"
       xlink:href="#linearGradient12860"
       id="linearGradient12896"
       gradientUnits="userSpaceOnUse"
       x1="79.416465"
       y1="533.89621"
       x2="623.7244"
       y2="533.89621" />
    <linearGradient
       inkscape:collect="always"
       xlink:href="#linearGradient12884"
       id="linearGradient12900"
       gradientUnits="userSpaceOnUse"
       gradientTransform="translate(-1.1664537e-5,-3.7816439e-5)"
       x1="198.92857"
       y1="486.6479"
       x2="638.21429"
       y2="486.6479" />
    <linearGradient
       inkscape:collect="always"
       xlink:href="#linearGradient12876"
       id="linearGradient12902"
       gradientUnits="userSpaceOnUse"
       gradientTransform="translate(-1.1664537e-5,-3.7816439e-5)"
       x1="198.92857"
       y1="486.6479"
       x2="638.21429"
       y2="486.6479" />
  </defs>
  <sodipodi:namedview
     id="base"
     pagecolor="#ffffff"
     bordercolor="#666666"
     borderopacity="1.0"
     inkscape:pageopacity="0.0"
     inkscape:pageshadow="2"
     inkscape:zoom="0.7"
     inkscape:cx="279.99432"
     inkscape:cy="484.95233"
     inkscape:document-units="px"
     inkscape:current-layer="layer1"
     showgrid="false"
     inkscape:window-width="1068"
     inkscape:window-height="722"
     inkscape:window-x="8"
     inkscape:window-y="0"
     inkscape:window-maximized="0" />
  <metadata
     id="metadata12263">
    <rdf:RDF>
      <cc:Work
         rdf:about="">
        <dc:format>image/svg+xml</dc:format>
        <dc:type
           rdf:resource="http://purl.org/dc/dcmitype/StillImage" />
        <dc:title></dc:title>
      </cc:Work>
    </rdf:RDF>
  </metadata>
  <g
     inkscape:label="Layer 1"
     inkscape:groupmode="layer"
     id="layer1">
    <path
       style="fill:url(#linearGradient12856);fill-opacity:1;stroke:#d0980c;stroke-width:4.81330299;stroke-linecap:butt;stroke-linejoin:miter;stroke-miterlimit:4;stroke-opacity:1;stroke-dasharray:none"
       d="m 89.594526,608.07647 c 136.335064,26.8217 260.229334,65.67927 495.130754,-2.85715 14.18932,12.11403 19.73859,32.21946 9.26715,67.14286 -133.54041,21.71026 -272.37915,79.17614 -516.312816,-8.57143 -7.906853,-41.64354 2.750983,-47.22807 11.914912,-55.71428 z"
       id="path12838"
       inkscape:connector-curvature="0"
       sodipodi:nodetypes="ccccc" />
    <path
       sodipodi:nodetypes="ccccc"
       style="opacity:0.15517243;fill:#000000;fill-opacity:1;stroke:#000000;stroke-width:5;stroke-linecap:butt;stroke-linejoin:miter;stroke-miterlimit:4;stroke-opacity:1;stroke-dasharray:none"
       d="m 617.14287,525.21934 c -110.41193,16.96655 -99.4669,91.97338 -130,147.14285 -75.58289,-139.88837 -213.47846,-122.5574 -288.57142,-61.42857 -3.25311,-84.45738 101.65698,-22.67209 228.57141,-140 z"
       id="path12987"
       inkscape:connector-curvature="0" />
    <path
       style="opacity:0.08620689;fill:#000000;fill-opacity:1;stroke:#000000;stroke-width:4.88100195;stroke-linecap:butt;stroke-linejoin:miter;stroke-miterlimit:4;stroke-opacity:1;stroke-dasharray:none"
       d="m 118.57143,592.36217 c -128.888523,46.9755 154.18308,75.63493 404.33035,51.42858 15.63307,-5.87741 33.92397,-2.37922 44.24161,-6.74784 82.4251,-34.8999 -1.9168,-33.40194 -109.59319,-29.11189 -118.23691,4.71081 -270.46328,1.70523 -338.97877,-15.56885 z"
       id="path12979"
       inkscape:connector-curvature="0"
       sodipodi:nodetypes="ccssc" />
    <path
       sodipodi:nodetypes="ccssc"
       inkscape:connector-curvature="0"
       id="path12894"
       d="M 115.71429,579.50503 C -19.535413,626.48053 277.50694,655.13996 540,630.93361 c 16.40463,-5.87741 35.59826,-2.37922 46.42511,-6.74784 86.49312,-34.8999 -2.0114,-33.40194 -115.00206,-29.11189 -124.07238,4.71081 -283.81175,1.70523 -355.70876,-15.56885 z"
       style="fill:url(#linearGradient12896);fill-opacity:1;stroke:#602400;stroke-width:5;stroke-linecap:butt;stroke-linejoin:miter;stroke-miterlimit:4;stroke-opacity:1;stroke-dasharray:none" />
    <path
       inkscape:connector-curvature="0"
       id="path12898"
       d="m 630.00001,519.50506 c -110.41193,16.96655 -99.4669,91.97338 -130,147.14285 C 424.41712,526.75954 286.52155,544.09051 211.42859,605.21934 208.17548,520.76196 313.08557,582.54725 440,465.21934 z"
       style="fill:url(#linearGradient12900);fill-opacity:1;stroke:url(#linearGradient12902);stroke-width:5;stroke-linecap:butt;stroke-linejoin:miter;stroke-miterlimit:4;stroke-opacity:1;stroke-dasharray:none"
       sodipodi:nodetypes="ccccc" />
    <path
       sodipodi:nodetypes="cccscscscccc"
       inkscape:connector-curvature="0"
       id="path12985"
       d="m 64.285715,493.79076 c -8.862528,11.53693 -59.6184464,31.97994 4.285714,68.57142 -10.392251,84.75827 99.079221,48.59773 114.285711,41.42858 14.35691,25.9778 55.4178,2.95004 74.29095,4.20714 28.81968,1.91962 38.24569,18.61018 75.70905,24.36428 30.91901,-20.8708 61.86423,-37.58803 81.47351,-23.08382 21.72955,16.0725 50.937,16.59186 74.95507,18.79811 34.04305,-7.22623 117.60041,32.53037 105.03389,-39.12529 -2.76398,-15.76054 3.94421,0.79448 22.82325,-12.30328 C 630.67532,549.0907 638.98183,525.26632 600,535.21933 L 92.857139,530.93361 c -1.52006,-29.98919 -8.101356,-48.84367 -28.571424,-37.14285 z"
       style="opacity:0.11637932;fill:#000000;stroke:#000000;stroke-width:5;stroke-linecap:butt;stroke-linejoin:miter;stroke-miterlimit:4;stroke-opacity:1;stroke-dasharray:none" />
    <path
       style="fill:#00c000;stroke:#009100;stroke-width:5;stroke-linecap:butt;stroke-linejoin:miter;stroke-miterlimit:4;stroke-opacity:1;stroke-dasharray:none"
       d="M 75.714286,485.21933 C 66.851758,496.75626 16.09584,517.19927 80,553.79075 c -10.392251,84.75827 99.07922,48.59773 114.28571,41.42858 14.35691,25.9778 55.4178,2.95004 74.29095,4.20714 28.81968,1.91962 38.24569,18.61018 75.70905,24.36428 30.91901,-20.8708 61.86423,-37.58803 81.47351,-23.08382 21.72955,16.0725 50.937,16.59186 74.95507,18.79811 34.04305,-7.22623 117.60041,32.53037 105.03389,-39.12529 -2.76398,-15.76054 3.94421,0.79448 22.82325,-12.30328 13.53246,-27.5572 21.83897,-51.38158 -17.14286,-41.42857 l -507.14286,-4.28572 c -1.52006,-29.98919 -8.101356,-48.84367 -28.571424,-37.14285 z"
       id="path12892"
       inkscape:connector-curvature="0"
       sodipodi:nodetypes="cccscscscccc" />
    <path
       sodipodi:nodetypes="ccccc"
       inkscape:connector-curvature="0"
       id="path12983"
       d="M 497.14287,453.79076 355.7143,608.07647 C 238.09525,572.83837 169.93032,471.66146 2.8571517,502.36219 L 302.85715,349.50504 z"
       style="opacity:0.12931034;fill:#000000;fill-opacity:1;stroke:#000000;stroke-width:5;stroke-linecap:butt;stroke-linejoin:miter;stroke-miterlimit:4;stroke-opacity:1;stroke-dasharray:none" />
    <path
       style="fill:url(#linearGradient12890);fill-opacity:1;stroke:url(#linearGradient12882);stroke-width:5;stroke-linecap:butt;stroke-linejoin:miter;stroke-miterlimit:4;stroke-opacity:1;stroke-dasharray:none"
       d="M 494.28572,445.21933 352.85715,599.50504 C 235.2381,564.26694 167.07317,463.09003 8.8480977e-6,493.79076 L 300,340.93361 z"
       id="path12874"
       inkscape:connector-curvature="0"
       sodipodi:nodetypes="ccccc" />
    <path
       sodipodi:nodetypes="ccssc"
       inkscape:connector-curvature="0"
       id="path12981"
       d="m 104.28572,512.36217 c -135.249704,46.9755 161.79265,75.63493 424.28571,51.42858 16.40463,-5.87741 35.59826,-2.37922 46.42511,-6.74784 86.49312,-34.8999 -2.0114,-33.40194 -115.00206,-29.11189 -124.07238,4.71081 -283.81175,1.70523 -355.70876,-15.56885 z"
       style="opacity:0.13362068;fill:#000000;fill-opacity:1;stroke:#000000;stroke-width:5;stroke-linecap:butt;stroke-linejoin:miter;stroke-miterlimit:4;stroke-opacity:1;stroke-dasharray:none" />
    <path
       style="fill:url(#linearGradient12866);fill-opacity:1;stroke:#602400;stroke-width:5;stroke-linecap:butt;stroke-linejoin:miter;stroke-miterlimit:4;stroke-opacity:1;stroke-dasharray:none"
       d="M 105.71429,503.79074 C -29.535413,550.76624 267.50694,579.42567 530,555.21932 c 16.40463,-5.87741 35.59826,-2.37922 46.42511,-6.74784 86.49312,-34.8999 -2.0114,-33.40194 -115.00206,-29.11189 -124.07238,4.71081 -283.81175,1.70523 -355.70876,-15.56885 z"
       id="path12858"
       inkscape:connector-curvature="0"
       sodipodi:nodetypes="ccssc" />
    <path
       style="fill:#dc0000;stroke:#b50000;stroke-width:5;stroke-linecap:butt;stroke-linejoin:miter;stroke-miterlimit:4;stroke-opacity:1;stroke-dasharray:none"
       d="m 598.35409,466.64789 c 14.80303,24.17678 -76.78449,64.14446 -196.99415,66.5049 -87.56523,1.71943 -189.64744,-20.53958 -280.14871,-63.64776 z"
       id="path12872"
       inkscape:connector-curvature="0"
       sodipodi:nodetypes="cscc" />
    <path
       sodipodi:nodetypes="cscc"
       inkscape:connector-curvature="0"
       id="path12977"
       d="M 89.266326,482.53551 C 81.012031,464.65078 75.647691,450.20462 82.862549,432.68183 135.22395,305.51112 675.60687,327.46044 592.62301,482.53551 c -164.65822,47.71566 -331.7231,58.71165 -503.356684,0 z"
       style="opacity:0.11051725;fill:#000000;fill-opacity:1;stroke:#000000;stroke-width:4.78951263;stroke-linecap:butt;stroke-linejoin:miter;stroke-miterlimit:4;stroke-opacity:1;stroke-dasharray:none" />
    <path
       style="fill:url(#linearGradient12846);fill-opacity:1;stroke:#c48800;stroke-width:4.89219809;stroke-linecap:butt;stroke-linejoin:miter;stroke-miterlimit:4;stroke-opacity:1;stroke-dasharray:none"
       d="M 85.258144,468.24979 C 76.646118,450.36506 71.049293,435.9189 78.576835,418.39611 133.20753,291.2254 697.01004,313.17472 610.42974,468.24979 c -171.79432,47.71566 -346.0996,58.71165 -525.171596,0 z"
       id="path12328"
       inkscape:connector-curvature="0"
       sodipodi:nodetypes="cscc" />
    <path
       style="fill:#ecd454;stroke:#d8ac24;stroke-width:1px;stroke-linecap:butt;stroke-linejoin:miter;stroke-opacity:1"
       d="m 250.74989,360.69758 c 25.59194,-11.72961 20.36999,-6.38075 6.40992,3.81118 z"
       id="path12906"
       inkscape:connector-curvature="0"
       sodipodi:nodetypes="ccc" />
    <path
       sodipodi:nodetypes="ccc"
       inkscape:connector-curvature="0"
       id="path12908"
       d="m 210.13355,366.13181 c 26.8707,-8.39623 21.01376,-3.7513 5.87602,4.59181 z"
       style="fill:#ecd454;stroke:#d8ac24;stroke-width:1px;stroke-linecap:butt;stroke-linejoin:miter;stroke-opacity:1" />
    <path
       style="fill:#ecd454;stroke:#d8ac24;stroke-width:1px;stroke-linecap:butt;stroke-linejoin:miter;stroke-opacity:1"
       d="m 238.41915,393.07031 c 21.98324,-17.58603 18.2144,-11.13042 7.14286,2.14286 z"
       id="path12910"
       inkscape:connector-curvature="0"
       sodipodi:nodetypes="ccc" />
    <path
       sodipodi:nodetypes="ccc"
       inkscape:connector-curvature="0"
       id="path12912"
       d="m 283.21585,398.82843 c 22.62682,-16.74989 18.61871,-10.44004 7.05754,2.40902 z"
       style="fill:#ecd454;stroke:#d8ac24;stroke-width:1px;stroke-linecap:butt;stroke-linejoin:miter;stroke-opacity:1" />
    <path
       style="fill:#ecd454;stroke:#d8ac24;stroke-width:1px;stroke-linecap:butt;stroke-linejoin:miter;stroke-opacity:1"
       d="m 325.39987,410.24412 c 12.24506,-25.34935 11.63013,-17.89946 7.3684,-1.14844 z"
       id="path12914"
       inkscape:connector-curvature="0"
       sodipodi:nodetypes="ccc"
       inkscape:transform-center-x="5.5720491" />
    <path
       sodipodi:nodetypes="ccc"
       inkscape:connector-curvature="0"
       id="path12916"
       d="m 261.14758,380.94847 c 21.98324,-17.58603 18.2144,-11.13042 7.14286,2.14286 z"
       style="fill:#ecd454;stroke:#d8ac24;stroke-width:1px;stroke-linecap:butt;stroke-linejoin:miter;stroke-opacity:1" />
    <path
       style="fill:#ecd454;stroke:#d8ac24;stroke-width:1px;stroke-linecap:butt;stroke-linejoin:miter;stroke-opacity:1"
       d="m 369.06807,414.78377 c 1.44566,-28.11479 3.77061,-21.01031 6.34493,-3.91844 z"
       id="path12918"
       inkscape:connector-curvature="0"
       sodipodi:nodetypes="ccc" />
    <path
       sodipodi:nodetypes="ccc"
       inkscape:connector-curvature="0"
       id="path12920"
       d="m 318.29342,390.86834 c 10.63099,-26.06747 10.48454,-18.59368 7.28187,-1.60834 z"
       style="fill:#ecd454;stroke:#d8ac24;stroke-width:1px;stroke-linecap:butt;stroke-linejoin:miter;stroke-opacity:1" />
    <path
       style="fill:#ecd454;stroke:#d8ac24;stroke-width:1px;stroke-linecap:butt;stroke-linejoin:miter;stroke-opacity:1"
       d="m 357.18708,390.92461 c 7.22539,-27.20892 8.03174,-19.7773 7.01781,-2.52242 z"
       id="path12922"
       inkscape:connector-curvature="0"
       sodipodi:nodetypes="ccc" />
    <path
       sodipodi:nodetypes="ccc"
       inkscape:connector-curvature="0"
       id="path12924"
       d="m 418.08359,379.66872 c -25.36015,-12.22268 -20.2427,-6.77377 -6.48248,3.68642 z"
       style="fill:#ecd454;stroke:#d8ac24;stroke-width:1px;stroke-linecap:butt;stroke-linejoin:miter;stroke-opacity:1" />
    <path
       style="fill:#ecd454;stroke:#d8ac24;stroke-width:1px;stroke-linecap:butt;stroke-linejoin:miter;stroke-opacity:1"
       d="m 448.28915,395.95741 c -26.32695,-9.97111 -20.75505,-4.98784 -6.13736,4.23616 z"
       id="path12926"
       inkscape:connector-curvature="0"
       sodipodi:nodetypes="ccc" />
    <path
       sodipodi:nodetypes="ccc"
       inkscape:connector-curvature="0"
       id="path12928"
       d="m 485.27911,361.69314 c -27.21451,-7.20426 -21.15863,-2.82187 -5.66801,4.84623 z"
       style="fill:#ecd454;stroke:#d8ac24;stroke-width:1px;stroke-linecap:butt;stroke-linejoin:miter;stroke-opacity:1" />
    <path
       sodipodi:nodetypes="ccc"
       inkscape:connector-curvature="0"
       id="path12932"
       d="m 467.89988,382.74372 c -25.82236,-11.21324 -20.49403,-5.97034 -6.33208,3.93915 z"
       style="fill:#ecd454;stroke:#d8ac24;stroke-width:1px;stroke-linecap:butt;stroke-linejoin:miter;stroke-opacity:1" />
    <path
       style="fill:#ecd454;stroke:#d8ac24;stroke-width:1px;stroke-linecap:butt;stroke-linejoin:miter;stroke-opacity:1"
       d="m 418.56851,407.71752 c -21.98324,-17.58603 -18.2144,-11.13042 -7.14286,2.14286 z"
       id="path12936"
       inkscape:connector-curvature="0"
       sodipodi:nodetypes="ccc" />
    <path
       style="fill:#ecd454;stroke:#d8ac24;stroke-width:1px;stroke-linecap:butt;stroke-linejoin:miter;stroke-opacity:1"
       d="m 417.5259,355.27053 c -26.6266,-9.14087 -20.90121,-4.33472 -6.00154,4.42648 z"
       id="path12938"
       inkscape:connector-curvature="0"
       sodipodi:nodetypes="ccc" />
    <path
       sodipodi:nodetypes="ccc"
       inkscape:connector-curvature="0"
       id="path12940"
       d="m 500.1775,386.47402 c -25.56849,-11.78066 -20.35722,-6.42139 -6.41752,3.79838 z"
       style="fill:#ecd454;stroke:#d8ac24;stroke-width:1px;stroke-linecap:butt;stroke-linejoin:miter;stroke-opacity:1" />
    <path
       style="fill:#ecd454;stroke:#d8ac24;stroke-width:1px;stroke-linecap:butt;stroke-linejoin:miter;stroke-opacity:1"
       d="m 334.78445,369.19053 c 18.44637,-21.26647 15.90517,-14.23644 7.41238,0.81785 z"
       id="path12942"
       inkscape:connector-curvature="0"
       sodipodi:nodetypes="ccc" />
    <path
       sodipodi:nodetypes="ccc"
       inkscape:connector-curvature="0"
       id="path12944"
       d="m 372.61698,353.07128 c -27.64512,-5.31773 -20.28749,-6.63841 -3.00386,-6.82563 z"
       style="fill:#ecd454;stroke:#d8ac24;stroke-width:1px;stroke-linecap:butt;stroke-linejoin:miter;stroke-opacity:1" />
    <path
       style="fill:#ecd454;stroke:#d8ac24;stroke-width:1px;stroke-linecap:butt;stroke-linejoin:miter;stroke-opacity:1"
       d="m 450.33473,360.961 c -26.48634,-9.53964 -20.83377,-4.64807 -6.06733,4.33587 z"
       id="path12946"
       inkscape:connector-curvature="0"
       sodipodi:nodetypes="ccc"
       inkscape:transform-center-x="7.0710678"
       inkscape:transform-center-y="5.2635364" />
    <path
       sodipodi:nodetypes="ccc"
       inkscape:connector-curvature="0"
       id="path12948"
       d="m 387.40886,371.04924 c -22.62682,-16.74989 -18.61871,-10.44004 -7.05754,2.40902 z"
       style="fill:#ecd454;stroke:#d8ac24;stroke-width:1px;stroke-linecap:butt;stroke-linejoin:miter;stroke-opacity:1"
       inkscape:transform-center-x="-8.6874908" />
    <path
       style="fill:#ecd454;stroke:#d8ac24;stroke-width:1px;stroke-linecap:butt;stroke-linejoin:miter;stroke-opacity:1"
       d="m 313.71845,352.81358 c 26.5561,-9.34371 20.86755,-4.49403 6.03514,4.38058 z"
       id="path12950"
       inkscape:connector-curvature="0"
       sodipodi:nodetypes="ccc" />
    <path
       sodipodi:nodetypes="ccc"
       inkscape:connector-curvature="0"
       id="path12952"
       d="m 289.93693,373.51035 c 21.98324,-20.59831 18.2144,-13.03693 7.14286,2.50991 z"
       style="fill:#ecd454;stroke:#d8ac24;stroke-width:1.08226085px;stroke-linecap:butt;stroke-linejoin:miter;stroke-opacity:1" />
    <path
       style="fill:#ecd454;stroke:#d8ac24;stroke-width:1.08226085px;stroke-linecap:butt;stroke-linejoin:miter;stroke-opacity:1"
       d="m 280.97541,355.41599 c 28.72787,-9.06987 22.06045,-3.88102 5.35573,5.35129 z"
       id="path12956"
       inkscape:connector-curvature="0"
       sodipodi:nodetypes="ccc" />
  </g>
</svg>
