<?xml version="1.0" encoding="UTF-8" standalone="no"?>
<!-- Created with Inkscape (http://www.inkscape.org/) -->

<svg
   xmlns:dc="http://purl.org/dc/elements/1.1/"
   xmlns:cc="http://creativecommons.org/ns#"
   xmlns:rdf="http://www.w3.org/1999/02/22-rdf-syntax-ns#"
   xmlns:svg="http://www.w3.org/2000/svg"
   xmlns="http://www.w3.org/2000/svg"
   xmlns:xlink="http://www.w3.org/1999/xlink"
   xmlns:sodipodi="http://sodipodi.sourceforge.net/DTD/sodipodi-0.dtd"
   xmlns:inkscape="http://www.inkscape.org/namespaces/inkscape"
   width="744.09448819"
   height="1052.3622047"
   id="svg11358"
   version="1.1"
   inkscape:version="0.48.2 r9819"
   sodipodi:docname="cheese.svg">
  <defs
     id="defs11360">
    <linearGradient
       inkscape:collect="always"
       id="linearGradient4812">
      <stop
         style="stop-color:#f0a513;stop-opacity:1;"
         offset="0"
         id="stop4814" />
      <stop
         style="stop-color:#f0a513;stop-opacity:0;"
         offset="1"
         id="stop4816" />
    </linearGradient>
    <linearGradient
       inkscape:collect="always"
       id="linearGradient4804">
      <stop
         style="stop-color:#f0a513;stop-opacity:1;"
         offset="0"
         id="stop4806" />
      <stop
         style="stop-color:#f0a513;stop-opacity:0;"
         offset="1"
         id="stop4808" />
    </linearGradient>
    <linearGradient
       inkscape:collect="always"
       id="linearGradient4788">
      <stop
         style="stop-color:#f0a513;stop-opacity:1;"
         offset="0"
         id="stop4790" />
      <stop
         style="stop-color:#f0a513;stop-opacity:0;"
         offset="1"
         id="stop4792" />
    </linearGradient>
    <linearGradient
       inkscape:collect="always"
       id="linearGradient4780">
      <stop
         style="stop-color:#f0a513;stop-opacity:1;"
         offset="0"
         id="stop4782" />
      <stop
         style="stop-color:#f0a513;stop-opacity:0;"
         offset="1"
         id="stop4784" />
    </linearGradient>
    <linearGradient
       inkscape:collect="always"
       id="linearGradient4772">
      <stop
         style="stop-color:#f0a513;stop-opacity:1;"
         offset="0"
         id="stop4774" />
      <stop
         style="stop-color:#f0a513;stop-opacity:0;"
         offset="1"
         id="stop4776" />
    </linearGradient>
    <linearGradient
       inkscape:collect="always"
       id="linearGradient4764">
      <stop
         style="stop-color:#f0a513;stop-opacity:1;"
         offset="0"
         id="stop4766" />
      <stop
         style="stop-color:#f0a513;stop-opacity:0;"
         offset="1"
         id="stop4768" />
    </linearGradient>
    <linearGradient
       inkscape:collect="always"
       id="linearGradient4756">
      <stop
         style="stop-color:#f0a513;stop-opacity:1;"
         offset="0"
         id="stop4758" />
      <stop
         style="stop-color:#f0a513;stop-opacity:0;"
         offset="1"
         id="stop4760" />
    </linearGradient>
    <linearGradient
       inkscape:collect="always"
       id="linearGradient4748">
      <stop
         style="stop-color:#f0a513;stop-opacity:1;"
         offset="0"
         id="stop4750" />
      <stop
         style="stop-color:#f0a513;stop-opacity:0;"
         offset="1"
         id="stop4752" />
    </linearGradient>
    <linearGradient
       inkscape:collect="always"
       id="linearGradient4740">
      <stop
         style="stop-color:#f0a513;stop-opacity:1;"
         offset="0"
         id="stop4742" />
      <stop
         style="stop-color:#f0a513;stop-opacity:0;"
         offset="1"
         id="stop4744" />
    </linearGradient>
    <linearGradient
       inkscape:collect="always"
       id="linearGradient4732">
      <stop
         style="stop-color:#f0a513;stop-opacity:1;"
         offset="0"
         id="stop4734" />
      <stop
         style="stop-color:#f0a513;stop-opacity:0;"
         offset="1"
         id="stop4736" />
    </linearGradient>
    <linearGradient
       inkscape:collect="always"
       id="linearGradient4724">
      <stop
         style="stop-color:#f0a513;stop-opacity:1;"
         offset="0"
         id="stop4726" />
      <stop
         style="stop-color:#f0a513;stop-opacity:0;"
         offset="1"
         id="stop4728" />
    </linearGradient>
    <linearGradient
       inkscape:collect="always"
       id="linearGradient4716">
      <stop
         style="stop-color:#f0a513;stop-opacity:1;"
         offset="0"
         id="stop4718" />
      <stop
         style="stop-color:#f0a513;stop-opacity:0;"
         offset="1"
         id="stop4720" />
    </linearGradient>
    <linearGradient
       inkscape:collect="always"
       id="linearGradient4708">
      <stop
         style="stop-color:#f0a513;stop-opacity:1;"
         offset="0"
         id="stop4710" />
      <stop
         style="stop-color:#f0a513;stop-opacity:0;"
         offset="1"
         id="stop4712" />
    </linearGradient>
    <linearGradient
       inkscape:collect="always"
       id="linearGradient4700">
      <stop
         style="stop-color:#f0a513;stop-opacity:1;"
         offset="0"
         id="stop4702" />
      <stop
         style="stop-color:#f0a513;stop-opacity:0;"
         offset="1"
         id="stop4704" />
    </linearGradient>
    <linearGradient
       inkscape:collect="always"
       id="linearGradient4692">
      <stop
         style="stop-color:#f0a513;stop-opacity:1;"
         offset="0"
         id="stop4694" />
      <stop
         style="stop-color:#f0a513;stop-opacity:0;"
         offset="1"
         id="stop4696" />
    </linearGradient>
    <linearGradient
       inkscape:collect="always"
       id="linearGradient4684">
      <stop
         style="stop-color:#f0a513;stop-opacity:1;"
         offset="0"
         id="stop4686" />
      <stop
         style="stop-color:#f0a513;stop-opacity:0;"
         offset="1"
         id="stop4688" />
    </linearGradient>
    <linearGradient
       inkscape:collect="always"
       id="linearGradient4676">
      <stop
         style="stop-color:#000000;stop-opacity:1;"
         offset="0"
         id="stop4678" />
      <stop
         style="stop-color:#000000;stop-opacity:0;"
         offset="1"
         id="stop4680" />
    </linearGradient>
    <linearGradient
       inkscape:collect="always"
       id="linearGradient12194">
      <stop
         style="stop-color:#f0a513;stop-opacity:1;"
         offset="0"
         id="stop12196" />
      <stop
         style="stop-color:#f0a513;stop-opacity:0;"
         offset="1"
         id="stop12198" />
    </linearGradient>
    <linearGradient
       id="linearGradient12076">
      <stop
         style="stop-color:#f7f744;stop-opacity:1;"
         offset="0"
         id="stop12078" />
      <stop
         style="stop-color:#eec23e;stop-opacity:1;"
         offset="1"
         id="stop12080" />
    </linearGradient>
    <linearGradient
       inkscape:collect="always"
       xlink:href="#linearGradient12076"
       id="linearGradient12066"
       x1="306.64285"
       y1="586.64789"
       x2="614.78571"
       y2="586.64789"
       gradientUnits="userSpaceOnUse" />
    <linearGradient
       inkscape:collect="always"
       xlink:href="#linearGradient12076"
       id="linearGradient12074"
       x1="203.78571"
       y1="497.36218"
       x2="611.92859"
       y2="497.36218"
       gradientUnits="userSpaceOnUse" />
    <linearGradient
       inkscape:collect="always"
       xlink:href="#linearGradient12076"
       id="linearGradient12082"
       x1="198.07143"
       y1="573.07648"
       x2="311.92856"
       y2="573.07648"
       gradientUnits="userSpaceOnUse" />
    <linearGradient
       inkscape:collect="always"
       xlink:href="#linearGradient12194"
       id="linearGradient12200"
       x1="241.16785"
       y1="583.80916"
       x2="271.68859"
       y2="583.80916"
       gradientUnits="userSpaceOnUse" />
    <linearGradient
       inkscape:collect="always"
       xlink:href="#linearGradient4676"
       id="linearGradient4682"
       x1="336.70294"
       y1="557.48181"
       x2="374.78571"
       y2="557.48181"
       gradientUnits="userSpaceOnUse" />
    <linearGradient
       inkscape:collect="always"
       xlink:href="#linearGradient4684"
       id="linearGradient4690"
       x1="514.20771"
       y1="495.09191"
       x2="530.40998"
       y2="495.09191"
       gradientUnits="userSpaceOnUse" />
    <linearGradient
       inkscape:collect="always"
       xlink:href="#linearGradient4692"
       id="linearGradient4698"
       x1="547.91566"
       y1="473.75299"
       x2="572.07822"
       y2="473.75299"
       gradientUnits="userSpaceOnUse" />
    <linearGradient
       inkscape:collect="always"
       xlink:href="#linearGradient4700"
       id="linearGradient4706"
       x1="540.92054"
       y1="559.54035"
       x2="557.79251"
       y2="559.54035"
       gradientUnits="userSpaceOnUse" />
    <linearGradient
       inkscape:collect="always"
       xlink:href="#linearGradient4708"
       id="linearGradient4714"
       x1="290.63927"
       y1="510.93361"
       x2="304.91877"
       y2="510.93361"
       gradientUnits="userSpaceOnUse" />
    <linearGradient
       inkscape:collect="always"
       xlink:href="#linearGradient4716"
       id="linearGradient4722"
       x1="272.63606"
       y1="650.28051"
       x2="300.18623"
       y2="650.28051"
       gradientUnits="userSpaceOnUse" />
    <linearGradient
       inkscape:collect="always"
       xlink:href="#linearGradient4724"
       id="linearGradient4730"
       x1="218.27096"
       y1="478.79075"
       x2="238.79251"
       y2="478.79075"
       gradientUnits="userSpaceOnUse" />
    <linearGradient
       inkscape:collect="always"
       xlink:href="#linearGradient4732"
       id="linearGradient4738"
       x1="430.22222"
       y1="566.6479"
       x2="471.17259"
       y2="566.6479"
       gradientUnits="userSpaceOnUse" />
    <linearGradient
       inkscape:collect="always"
       xlink:href="#linearGradient4740"
       id="linearGradient4746"
       x1="450.77696"
       y1="443.72319"
       x2="496.31286"
       y2="443.72319"
       gradientUnits="userSpaceOnUse" />
    <linearGradient
       inkscape:collect="always"
       xlink:href="#linearGradient4748"
       id="linearGradient4754"
       x1="334.60203"
       y1="488.27372"
       x2="365.17777"
       y2="488.27372"
       gradientUnits="userSpaceOnUse" />
    <linearGradient
       inkscape:collect="always"
       xlink:href="#linearGradient4756"
       id="linearGradient4762"
       x1="271.80472"
       y1="440.86607"
       x2="302.42795"
       y2="440.86607"
       gradientUnits="userSpaceOnUse" />
    <linearGradient
       inkscape:collect="always"
       xlink:href="#linearGradient4764"
       id="linearGradient4770"
       x1="343.21428"
       y1="682.36218"
       x2="381.07142"
       y2="682.36218"
       gradientUnits="userSpaceOnUse" />
    <linearGradient
       inkscape:collect="always"
       xlink:href="#linearGradient4772"
       id="linearGradient4778"
       x1="328.54604"
       y1="558.77353"
       x2="383.00029"
       y2="558.77353"
       gradientUnits="userSpaceOnUse" />
    <linearGradient
       inkscape:collect="always"
       xlink:href="#linearGradient4780"
       id="linearGradient4786"
       x1="328.50118"
       y1="558.76153"
       x2="383.00029"
       y2="558.76153"
       gradientUnits="userSpaceOnUse" />
    <linearGradient
       inkscape:collect="always"
       xlink:href="#linearGradient4788"
       id="linearGradient4794"
       x1="328.54604"
       y1="558.77353"
       x2="383.00029"
       y2="558.77353"
       gradientUnits="userSpaceOnUse" />
    <linearGradient
       inkscape:collect="always"
       xlink:href="#linearGradient12076"
       id="linearGradient4802"
       x1="196.07143"
       y1="573.07648"
       x2="313.92856"
       y2="573.07648"
       gradientUnits="userSpaceOnUse" />
    <linearGradient
       inkscape:collect="always"
       xlink:href="#linearGradient4804"
       id="linearGradient4810"
       x1="204.6621"
       y1="500.21932"
       x2="614.80787"
       y2="500.21932"
       gradientUnits="userSpaceOnUse" />
    <linearGradient
       inkscape:collect="always"
       xlink:href="#linearGradient4812"
       id="linearGradient4818"
       x1="304.64286"
       y1="586.6479"
       x2="618.21428"
       y2="586.6479"
       gradientUnits="userSpaceOnUse" />
  </defs>
  <sodipodi:namedview
     id="base"
     pagecolor="#ffffff"
     bordercolor="#666666"
     borderopacity="1.0"
     inkscape:pageopacity="0.0"
     inkscape:pageshadow="2"
     inkscape:zoom="0.35"
     inkscape:cx="604.42838"
     inkscape:cy="391.5001"
     inkscape:document-units="px"
     inkscape:current-layer="layer1"
     showgrid="false"
     showguides="true"
     inkscape:guide-bbox="true"
     inkscape:window-width="1306"
     inkscape:window-height="718"
     inkscape:window-x="38"
     inkscape:window-y="22"
     inkscape:window-maximized="0" />
  <metadata
     id="metadata11363">
    <rdf:RDF>
      <cc:Work
         rdf:about="">
        <dc:format>image/svg+xml</dc:format>
        <dc:type
           rdf:resource="http://purl.org/dc/dcmitype/StillImage" />
        <dc:title />
      </cc:Work>
    </rdf:RDF>
  </metadata>
  <g
     inkscape:label="Layer 1"
     inkscape:groupmode="layer"
     id="layer1">
    <path
       style="fill:url(#linearGradient12074);fill-opacity:1;stroke:url(#linearGradient4810);stroke-width:4.96150969999999969;stroke-linecap:butt;stroke-linejoin:miter;stroke-miterlimit:4;stroke-opacity:0.93805309000000003;stroke-dasharray:none"
       d="m 207.14285,388.07647 405.18427,24.28571 c -61.84061,34.11172 -168.01313,92.94626 -230.46699,129.46088 -8.21064,4.80047 -28.18088,-6.10406 -34.35267,-1.28803 -17.00479,13.26932 -20.31698,15.04675 -16.57838,31.82715 l -22.50659,40 -18.2866,-45.71429 z"
       id="path11542"
       inkscape:connector-curvature="0"
       sodipodi:nodetypes="ccsscccc" />
    <path
       style="fill:url(#linearGradient12082);stroke:url(#linearGradient4802);stroke-width:5;stroke-linecap:butt;stroke-linejoin:miter;stroke-opacity:1;fill-opacity:1;stroke-miterlimit:4;stroke-dasharray:none"
       d="M 202.85714,385.21933 307.14286,608.07647 311.42857,760.93361 198.57143,515.21933 z"
       id="path11548"
       inkscape:connector-curvature="0" />
    <path
       style="fill:url(#linearGradient12066);fill-opacity:1;stroke:url(#linearGradient4818);stroke-width:5;stroke-linecap:butt;stroke-linejoin:miter;stroke-miterlimit:4;stroke-opacity:0.96017701;stroke-dasharray:none"
       d="m 332.85714,569.50504 -25.71428,38.57143 4.28571,151.42857 294.28572,-218.57143 5.4543,-128.65809 c -74.0846,35.06592 -153.0166,70.93882 -234.56094,126.85917 -6.67515,4.5776 17.67309,15.6743 -7.91027,39.16941 -11.87295,-4.48395 -23.89349,5.39359 -35.84024,-8.79906 z"
       id="path11550"
       inkscape:connector-curvature="0"
       sodipodi:nodetypes="cccccscc" />
    <path
       style="opacity:0.05603446000000000;fill:#f0a513;fill-opacity:1;fill-rule:nonzero;stroke:url(#linearGradient4794);stroke-width:7.14285706999999981;stroke-miterlimit:4;stroke-opacity:0.96017701000000000;stroke-dasharray:none"
       d="m 347.04329,576.17665 c -6.0675,-2.62813 -12.68226,-8.6747 -14.43967,-13.19935 -1.90545,-4.90578 1.83654,-11.37195 10.41368,-17.99486 l 7.27136,-5.61464 9.8324,1.68607 c 5.40782,0.92734 11.29967,1.68607 13.093,1.68607 2.93131,0 3.44978,1.06469 5.1338,10.54244 2.61522,14.71855 1.08385,17.68616 -11.30457,21.90698 -10.97618,3.73967 -13.37255,3.85796 -20,0.98729 l 0,0 z"
       id="path12112"
       inkscape:connector-curvature="0" />
    <path
       style="opacity:0.05603446000000000;fill:#eea33e;fill-opacity:1;fill-rule:nonzero;stroke:url(#linearGradient4786);stroke-width:7.14285706999999981;stroke-miterlimit:4;stroke-opacity:0.96017701000000000;stroke-dasharray:none"
       d="m 347.04329,576.17665 c -5.98029,-2.59036 -12.67497,-8.65735 -14.37381,-13.02612 -2.04883,-5.26884 1.18264,-11.234 9.60627,-17.73279 l 7.87295,-6.07394 9.90238,1.69807 c 5.44631,0.93394 11.36965,1.69807 13.16298,1.69807 2.93131,0 3.44978,1.06469 5.1338,10.54244 2.61522,14.71855 1.08385,17.68616 -11.30457,21.90698 -10.97618,3.73967 -13.37255,3.85796 -20,0.98729 l 0,0 z"
       id="path12114"
       inkscape:connector-curvature="0" />
    <path
       style="fill:#dc7c01;fill-opacity:1;fill-rule:nonzero;stroke:url(#linearGradient4778);stroke-width:7.14285706999999981;stroke-miterlimit:4;stroke-opacity:0.96017701000000000;stroke-dasharray:none"
       d="m 347.04329,576.17665 c -6.0675,-2.62813 -12.68226,-8.6747 -14.43967,-13.19935 -1.90545,-4.90578 1.83654,-11.37195 10.41368,-17.99486 l 7.27136,-5.61464 9.8324,1.68607 c 5.40782,0.92734 11.29967,1.68607 13.093,1.68607 2.93131,0 3.44978,1.06469 5.1338,10.54244 2.61522,14.71855 1.08385,17.68616 -11.30457,21.90698 -10.97618,3.73967 -13.37255,3.85796 -20,0.98729 l 0,0 z"
       id="path12160"
       inkscape:connector-curvature="0" />
    <path
       sodipodi:type="arc"
       style="fill:#e07e00;fill-opacity:1;fill-rule:nonzero;stroke:url(#linearGradient4770);stroke-width:5;stroke-miterlimit:4;stroke-opacity:0.96017701000000000;stroke-dasharray:none"
       id="path12170"
       sodipodi:cx="362.14285"
       sodipodi:cy="682.36218"
       sodipodi:rx="16.428572"
       sodipodi:ry="17.142857"
       d="m 378.57142,682.36218 a 16.428572,17.142857 0 1 1 -32.85714,0 16.428572,17.142857 0 1 1 32.85714,0 z" />
    <path
       style="fill:#fba700;fill-opacity:1;stroke:url(#linearGradient4762);stroke-width:1.80553639000000010;stroke-linecap:butt;stroke-linejoin:miter;stroke-miterlimit:4;stroke-opacity:1;stroke-dasharray:none"
       d="m 280,437.8066 c -1.90476,0.17248 -5.2381,1.20739 -5.71429,0.51745 C 273.80952,437.63411 280,437.09543 280,437.8066 c 0,4.21216 -4.91323,1.4895 -7.14286,3.10472 -0.21296,0.15428 0,0.34497 0,0.51746 0,0.17248 -0.33671,0.39549 0,0.51745 0.33672,0.12197 1.00266,-0.0771 1.42857,0 0.60234,0.10909 0.82624,0.40837 1.42858,0.51746 0.42591,0.0771 1.76528,0.12196 1.42857,0 -0.75293,-0.27273 -2.85715,-0.90314 -2.85715,-0.51746 0,2.84346 2.63948,0.43862 4.28572,1.03491 0.33672,0.12197 -0.33672,0.39549 0,0.51746 0.75292,0.27272 1.84699,0.39548 2.85714,0.51745 0.45176,0.0545 1.21561,-0.15428 1.42857,0 0.42592,0.30855 -0.30117,0.70764 0,1.03491 1.48635,1.61514 0.95238,-0.17249 2.85715,0.51745 0.75292,0.27273 0.67564,0.76219 1.42857,1.03491 0.14285,0.0518 4.14285,0.0518 4.28571,0 0.33672,-0.12196 -0.21296,-0.36318 0,-0.51745 0.30117,-0.21818 1.1274,-0.29928 1.42857,-0.51746 0.28321,-0.20516 -0.29205,-1.44657 0,-1.55236 0.33672,-0.12197 1.09186,0.12197 1.42857,0 0.33672,-0.12197 -0.21295,-0.36318 0,-0.51745 0.30117,-0.21818 0.95239,-0.34497 1.42858,-0.51746 0.47619,-0.17248 0.86824,-0.38214 1.42857,-0.51745 0.88596,-0.21394 1.84699,-0.39549 2.85714,-0.51746 0.45175,-0.0545 1.09185,0.12197 1.42857,0 0.0459,-0.0166 0,-1.42686 0,-1.55236 0,-0.23304 0.21738,-1.39488 0,-1.55236 -0.30117,-0.21818 -1.1274,-0.29928 -1.42857,-0.51746 -0.21296,-0.15427 0.33672,-0.39549 0,-0.51745 -0.33672,-0.12197 -1.00265,0.0771 -1.42857,0 -0.60234,-0.10909 -0.82623,-0.40837 -1.42857,-0.51746 -0.42592,-0.0771 -1.09186,0.12197 -1.42857,0 -0.33672,-0.12196 0.33671,-0.39548 0,-0.51745 -0.33672,-0.12196 -1.09186,0.12197 -1.42858,0 -0.33671,-0.12196 0.33672,-0.39549 0,-0.51745 -0.33671,-0.12197 -0.95238,0 -1.42857,0 -0.47619,0 -0.95238,0 -1.42857,0 -2.12631,0 -1.82342,0.0771 -4.28571,-0.51746 -0.56033,-0.13531 -0.82624,-0.40836 -1.42857,-0.51745 -0.42592,-0.0771 -0.95239,0 -1.42858,0 -0.95238,0 -1.90476,0 -2.85714,0 -0.47619,0 -1.42857,0.17248 -1.42857,0 0,-0.17249 1.42857,-0.17249 1.42857,0 0,0.24393 -0.82623,0.40836 -1.42857,0.51745 -0.42592,0.0771 -1.42857,-0.17248 -1.42857,0 0,0.71118 0.95238,1.37988 1.42857,2.06982 z"
       id="path12172"
       inkscape:connector-curvature="0" />
    <path
       inkscape:connector-curvature="0"
       id="path12174"
       d="m 356.32346,492.44518 c 1.90025,0.21654 5.37406,-0.12242 5.70078,0.64961 0.32672,0.77203 -5.84469,0.0468 -5.70078,-0.64961 0.85238,-4.12502 5.113,-0.46443 7.62336,-1.59504 0.23977,-0.10799 0.0698,-0.33783 0.10471,-0.50675 0.0349,-0.16892 0.40978,-0.31917 0.10472,-0.50675 -0.30508,-0.18758 -0.99752,-0.12739 -1.39902,-0.28909 -0.5678,-0.22872 -0.7265,-0.56712 -1.29431,-0.79584 -0.40149,-0.1617 -1.70407,-0.47667 -1.39901,-0.28909 0.68216,0.41945 2.61527,1.46263 2.69332,1.08493 0.57541,-2.78463 -2.49611,-0.96368 -3.98762,-1.88077 -0.30507,-0.18758 0.40978,-0.31916 0.10471,-0.50675 -0.68215,-0.41944 -1.72874,-0.76106 -2.69331,-1.08492 -0.43139,-0.1448 -1.22168,-0.0949 -1.39902,-0.28909 -0.35467,-0.38836 0.43814,-0.63206 0.20943,-1.0135 -1.12875,-1.88251 -0.96758,-0.0238 -2.69332,-1.08493 -0.68216,-0.41945 -0.50743,-0.88314 -1.18959,-1.30258 -0.12941,-0.0796 -4.04665,-0.88909 -4.19704,-0.86727 -0.35444,0.0513 0.13506,0.39876 -0.10471,0.50674 -0.33909,0.15272 -1.16464,0.065 -1.50373,0.21767 -0.31887,0.1436 -0.007,1.47574 -0.31414,1.52024 -0.35444,0.0513 -1.04459,-0.3404 -1.39902,-0.28909 -0.35443,0.0513 0.13505,0.39876 -0.10471,0.50674 -0.33909,0.15272 -1.00249,0.14511 -1.50374,0.21767 -0.50124,0.0725 -0.9276,0.19853 -1.50372,0.21765 -0.91093,0.0302 -1.88881,0.0136 -2.90275,-0.0714 -0.45343,-0.038 -1.04457,-0.3404 -1.39901,-0.28909 -0.0483,0.007 -0.28874,1.39734 -0.31414,1.52024 -0.0472,0.22822 -0.49515,1.32203 -0.31414,1.52024 0.25079,0.27461 1.04351,0.52123 1.2943,0.79585 0.17734,0.19417 -0.40979,0.31916 -0.10471,0.50674 0.30507,0.18759 0.99751,0.12739 1.39901,0.28909 0.5678,0.22872 0.7265,0.56712 1.2943,0.79584 0.40151,0.1617 1.09395,0.10151 1.39901,0.28909 0.30508,0.18758 -0.40977,0.31916 -0.10471,0.50675 0.30507,0.18757 1.09395,0.1015 1.39902,0.28909 0.30507,0.18757 -0.40978,0.31917 -0.10471,0.50674 0.30506,0.18759 0.93268,0.19273 1.39902,0.28909 0.46633,0.0964 0.93267,0.19273 1.39901,0.28909 2.08232,0.43029 1.8013,0.29349 4.09233,1.37402 0.52135,0.2459 0.72651,0.56712 1.2943,0.79584 0.4015,0.16169 0.93268,0.19273 1.39902,0.28909 0.93268,0.19272 1.86535,0.38545 2.79803,0.57818 0.46634,0.0964 1.43392,0.12018 1.39901,0.28909 -0.0349,0.16892 -1.43392,-0.12017 -1.39901,-0.28909 0.0494,-0.23889 0.89177,-0.23272 1.50373,-0.21766 0.43271,0.0107 1.36411,0.458 1.39901,0.28909 0.14392,-0.69646 -0.65344,-1.54406 -0.98016,-2.31608 z"
       style="fill:#fba700;fill-opacity:1;stroke:url(#linearGradient4754);stroke-width:1.80553639000000010;stroke-linecap:butt;stroke-linejoin:miter;stroke-miterlimit:4;stroke-opacity:1;stroke-dasharray:none"
       inkscape:transform-center-y="-18.571429" />
    <path
       style="fill:#fba700;fill-opacity:1;stroke:url(#linearGradient4746);stroke-width:5;stroke-linecap:butt;stroke-linejoin:miter;stroke-miterlimit:4;stroke-opacity:1;stroke-dasharray:none"
       d="m 463.53484,437.93866 c -2.6793,0.32611 -7.36808,2.28282 -8.0379,0.97834 -0.66983,-1.30447 8.0379,-2.32296 8.0379,-0.97834 0,7.96396 -6.91111,2.8162 -10.04738,5.87011 -0.29955,0.2917 0,0.65224 0,0.97837 0,0.32611 -0.47362,0.74775 0,0.97834 0.47364,0.23061 1.41038,-0.14577 2.00948,0 0.84727,0.20626 1.16221,0.77211 2.00948,0.97837 0.5991,0.14577 2.4831,0.23059 2.00948,0 -1.0591,-0.51565 -4.01896,-1.70757 -4.01896,-0.97837 0,5.37615 3.71277,0.82931 6.02843,1.95671 0.47364,0.23061 -0.47364,0.74776 0,0.97837 1.05908,0.51563 2.59803,0.74774 4.01894,0.97835 0.63546,0.10304 1.70992,-0.2917 2.00948,0 0.59911,0.58337 -0.42364,1.33794 0,1.95671 2.09074,3.05375 1.33964,-0.32613 4.01895,0.97834 1.05909,0.51566 0.95038,1.44108 2.00948,1.95671 0.20093,0.0979 5.82746,0.0979 6.02841,0 0.47364,-0.23059 -0.29955,-0.68666 0,-0.97834 0.42364,-0.41252 1.58584,-0.56585 2.00948,-0.97837 0.39837,-0.38789 -0.41081,-2.73504 0,-2.93505 0.47364,-0.23061 1.53584,0.23061 2.00947,0 0.47364,-0.23061 -0.29954,-0.68667 0,-0.97835 0.42363,-0.41251 1.33966,-0.65224 2.00949,-0.97837 0.66982,-0.3261 1.22129,-0.72251 2.00947,-0.97834 1.24622,-0.4045 2.59803,-0.74776 4.01894,-0.97837 0.63545,-0.10304 1.53583,0.23061 2.00948,0 0.0646,-0.0314 0,-2.69777 0,-2.93505 0,-0.44061 0.30577,-2.63731 0,-2.93506 -0.42364,-0.41252 -1.58584,-0.56585 -2.00948,-0.97837 -0.29955,-0.29168 0.47364,-0.74775 0,-0.97834 -0.47364,-0.23061 -1.41036,0.14577 -2.00947,0 -0.84727,-0.20626 -1.1622,-0.77211 -2.00947,-0.97837 -0.59912,-0.14577 -1.53585,0.23061 -2.00947,0 -0.47365,-0.23059 0.47362,-0.74773 0,-0.97834 -0.47365,-0.23059 -1.53585,0.23061 -2.00949,0 -0.47363,-0.23059 0.47364,-0.74776 0,-0.97835 -0.47363,-0.23061 -1.33965,0 -2.00947,0 -0.66983,0 -1.33965,0 -2.00948,0 -2.99093,0 -2.56488,0.14577 -6.02841,-0.97837 -0.78818,-0.25583 -1.16222,-0.77208 -2.00948,-0.97834 -0.59911,-0.14577 -1.33966,0 -2.00948,0 -1.33965,0 -2.6793,0 -4.01895,0 -0.66982,0 -2.00947,0.32611 -2.00947,0 0,-0.32613 2.00947,-0.32613 2.00947,0 0,0.4612 -1.1622,0.77209 -2.00947,0.97834 -0.59911,0.14578 -2.00947,-0.3261 -2.00947,0 0,1.34464 1.33965,2.60895 2.00947,3.91343 z"
       id="path12176"
       inkscape:connector-curvature="0" />
    <path
       style="fill:#de8002;stroke:url(#linearGradient4738);stroke-width:5;stroke-linecap:butt;stroke-linejoin:miter;stroke-opacity:1;fill-opacity:1;stroke-miterlimit:4;stroke-dasharray:none"
       d="m 435.71429,572.36218 c -1.41513,3.87638 -1.42858,6.41355 -1.42858,10 0,0.47619 -0.33671,1.09186 0,1.42857 0.67344,0.67344 2.00531,-0.42591 2.85715,0 4.73797,4.73798 -1.34687,-0.67343 2.85714,1.42858 0.60234,0.30116 0.7897,1.21561 1.42857,1.42857 0.90351,0.30117 1.95364,-0.30117 2.85714,0 0.63888,0.21296 0.86824,1.05501 1.42858,1.42857 0.88596,0.59064 1.84699,1.09185 2.85714,1.42857 0.806,0.26867 3.34699,0 4.28571,0 0.47619,0 0.95238,0 1.42857,0 0.4762,0 1.09186,0.33672 1.42858,0 0.33671,-0.33672 -0.33672,-1.09185 0,-1.42857 6.82865,-6.82865 0.0668,4.08525 2.85714,-4.28572 1.48634,-4.45903 0.95238,0.47619 2.85714,-1.42857 0.67344,-0.67343 -0.42592,-2.00531 0,-2.85714 0.30117,-0.60234 0.95238,-0.95238 1.42857,-1.42857 0.47619,-0.47619 0.82624,-1.1274 1.42857,-1.42857 0.42592,-0.21296 1.21562,0.42591 1.42858,0 0.42591,-0.85184 -0.30117,-1.95364 0,-2.85715 0.21295,-0.63887 1.1274,-0.82623 1.42857,-1.42857 0.21296,-0.42592 -0.1155,-0.9666 0,-1.42857 0.36522,-1.46088 1.06335,-2.82483 1.42857,-4.28571 0.11549,-0.46198 0,-0.95238 0,-1.42857 0,-0.95239 0,-1.90477 0,-2.85715 0,-1.90476 0,-3.80952 0,-5.71428 0,-1.27675 0.22762,-6.68761 0,-7.14286 -0.30117,-0.60234 -0.95238,-0.95238 -1.42857,-1.42857 -0.47619,-0.47619 -0.7897,-1.21561 -1.42857,-1.42857 -0.90351,-0.30117 -1.95364,0.30117 -2.85715,0 -0.63887,-0.21296 -0.78969,-1.21562 -1.42857,-1.42857 -0.90351,-0.30117 -1.90476,0 -2.85714,0 -2.38095,0 -4.76191,0 -7.14286,0 -0.47619,0 -0.97682,0.15058 -1.42857,0 -1.01015,-0.33672 -1.84699,-1.09186 -2.85714,-1.42858 -0.90007,-0.30002 -7.48084,0 -8.57143,0 -0.95238,0 -1.90476,0 -2.85714,0 -0.47619,0 -1.09186,-0.33671 -1.42858,0 -0.34375,0.34376 0.34376,5.37053 0,5.71429 -0.33671,0.33672 -1.21561,-0.42592 -1.42857,0 -0.30358,0.60716 0,5.94571 0,7.14286 0,0.98295 -0.27727,7.7396 0,8.57143 0.81093,2.43276 5.2381,6.19047 2.85715,7.14285 -2.38096,0.95238 -1.90477,-4.7619 0,0 z"
       id="path12178"
       inkscape:connector-curvature="0" />
    <path
       style="fill:#e07d00;stroke:url(#linearGradient12200);stroke-width:3;stroke-linecap:butt;stroke-linejoin:miter;stroke-opacity:1;stroke-miterlimit:4;stroke-dasharray:none;fill-opacity:1"
       d="m 244.28571,585.21933 c 0.47619,1.90476 1.1058,3.77761 1.42858,5.71428 0.0943,0.56571 -0.1783,5.44685 0,5.71429 0.7471,1.12066 1.90476,1.90476 2.85714,2.85714 0.47619,0.47619 0.82623,1.1274 1.42857,1.42857 0.42592,0.21296 1.00265,-0.21296 1.42857,0 0.60234,0.30117 0.82623,1.1274 1.42857,1.42857 0.37563,0.18782 4.96726,0 5.71429,0 0.47619,0 0.95238,0 1.42857,0 0.47619,0 1.09185,0.33672 1.42857,0 0.33672,-0.33672 -0.42592,-1.21561 0,-1.42857 0.85184,-0.42592 2.06472,0.52829 2.85714,0 4.18151,-2.78767 0.29267,-2.01389 1.42858,-4.28571 0.60233,-1.20468 2.2548,-1.65247 2.85714,-2.85715 0.21296,-0.42591 -0.21296,-1.00265 0,-1.42857 0.30117,-0.60234 1.1274,-0.82623 1.42857,-1.42857 0.21296,-0.42592 0,-0.95238 0,-1.42857 0,-0.47619 0,-0.95238 0,-1.42857 0,-1.90476 0,-3.80953 0,-5.71429 0,-2.05092 0.42433,-5.44554 0,-7.14285 -0.16333,-0.65333 -1.1274,-0.82624 -1.42857,-1.42858 -0.21296,-0.42591 0.33672,-1.09185 0,-1.42857 -0.33672,-0.33672 -1.00266,0.21296 -1.42857,0 -2.18797,-1.09398 -1.11717,-2.54574 -2.85715,-4.28571 -0.67343,-0.67344 -2.0053,0.42592 -2.85714,0 -6.53801,-3.26901 6.06203,0.5921 -4.28571,-2.85714 -0.63787,-0.21263 -6.8516,-0.0728 -7.14286,0 -1.033,0.25825 -1.84699,1.09185 -2.85714,1.42857 -0.45176,0.15058 -1.09186,-0.33672 -1.42857,0 -0.33672,0.33671 0.21295,1.00265 0,1.42857 -0.30117,0.60234 -1.12741,0.82623 -1.42858,1.42857 -0.42591,0.85183 0.67344,2.18371 0,2.85714 -0.33671,0.33672 -1.21561,-0.42592 -1.42857,0 -0.42591,0.85184 0,1.90476 0,2.85715 0,3.79549 0.52056,5.45992 1.42857,10 z"
       id="path12180"
       inkscape:connector-curvature="0" />
    <path
       style="fill:#f28800;stroke:url(#linearGradient4730);stroke-width:3;stroke-linecap:butt;stroke-linejoin:miter;stroke-opacity:1;stroke-miterlimit:4;stroke-dasharray:none;fill-opacity:1"
       d="m 221.42857,478.07647 c 5.53502,-0.73005 -3.1455,5.42593 -1.42857,7.14286 0.33672,0.33671 1.00265,-0.21296 1.42857,0 3.25163,3.25163 -0.29587,0.37756 2.85714,1.42857 1.01016,0.33671 1.84699,1.09185 2.85715,1.42857 0.77315,0.25772 5.22761,0 5.71428,0 0.47619,0 0.95238,0 1.42857,0 0.47619,0 1.09186,0.33672 1.42858,0 0.39088,-0.39089 -0.3875,-4.93931 0,-5.71429 0.30117,-0.60234 1.1274,-0.82623 1.42857,-1.42857 0.21738,-0.43476 0,-3.64235 0,-4.28571 0,-0.47619 0.33671,-1.09186 0,-1.42857 -0.33672,-0.33672 -1.21562,0.42591 -1.42857,0 -0.42592,-0.85184 0.42591,-2.00531 0,-2.85715 -0.21296,-0.42592 -1.09186,0.33672 -1.42858,0 -0.33671,-0.33672 0.33672,-1.09185 0,-1.42857 -0.33671,-0.33672 -1.09185,0.33672 -1.42857,0 -0.33671,-0.33672 0.33672,-1.09185 0,-1.42857 -0.0459,-0.0459 -3.93924,0 -4.28571,0 -0.47619,0 -0.95238,0 -1.42857,0 -0.47619,0 -1.09186,-0.33672 -1.42857,0 -0.33672,0.33672 0.33671,1.09185 0,1.42857 -0.33672,0.33672 -1.09186,-0.33672 -1.42858,0 -0.33671,0.33672 0.17686,0.98644 0,1.42857 -0.7909,1.97728 -1.90476,3.80953 -2.85714,5.71429 z"
       id="path12182"
       inkscape:connector-curvature="0" />
    <path
       style="fill:#df9430;stroke:url(#linearGradient4722);stroke-width:3;stroke-linecap:butt;stroke-linejoin:miter;stroke-opacity:1;stroke-miterlimit:4;stroke-dasharray:none;fill-opacity:1"
       d="m 278.57143,665.21933 c 1.41161,0.4168 -0.79493,8.17396 0,8.57142 0.85183,0.42592 1.90476,0 2.85714,0 0.47619,0 0.95238,0 1.42857,0 0.47619,0 1.09186,0.33672 1.42857,0 0.33672,-0.33671 -0.33671,-1.09185 0,-1.42857 2.95577,-2.95576 -0.11554,4.5168 2.85715,-1.42857 0.42592,-0.85183 -0.42592,-2.00531 0,-2.85714 0.30117,-0.60234 1.1274,-0.82623 1.42857,-1.42857 0.21296,-0.42592 -0.33672,-1.09186 0,-1.42857 0.33672,-0.33672 1.09185,0.33671 1.42857,0 0.33672,-0.33672 -0.33672,-1.09186 0,-1.42858 0.75292,-0.75292 2.10422,-0.67564 2.85714,-1.42857 0.67344,-0.67343 -0.67343,-2.18371 0,-2.85714 0.75293,-0.75292 2.10422,-0.67565 2.85715,-1.42857 0.33671,-0.33672 -0.33672,-1.09186 0,-1.42857 0.33671,-0.33672 1.09185,0.33671 1.42857,0 0.33671,-0.33672 -0.21296,-1.00266 0,-1.42857 0.30117,-0.60234 1.1274,-0.82624 1.42857,-1.42858 0.25831,-0.51662 0,-6.14922 0,-7.14285 0,-0.73338 0.23567,-5.36078 0,-5.71429 -0.74711,-1.12066 -2.11004,-1.73648 -2.85714,-2.85714 -0.26415,-0.39622 0.11549,-0.9666 0,-1.42857 -3.60844,-14.43373 0.51584,1.03169 -2.85715,-5.71429 -1.26444,-2.52888 2.12491,-0.48815 -1.42857,-2.85714 -0.88596,-0.59064 -1.84699,-1.09186 -2.85714,-1.42857 -0.45176,-0.15059 -0.95238,0 -1.42857,0 -2.42355,0 -5.17993,-0.53436 -7.14286,1.42857 -0.33672,0.33672 0.33672,1.09185 0,1.42857 -2.95576,2.95576 0.11554,-4.5168 -2.85714,1.42857 -0.21296,0.42592 0.33671,1.09185 0,1.42857 -0.33672,0.33672 -1.09186,-0.33672 -1.42857,0 -0.44236,0.44236 0.44235,6.70051 0,7.14286 -0.33672,0.33672 -1.09186,-0.33672 -1.42858,0 -0.33671,0.33672 0,0.95238 0,1.42857 0,0.47619 -0.21295,1.00265 0,1.42857 0.60234,1.20468 2.25481,1.65247 2.85715,2.85715 0.21296,0.42591 -0.21296,1.00265 0,1.42857 0.60234,1.20467 2.2548,1.65246 2.85714,2.85714 0.25831,0.51662 0,6.14923 0,7.14286 0,0.47619 0.33672,1.09185 0,1.42857 -0.33672,0.33672 -1.33518,-0.46695 -1.42857,0 -0.46694,2.33471 0,4.7619 0,7.14286 z"
       id="path12184"
       inkscape:connector-curvature="0" />
    <path
       style="fill:#db7800;stroke:url(#linearGradient4714);stroke-width:1px;stroke-linecap:butt;stroke-linejoin:miter;stroke-opacity:1;fill-opacity:1"
       d="m 292.85714,509.50504 c 7.41035,-3.33193 -3.60033,6.05698 -1.42857,7.14286 1.14286,0.57143 3.14286,-0.57143 4.28572,0 0.60233,0.30117 0.82623,1.1274 1.42857,1.42857 0.43476,0.21738 3.64234,0 4.28571,0 0.47619,0 1.09186,0.33672 1.42857,0 0.33672,-0.33672 -0.21296,-1.00266 0,-1.42857 0.30117,-0.60234 1.12741,-0.82624 1.42857,-1.42857 0.21739,-0.43477 0,-3.64235 0,-4.28572 0,-0.52462 0.0575,-5.6568 0,-5.71428 -0.33671,-0.33672 -1.42857,-0.4762 -1.42857,0 0,0.67343 2.10201,1.42857 1.42857,1.42857 -1.06479,0 -2.10422,-0.67565 -2.85714,-1.42857 -0.33672,-0.33672 0.33672,-1.09186 0,-1.42858 -0.33672,-0.33671 -0.95238,0 -1.42857,0 -0.47619,0 -1.05673,-0.29747 -1.42857,0 -2.10346,1.68277 -3.80953,3.80953 -5.71429,5.71429 z"
       id="path12186"
       inkscape:connector-curvature="0" />
    <path
       style="fill:#f29305;stroke:url(#linearGradient4706);stroke-width:1px;stroke-linecap:butt;stroke-linejoin:miter;stroke-opacity:1;fill-opacity:1"
       d="m 544.28571,560.93361 c -0.47619,1.90476 0.4762,6.19048 -1.42857,5.71429 -1.90476,-0.47619 -0.47619,-6.19048 1.42857,-5.71429 2.69374,0.67344 2.55116,4.97466 4.28572,7.14286 0.29747,0.37184 0.95238,0 1.42857,0 3.75742,0 -0.56371,-1.14672 2.85714,-2.85714 1.97051,-0.98526 1.27782,1.73007 2.85715,-1.42858 0.2832,-0.56641 -0.29206,-3.99366 0,-4.28571 0.33671,-0.33672 1.09185,0.33672 1.42857,0 0.33671,-0.33672 0,-0.95238 0,-1.42857 0,-0.54439 0.13866,-7.0042 0,-7.14286 -0.046,-0.0459 -3.93925,0 -4.28572,0 -2.38095,0 -4.7619,0 -7.14285,0 -0.47619,0 -1.00266,-0.21296 -1.42858,0 -0.60233,0.30117 -0.95238,0.95238 -1.42857,1.42857 -0.47619,0.47619 -1.53928,0.7643 -1.42857,1.42857 0.42158,2.52948 1.90476,4.76191 2.85714,7.14286 z"
       id="path12188"
       inkscape:connector-curvature="0" />
    <path
       style="fill:#f2940e;stroke:url(#linearGradient4698);stroke-width:1px;stroke-linecap:butt;stroke-linejoin:miter;stroke-opacity:1;fill-opacity:1"
       d="m 548.57143,480.93361 c 0,2.69977 -0.85184,6.29102 1.42857,8.57143 0.33672,0.33672 1.00265,-0.21296 1.42857,0 0.60234,0.30117 0.7897,1.21561 1.42857,1.42857 0.76801,0.256 4.50479,0 5.71429,0 0.74703,0 5.33865,0.18782 5.71428,0 0.60234,-0.30117 0.7897,-1.21561 1.42858,-1.42857 0.9035,-0.30117 2.0053,0.42592 2.85714,0 0.85183,-0.42592 -0.42592,-2.00531 0,-2.85714 0.30117,-0.60234 1.1274,-0.82624 1.42857,-1.42857 0.42165,-0.8433 -0.41183,-7.74778 0,-8.57143 0.21296,-0.42592 1.09185,0.33671 1.42857,0 0.33672,-0.33672 0,-0.95238 0,-1.42857 0,-0.64337 0.21738,-3.85096 0,-4.28572 -0.30117,-0.60234 -1.21561,-0.78969 -1.42857,-1.42857 -0.2178,-0.65341 0.31784,-5.0786 0,-5.71429 -0.30117,-0.60233 -0.95238,-0.95238 -1.42857,-1.42857 -0.47619,-0.47619 -0.82623,-1.1274 -1.42857,-1.42857 -0.42592,-0.21296 -1.00266,0.21296 -1.42857,0 -4.35652,-2.17826 2.61277,-1.13252 -4.28572,-2.85714 -0.92394,-0.23099 -1.92325,0.18678 -2.85714,0 -1.47661,-0.29532 -2.80911,-1.13325 -4.28572,-1.42857 -0.93388,-0.18678 -1.90476,0 -2.85714,0 -0.47619,0 -1.21561,-0.42592 -1.42857,0 -0.42592,0.85183 0,1.90476 0,2.85714 0,2.38095 0,4.7619 0,7.14286 0,0.47619 0,0.95238 0,1.42857 0,0.47619 0.21296,1.00265 0,1.42857 -0.30117,0.60234 -1.1274,0.82623 -1.42857,1.42857 -0.21296,0.42592 0,0.95238 0,1.42857 0,0.47619 0,0.95238 0,1.42857 0,2.38096 0,4.76191 0,7.14286 z"
       id="path12190"
       inkscape:connector-curvature="0" />
    <path
       style="fill:#ea8800;stroke:url(#linearGradient4690);stroke-width:3;stroke-linecap:butt;stroke-linejoin:miter;stroke-opacity:1;stroke-miterlimit:4;stroke-dasharray:none;fill-opacity:1"
       d="m 522.85714,488.07647 c -1.90476,0.95238 -4.7619,4.7619 -5.71428,2.85714 -0.95238,-1.90476 7.22013,-4.36299 5.71428,-2.85714 -1.96338,1.96338 -4.97466,2.55116 -7.14285,4.28571 -0.0148,0.0118 0,3.95916 0,4.28572 0,3.98892 1.58225,2.31645 4.28571,2.85714 12.02811,2.40562 0.0441,0.0221 5.71429,2.85714 0.42591,0.21296 1.42857,-0.47619 1.42857,0 0,0.47619 -1.90476,0 -1.42857,0 0.95238,0 2.0053,0.42592 2.85714,0 0.42592,-0.21296 0,-0.95238 0,-1.42857 0,-2.38095 0,-4.7619 0,-7.14286 0,-0.47619 0,-0.95238 0,-1.42857 0,-0.47619 -0.47619,-1.42857 0,-1.42857 0.47619,0 0.42592,1.64153 0,1.42857 -2.12959,-1.06479 -3.80952,-2.85714 -5.71429,-4.28571 z"
       id="path12192"
       inkscape:connector-curvature="0" />
    <path
       style="opacity:0.15086209000000000;fill:#000000;stroke:url(#linearGradient4682);stroke-width:1px;stroke-linecap:butt;stroke-linejoin:miter;stroke-opacity:1"
       d="m 347.14285,568.07648 27.14286,-18.57143 c -50.4666,-15.67021 -38.40895,26.1458 -27.14286,18.57143 z"
       id="path12202"
       inkscape:connector-curvature="0"
       sodipodi:nodetypes="ccc" />
  </g>
</svg>
