<?xml version="1.0" encoding="UTF-8" standalone="no"?>
<!-- Created with Inkscape (http://www.inkscape.org/) -->

<svg
   xmlns:dc="http://purl.org/dc/elements/1.1/"
   xmlns:cc="http://creativecommons.org/ns#"
   xmlns:rdf="http://www.w3.org/1999/02/22-rdf-syntax-ns#"
   xmlns:svg="http://www.w3.org/2000/svg"
   xmlns="http://www.w3.org/2000/svg"
   xmlns:xlink="http://www.w3.org/1999/xlink"
   xmlns:sodipodi="http://sodipodi.sourceforge.net/DTD/sodipodi-0.dtd"
   xmlns:inkscape="http://www.inkscape.org/namespaces/inkscape"
   width="744.09448819"
   height="1052.3622047"
   id="svg4083"
   version="1.1"
   inkscape:version="0.48.2 r9819"
   sodipodi:docname="chickendrumstick.svg">
  <defs
     id="defs4085">
    <linearGradient
       id="linearGradient4763">
      <stop
         style="stop-color:#ffffff;stop-opacity:1;"
         offset="0"
         id="stop4765" />
      <stop
         style="stop-color:#8b7a7a;stop-opacity:1;"
         offset="1"
         id="stop4767" />
    </linearGradient>
    <linearGradient
       inkscape:collect="always"
       xlink:href="#linearGradient4763"
       id="linearGradient4769"
       x1="83.44854"
       y1="461.92172"
       x2="262.92859"
       y2="544.77887"
       gradientUnits="userSpaceOnUse" />
  </defs>
  <sodipodi:namedview
     id="base"
     pagecolor="#ffffff"
     bordercolor="#666666"
     borderopacity="1.0"
     inkscape:pageopacity="0.0"
     inkscape:pageshadow="2"
     inkscape:zoom="0.7"
     inkscape:cx="163.24672"
     inkscape:cy="499.97108"
     inkscape:document-units="px"
     inkscape:current-layer="layer1"
     showgrid="false"
     inkscape:window-width="1672"
     inkscape:window-height="945"
     inkscape:window-x="20"
     inkscape:window-y="20"
     inkscape:window-maximized="0" />
  <metadata
     id="metadata4088">
    <rdf:RDF>
      <cc:Work
         rdf:about="">
        <dc:format>image/svg+xml</dc:format>
        <dc:type
           rdf:resource="http://purl.org/dc/dcmitype/StillImage" />
        <dc:title></dc:title>
      </cc:Work>
    </rdf:RDF>
  </metadata>
  <g
     inkscape:label="Layer 1"
     inkscape:groupmode="layer"
     id="layer1">
    <path
       style="fill:url(#linearGradient4769);stroke:#eccc84;stroke-width:3;stroke-linecap:butt;stroke-linejoin:miter;stroke-miterlimit:4;stroke-opacity:1;stroke-dasharray:none;fill-opacity:1.0"
       d="M 365.71429,580.93361 C 297.60494,510.72624 159.99857,419.4617 79.777867,338.37737 64.222672,322.65471 49.85065,317.07851 46.342053,316.13449 17.381532,308.34243 22.804114,282.49707 44.285715,282.36218 29.329901,211.92394 147.49666,248.18203 98.571426,295.21933 200.87802,393.77217 277.06993,485.79633 365.71429,580.93361 z"
       id="path4249"
       inkscape:connector-curvature="0"
       sodipodi:nodetypes="cssccc" />
    <path
       style="fill:#c87137;stroke:#a05a2c;stroke-width:5;stroke-linecap:butt;stroke-linejoin:miter;stroke-miterlimit:4;stroke-opacity:1;stroke-dasharray:none"
       d="m 165.71429,358.07647 c 16.13624,10.53317 53.34071,33.83629 59.87122,33.51533 13.3726,-0.65724 11.59255,4.91362 17.57715,7.06231 4.24207,1.52306 11.34217,-5.47055 15.55837,-3.816 9.48715,3.72302 14.88413,15.74398 24.63149,18.80241 10.96336,3.43998 23.35165,-3.0165 34.0797,0.75589 11.37703,4.0006 18.39398,16.45772 29.42796,20.22278 9.54152,3.2558 13.29495,13.40537 22.6011,16.11192 10.45598,3.04096 20.708,-1.28798 30.63163,1.27075 19.78868,5.10237 32.92523,17.20939 50.03814,18.67475 34.30456,2.93748 47.94862,25.07694 56.90554,51.76819 3.74547,11.16134 22.63129,15.18751 25.85198,26.44042 4.49245,15.69633 21.49926,39.07149 15.63346,59.17684 -1.70372,5.83961 27.49347,20.44479 24.70413,26.68354 -4.12537,9.22695 -6.62224,28.87367 -13.30383,38.97222 -6.66329,10.07087 5.3018,31.99034 -4.20804,42.93008 -86.24809,27.22434 19.43027,33.04381 -191.23532,16.51373 -8.52032,-0.66856 -6.25882,-2.53176 -24.19539,-8.63553 -74.23454,-25.26181 -132.40271,-90.09268 -124.56929,-179.30677 -11.18714,-26.94076 -18.44396,-57.9252 -12.09828,-75.66092 4.25832,-11.90168 -22.97552,-27.09099 -23.82061,-39.85059 -0.87142,-13.15715 41.05116,25.17741 38.35703,13.84296 -1.65296,-6.95412 -49.96665,-35.78182 -24.66996,-46.85489 7.07845,-3.09844 -26.86572,-33.58671 -27.76818,-38.61942 z"
       id="path4759"
       inkscape:connector-curvature="0"
       sodipodi:nodetypes="csssssssssssssscsscssssc" />
    <path
       style="opacity:0.12068966;fill:#000000;stroke:#000000;stroke-width:1px;stroke-linecap:butt;stroke-linejoin:miter;stroke-opacity:1"
       d="m 220,448.07647 c 91.91008,80.1466 129.53691,248.78855 351.42857,191.42857 -6.70893,18.17965 -11.10475,24.02088 -12.66187,40.12837 -0.94993,9.82653 -2.54327,42.34434 -2.54327,42.34434 -10.98066,-14.60938 -42.46562,18.12566 -59.11777,18.27724 -172.88498,1.57373 -172.24677,-4.12069 -267.25704,-103.14856 -8.62278,-8.98741 -9.81626,-98.65715 -18.40456,-109.02982 -15.51499,-18.73849 -13.29341,-46.87811 -13.00296,-69.13561 0.23027,-17.64623 -23.69652,-28.58835 -10.60605,-35.28503 8.71041,-4.45597 29.621,34.70964 32.16495,24.4205 z"
       id="path4775"
       inkscape:connector-curvature="0"
       sodipodi:nodetypes="ccsssssssc" />
    <path
       style="opacity:0.10775865;fill:#000000;stroke:#000000;stroke-width:1px;stroke-linecap:butt;stroke-linejoin:miter;stroke-opacity:1"
       d="m 208.57143,533.79076 c -3.33943,126.55135 93.62906,198.80218 170.00885,204.20677 31.62382,2.23768 78.29779,4.99176 98.33658,0.58562 12.80741,-2.8161 16.93446,7.22978 26.29854,6.4017 36.21758,-3.20277 5.87001,-31.19361 63.92746,-26.90839 C 97.843711,644.87497 304.69067,600.30969 208.57143,533.79076 z"
       id="path4777"
       inkscape:connector-curvature="0"
       sodipodi:nodetypes="cssscc" />
  </g>
</svg>
