<?xml version="1.0" encoding="UTF-8" standalone="no"?>
<!-- Created with Inkscape (http://www.inkscape.org/) -->

<svg
   xmlns:dc="http://purl.org/dc/elements/1.1/"
   xmlns:cc="http://creativecommons.org/ns#"
   xmlns:rdf="http://www.w3.org/1999/02/22-rdf-syntax-ns#"
   xmlns:svg="http://www.w3.org/2000/svg"
   xmlns="http://www.w3.org/2000/svg"
   xmlns:xlink="http://www.w3.org/1999/xlink"
   xmlns:sodipodi="http://sodipodi.sourceforge.net/DTD/sodipodi-0.dtd"
   xmlns:inkscape="http://www.inkscape.org/namespaces/inkscape"
   width="744.09448819"
   height="1052.3622047"
   id="svg6289"
   version="1.1"
   inkscape:version="0.48.2 r9819"
   sodipodi:docname="cookie2.svg">
  <defs
     id="defs6291">
    <linearGradient
       id="linearGradient7089">
      <stop
         style="stop-color:#deaa87;stop-opacity:1;"
         offset="0"
         id="stop7091" />
      <stop
         id="stop5940"
         offset="0.5"
         style="stop-color:#f7c5a3;stop-opacity:0.99215686;" />
      <stop
         style="stop-color:#833c0d;stop-opacity:0.98305082;"
         offset="1"
         id="stop7093" />
    </linearGradient>
    <radialGradient
       inkscape:collect="always"
       xlink:href="#linearGradient7089"
       id="radialGradient7179"
       cx="366.20212"
       cy="548.34546"
       fx="366.20212"
       fy="548.34546"
       r="229.21005"
       gradientTransform="matrix(1,0,0,1.0792192,0,-43.439471)"
       gradientUnits="userSpaceOnUse" />
  </defs>
  <sodipodi:namedview
     id="base"
     pagecolor="#ffffff"
     bordercolor="#666666"
     borderopacity="1.0"
     inkscape:pageopacity="0.0"
     inkscape:pageshadow="2"
     inkscape:zoom="0.7"
     inkscape:cx="-124.12564"
     inkscape:cy="522.39332"
     inkscape:document-units="px"
     inkscape:current-layer="layer1"
     showgrid="false"
     inkscape:window-width="1478"
     inkscape:window-height="919"
     inkscape:window-x="8"
     inkscape:window-y="4"
     inkscape:window-maximized="0" />
  <metadata
     id="metadata6294">
    <rdf:RDF>
      <cc:Work
         rdf:about="">
        <dc:format>image/svg+xml</dc:format>
        <dc:type
           rdf:resource="http://purl.org/dc/dcmitype/StillImage" />
        <dc:title></dc:title>
      </cc:Work>
    </rdf:RDF>
  </metadata>
  <g
     inkscape:label="Layer 1"
     inkscape:groupmode="layer"
     id="layer1">
    <path
       style="fill:url(#radialGradient7179);fill-opacity:1;stroke:#a05a2c;stroke-width:5.06106472000000007;stroke-linecap:butt;stroke-linejoin:miter;stroke-miterlimit:4;stroke-opacity:1;stroke-dasharray:none"
       d="m 591.77014,588.01063 c 2.57569,53.62895 11.65118,101.908 -129.14115,178.98426 -21.16998,19.64114 -35.97511,10.37515 -52.19746,7.54572 -87.49719,50.70974 -136.02464,-11.75333 -185.53459,-71.36309 -202.705713,-189.09786 20.47144,-357.84543 10.71323,-337.2017 80.22659,-110.20207 251.51423,-46.98458 274.12891,-17.87645 85.33349,50.18912 29.3552,88.08942 28.74136,155.35908 -0.1669,18.29 50.88788,66.77267 53.2897,84.55218 z"
       id="path6503"
       inkscape:connector-curvature="0"
       sodipodi:nodetypes="ccccccsc" />
    <path
       sodipodi:type="arc"
       style="opacity:0.98275864999999996;fill:#deaa87;fill-opacity:1;fill-rule:nonzero;stroke:#502d16;stroke-width:5;stroke-miterlimit:4;stroke-opacity:1;stroke-dasharray:none"
       id="path7013"
       sodipodi:cx="234.28572"
       sodipodi:cy="592.36218"
       sodipodi:rx="15.714286"
       sodipodi:ry="17.142857"
       d="m 250.00001,592.36218 a 15.714286,17.142857 0 1 1 -31.42858,0 15.714286,17.142857 0 1 1 31.42858,0 z" />
    <path
       sodipodi:type="arc"
       style="opacity:0.98275865;fill:#784421;fill-opacity:1;fill-rule:nonzero;stroke:#502d16;stroke-width:5;stroke-miterlimit:4;stroke-opacity:1;stroke-dasharray:none"
       id="path7015"
       sodipodi:cx="233.57143"
       sodipodi:cy="529.50507"
       sodipodi:rx="25"
       sodipodi:ry="15.714286"
       d="m 258.57143,529.50507 a 25,15.714286 0 1 1 -50,0 25,15.714286 0 1 1 50,0 z"
       transform="matrix(0.87603208,-0.48225284,0.48225284,0.87603208,-254.97138,169.7107)" />
    <path
       sodipodi:type="arc"
       style="opacity:0.98275864999999996;fill:#552200;fill-opacity:1;fill-rule:nonzero;stroke:#502d16;stroke-width:5;stroke-miterlimit:4;stroke-opacity:1;stroke-dasharray:none"
       id="path7017"
       sodipodi:cx="273.57144"
       sodipodi:cy="480.21933"
       sodipodi:rx="17.857143"
       sodipodi:ry="13.571428"
       d="m 291.42859,480.21933 a 17.857143,13.571428 0 1 1 -35.71429,0 17.857143,13.571428 0 1 1 35.71429,0 z"
       transform="matrix(0.6775431,-0.73548307,0.73548307,0.6775431,-267.83534,348.91434)" />
    <path
       sodipodi:type="arc"
       style="opacity:0.98275865;fill:#784421;fill-opacity:1;fill-rule:nonzero;stroke:#502d16;stroke-width:5;stroke-miterlimit:4;stroke-opacity:1;stroke-dasharray:none"
       id="path7019"
       sodipodi:cx="337.85715"
       sodipodi:cy="554.50507"
       sodipodi:rx="12.142858"
       sodipodi:ry="25"
       d="m 350,554.50507 a 12.142858,25 0 1 1 -24.28571,0 12.142858,25 0 1 1 24.28571,0 z"
       transform="matrix(0.81796046,-0.57527444,0.57527444,0.81796046,-257.48923,295.30243)" />
    <path
       sodipodi:type="arc"
       style="opacity:0.98275865;fill:#784421;fill-opacity:1;fill-rule:nonzero;stroke:#502d16;stroke-width:5;stroke-miterlimit:4;stroke-opacity:1;stroke-dasharray:none"
       id="path7021"
       sodipodi:cx="392.14285"
       sodipodi:cy="663.79077"
       sodipodi:rx="13.571428"
       sodipodi:ry="12.857142"
       d="m 405.71428,663.79077 a 13.571428,12.857142 0 1 1 -27.14286,0 13.571428,12.857142 0 1 1 27.14286,0 z"
       transform="matrix(1.2048575,0,0,1.4384607,-76.76198,-297.47475)" />
    <path
       sodipodi:type="arc"
       style="opacity:0.98275865;fill:#784421;fill-opacity:1;fill-rule:nonzero;stroke:#502d16;stroke-width:5;stroke-miterlimit:4;stroke-opacity:1;stroke-dasharray:none"
       id="path7023"
       sodipodi:cx="495"
       sodipodi:cy="620.93359"
       sodipodi:rx="23.571428"
       sodipodi:ry="24.285715"
       d="m 518.57143,620.93359 a 23.571428,24.285715 0 1 1 -47.14286,0 23.571428,24.285715 0 1 1 47.14286,0 z"
       transform="translate(-7.1428571,-30)" />
    <path
       sodipodi:type="arc"
       style="opacity:0.98275865;fill:#784421;fill-opacity:1;fill-rule:nonzero;stroke:#502d16;stroke-width:5;stroke-miterlimit:4;stroke-opacity:1;stroke-dasharray:none"
       id="path7025"
       sodipodi:cx="494.28571"
       sodipodi:cy="506.64789"
       sodipodi:rx="17.142857"
       sodipodi:ry="14.285714"
       d="m 511.42856,506.64789 a 17.142857,14.285714 0 1 1 -34.28571,0 17.142857,14.285714 0 1 1 34.28571,0 z"
       transform="matrix(0.84149228,0.54026914,-0.54026914,0.84149228,352.07432,-186.73971)" />
    <path
       sodipodi:type="arc"
       style="opacity:0.98275865;fill:#784421;fill-opacity:1;fill-rule:nonzero;stroke:#502d16;stroke-width:5;stroke-miterlimit:4;stroke-opacity:1;stroke-dasharray:none"
       id="path7027"
       sodipodi:cx="403.57144"
       sodipodi:cy="544.50507"
       sodipodi:rx="13.571428"
       sodipodi:ry="17.857143"
       d="m 417.14287,544.50507 a 13.571428,17.857143 0 1 1 -27.14286,0 13.571428,17.857143 0 1 1 27.14286,0 z" />
    <path
       sodipodi:type="arc"
       style="opacity:0.98275865;fill:#784421;fill-opacity:1;fill-rule:nonzero;stroke:#502d16;stroke-width:5;stroke-miterlimit:4;stroke-opacity:1;stroke-dasharray:none"
       id="path7029"
       sodipodi:cx="370"
       sodipodi:cy="398.07648"
       sodipodi:rx="18.571428"
       sodipodi:ry="18.571428"
       d="m 388.57143,398.07648 a 18.571428,18.571428 0 1 1 -37.14286,0 18.571428,18.571428 0 1 1 37.14286,0 z"
       transform="translate(-5.7142852,84.285714)" />
    <path
       sodipodi:type="arc"
       style="opacity:0.98275865;fill:#784421;fill-opacity:1;fill-rule:nonzero;stroke:#502d16;stroke-width:5;stroke-miterlimit:4;stroke-opacity:1;stroke-dasharray:none"
       id="path7031"
       sodipodi:cx="242.14285"
       sodipodi:cy="385.93362"
       sodipodi:rx="22.142857"
       sodipodi:ry="16.428572"
       d="m 264.28571,385.93362 a 22.142857,16.428572 0 1 1 -44.28571,0 22.142857,16.428572 0 1 1 44.28571,0 z"
       transform="matrix(0.93142949,0.36392183,-0.36392183,0.93142949,157.05353,-61.657406)" />
    <path
       sodipodi:type="arc"
       style="opacity:0.98275865;fill:#784421;fill-opacity:1;fill-rule:nonzero;stroke:#502d16;stroke-width:5;stroke-miterlimit:4;stroke-opacity:1;stroke-dasharray:none"
       id="path7035"
       sodipodi:cx="414.28571"
       sodipodi:cy="718.79077"
       sodipodi:rx="24.285715"
       sodipodi:ry="6.4285712"
       d="m 438.57142,718.79077 a 24.285715,6.4285712 0 1 1 -48.57143,0 24.285715,6.4285712 0 1 1 48.57143,0 z" />
    <path
       sodipodi:type="arc"
       style="opacity:0.98275865;fill:#784421;fill-opacity:1;fill-rule:nonzero;stroke:#502d16;stroke-width:5;stroke-miterlimit:4;stroke-opacity:1;stroke-dasharray:none"
       id="path7037"
       sodipodi:cx="273.57144"
       sodipodi:cy="640.93359"
       sodipodi:rx="17.857143"
       sodipodi:ry="15.714286"
       d="m 291.42859,640.93359 a 17.857143,15.714286 0 1 1 -35.71429,0 17.857143,15.714286 0 1 1 35.71429,0 z"
       transform="matrix(0.73489598,-0.67817985,0.67817985,0.73489598,-332.14336,349.73043)" />
    <path
       sodipodi:type="arc"
       style="opacity:0.98275865;fill:#784421;fill-opacity:1;fill-rule:nonzero;stroke:#502d16;stroke-width:5;stroke-miterlimit:4;stroke-opacity:1;stroke-dasharray:none"
       id="path7039"
       sodipodi:cx="464.28571"
       sodipodi:cy="428.79074"
       sodipodi:rx="11.428572"
       sodipodi:ry="17.857143"
       d="m 475.71428,428.79074 a 11.428572,17.857143 0 1 1 -22.85715,0 11.428572,17.857143 0 1 1 22.85715,0 z"
       transform="matrix(0.82067678,0.5713927,-0.5713927,0.82067678,379.69367,-208.39732)" />
    <path
       sodipodi:type="arc"
       style="opacity:0.98275865;fill:#784421;fill-opacity:1;fill-rule:nonzero;stroke:#502d16;stroke-width:5;stroke-miterlimit:4;stroke-opacity:1;stroke-dasharray:none"
       id="path7041"
       sodipodi:cx="355.71429"
       sodipodi:cy="470.93362"
       sodipodi:rx="21.428572"
       sodipodi:ry="15.714286"
       d="m 377.14287,470.93362 a 21.428572,15.714286 0 1 1 -42.85715,0 21.428572,15.714286 0 1 1 42.85715,0 z"
       transform="matrix(-0.36070764,0.93267894,-0.93267894,-0.36070764,906.11017,253.32146)" />
    <path
       sodipodi:type="arc"
       style="opacity:0.98275865;fill:#784421;fill-opacity:1;fill-rule:nonzero;stroke:#502d16;stroke-width:5;stroke-miterlimit:4;stroke-opacity:1;stroke-dasharray:none"
       id="path7043"
       sodipodi:cx="332.14285"
       sodipodi:cy="343.07648"
       sodipodi:rx="15"
       sodipodi:ry="12.142858"
       d="m 347.14285,343.07648 a 15,12.142858 0 1 1 -30,0 15,12.142858 0 1 1 30,0 z"
       transform="translate(62.857143,10)" />
    <path
       sodipodi:type="arc"
       style="opacity:0.98275865;fill:#784421;fill-opacity:1;fill-rule:nonzero;stroke:#502d16;stroke-width:5;stroke-miterlimit:4;stroke-opacity:1;stroke-dasharray:none"
       id="path7045"
       sodipodi:cx="451.42856"
       sodipodi:cy="370.21933"
       sodipodi:rx="20"
       sodipodi:ry="13.571428"
       d="m 471.42856,370.21933 a 20,13.571428 0 1 1 -40,0 20,13.571428 0 1 1 40,0 z"
       transform="matrix(-0.09115867,-0.99583638,0.99583638,-0.09115867,112.47374,922.08844)" />
    <path
       sodipodi:type="arc"
       style="opacity:0.98275865;fill:#784421;fill-opacity:1;fill-rule:nonzero;stroke:#502d16;stroke-width:5;stroke-miterlimit:4;stroke-opacity:1;stroke-dasharray:none"
       id="path7051"
       sodipodi:cx="521.42859"
       sodipodi:cy="690.93359"
       sodipodi:rx="17.142857"
       sodipodi:ry="21.428572"
       d="m 538.57145,690.93359 a 17.142857,21.428572 0 1 1 -34.28572,0 17.142857,21.428572 0 1 1 34.28572,0 z"
       transform="matrix(0.72266372,-0.69119979,0.69119979,0.72266372,-370.10495,552.03229)" />
    <path
       style="opacity:0.98275865;fill:#552200;fill-opacity:1;fill-rule:nonzero;stroke:#502d16;stroke-width:7.14285707;stroke-miterlimit:4;stroke-opacity:1;stroke-dasharray:none"
       d="m 387.57277,667.28783 c -10.6015,-12.59917 4.13497,-32.18688 15.59414,-20.72771 4.06167,4.06167 5.66612,9.39013 4.37565,14.53177 -2.60996,10.3989 -13.57149,13.79988 -19.96979,6.19594 l 0,0 z"
       id="path7053"
       inkscape:connector-curvature="0" />
    <path
       style="opacity:0.98275865;fill:#552200;fill-opacity:1;fill-rule:nonzero;stroke:#502d16;stroke-width:7.14285707;stroke-miterlimit:4;stroke-opacity:1;stroke-dasharray:none"
       d="m 477.93354,609.5059 c -9.36528,-5.08672 -12.81018,-20.42916 -6.77841,-30.18877 10.28933,-16.64848 37.01203,-8.54296 37.00272,11.22365 -0.007,15.25325 -17.19817,26.04024 -30.22431,18.96512 z"
       id="path7055"
       inkscape:connector-curvature="0" />
    <path
       style="opacity:0.98275865;fill:#552200;fill-opacity:1;fill-rule:nonzero;stroke:#502d16;stroke-width:7.14285707;stroke-miterlimit:4;stroke-opacity:1;stroke-dasharray:none"
       d="m 343.16007,570.86972 c -6.57981,-3.4151 -11.81051,-9.03249 -15.72463,-16.8871 -3.87399,-7.77409 -4.68414,-16.2439 -1.66458,-17.40261 5.58852,-2.14452 17.75238,8.35792 23.28335,20.10314 3.75095,7.96528 4.22936,12.16221 1.67729,14.71428 -2.16989,2.1699 -2.40565,2.15346 -7.57143,-0.52771 l 0,0 z"
       id="path7057"
       inkscape:connector-curvature="0" />
    <path
       style="opacity:0.98275865;fill:#552200;fill-opacity:1;fill-rule:nonzero;stroke:#502d16;stroke-width:7.14285707;stroke-miterlimit:4;stroke-opacity:1;stroke-dasharray:none"
       d="m 353.98425,493.00183 c -9.50181,-9.5018 -3.12297,-25.6044 10.14285,-25.6044 7.95775,0 15.46154,7.2798 15.46154,15 0,4.10645 -1.08366,6.36937 -4.85714,10.14286 -6.65385,6.65385 -14.38301,6.82579 -20.74725,0.46154 l 0,0 z"
       id="path7059"
       inkscape:connector-curvature="0" />
    <path
       style="opacity:0.98275865;fill:#552200;fill-opacity:1;fill-rule:nonzero;stroke:#502d16;stroke-width:7.14285707;stroke-miterlimit:4;stroke-opacity:1;stroke-dasharray:none"
       d="m 348.48716,765.04243 c -2.68604,-1.12466 -6.04591,-8.3538 -6.01,-12.9312 0.04,-5.09394 4.39898,-14.64524 8.24422,-18.06435 1.63065,-1.44995 5.00653,-2.73567 7.50195,-2.85715 12.47407,-0.60725 14.02376,21.86733 2.12213,30.77651 -3.69995,2.76967 -9.18938,4.19369 -11.8583,3.07619 z"
       id="path7061"
       inkscape:connector-curvature="0" />
    <path
       style="opacity:0.98275865;fill:#552200;fill-opacity:1;fill-rule:nonzero;stroke:#502d16;stroke-width:7.14285707;stroke-miterlimit:4;stroke-opacity:1;stroke-dasharray:none"
       d="m 214.32468,458.74277 c -5.54948,-1.68171 -12.98727,-8.85787 -14.20355,-13.70391 -1.42858,-5.69191 1.50763,-10.13909 7.97321,-12.07623 7.54607,-2.26086 15.56324,0.0314 22.57081,6.45333 9.02774,8.27331 5.91843,18.50483 -6.07652,19.99543 -3.14285,0.39056 -7.76163,0.0897 -10.26395,-0.66862 l 0,0 z"
       id="path7063"
       inkscape:connector-curvature="0" />
    <path
       style="opacity:0.98275865;fill:#552200;fill-opacity:1;fill-rule:nonzero;stroke:#502d16;stroke-width:7.14285707;stroke-miterlimit:4;stroke-opacity:1;stroke-dasharray:none"
       d="m 188.47794,533.745 c -5.59873,-3.9215 -3.06127,-13.49386 5.36286,-20.23099 9.18612,-7.34653 23.58643,-9.70656 28.60498,-4.688 3.89581,3.8958 3.59377,7.12586 -1.29774,13.87839 -7.61703,10.51502 -25.02263,16.3971 -32.6701,11.0406 l 0,0 z"
       id="path7065"
       inkscape:connector-curvature="0" />
    <path
       style="opacity:0.98275865;fill:#552200;fill-opacity:1;fill-rule:nonzero;stroke:#502d16;stroke-width:7.14285707;stroke-miterlimit:4;stroke-opacity:1;stroke-dasharray:none"
       d="m 228.03627,604.13772 c -6.62357,-5.08542 -7.53381,-15.83592 -1.82425,-21.54548 10.0711,-10.07111 25.2009,3.03706 18.48826,16.01787 -3.60387,6.96912 -11.41275,9.5594 -16.66401,5.52761 z"
       id="path7067"
       inkscape:connector-curvature="0" />
    <path
       style="opacity:0.98275865;fill:#552200;fill-opacity:1;fill-rule:nonzero;stroke:#502d16;stroke-width:7.14285707;stroke-miterlimit:4;stroke-opacity:1;stroke-dasharray:none"
       d="m 296.35494,647.83752 c -3.70515,-0.9663 -7.11487,-8.45807 -6.05199,-13.29732 2.15302,-9.80263 14.704,-15.75806 21.91408,-10.39821 4.27781,3.18005 5.78359,11.07191 3.07735,16.12855 -3.26316,6.09728 -11.68018,9.46017 -18.93944,7.56698 l 0,0 z"
       id="path7069"
       inkscape:connector-curvature="0" />
    <path
       style="opacity:0.98275865;fill:#552200;fill-opacity:1;fill-rule:nonzero;stroke:#502d16;stroke-width:7.14285707;stroke-miterlimit:4;stroke-opacity:1;stroke-dasharray:none"
       d="m 398.51721,720.74981 c -5.24981,-1.13341 -3.67381,-3.1084 3.31698,-4.15673 7.30985,-1.09618 28.66756,-0.1873 30.13736,1.28251 0.52273,0.52273 0.48308,1.41775 -0.0881,1.98895 -1.197,1.197 -28.55966,1.92299 -33.36623,0.88527 z"
       id="path7071"
       inkscape:connector-curvature="0" />
    <path
       style="opacity:0.98275865;fill:#552200;fill-opacity:1;fill-rule:nonzero;stroke:#502d16;stroke-width:7.14285707;stroke-miterlimit:4;stroke-opacity:1;stroke-dasharray:none"
       d="m 481.7315,705.3808 c -12.00504,-5.33568 -17.31011,-20.08884 -9.8914,-27.50755 3.06371,-3.06371 4.60763,-3.55561 9.21882,-2.93712 7.59547,1.01877 14.08054,6.01429 17.3228,13.34394 3.23008,7.30214 2.40351,12.25447 -2.7177,16.28282 -4.1658,3.27681 -7.90607,3.49639 -13.93252,0.81791 l 0,0 z"
       id="path7073"
       inkscape:connector-curvature="0" />
    <path
       style="opacity:0.98275865;fill:#552200;fill-opacity:1;fill-rule:nonzero;stroke:#502d16;stroke-width:7.14285707;stroke-miterlimit:4;stroke-opacity:1;stroke-dasharray:none"
       d="m 299.73514,725.98803 c -7.67897,-3.34831 -18.50957,-22.47728 -19.3976,-34.26001 -0.5808,-7.70614 1.73385,-9.29916 7.26671,-5.00119 8.68793,6.74888 17.41076,27.04939 15.77727,36.71824 -0.63196,3.74066 -0.73491,3.81246 -3.64638,2.54296 z"
       id="path7075"
       inkscape:connector-curvature="0" />
    <path
       style="opacity:0.98275865;fill:#552200;fill-opacity:1;fill-rule:nonzero;stroke:#502d16;stroke-width:7.14285707;stroke-miterlimit:4;stroke-opacity:1;stroke-dasharray:none"
       d="m 535.61993,657.16437 c 0.63031,-10.19069 8.08201,-22.92021 15.08562,-25.77032 7.27455,-2.96036 8.16418,14.39861 1.32898,25.93188 -8.01749,13.52823 -17.25571,13.43731 -16.4146,-0.16156 z"
       id="path7077"
       inkscape:connector-curvature="0" />
    <path
       style="opacity:0.98275865;fill:#552200;fill-opacity:1;fill-rule:nonzero;stroke:#502d16;stroke-width:7.14285707;stroke-miterlimit:4;stroke-opacity:1;stroke-dasharray:none"
       d="m 489.87163,516.49372 c -2.59436,-1.31017 -5.70025,-4.28348 -6.90197,-6.60735 -6.62653,-12.81429 10.50178,-20.88554 20.10429,-9.47361 4.03601,4.79652 4.93074,12.72104 1.73568,15.3727 -3.45709,2.86913 -10.04097,3.18129 -14.938,0.70826 z"
       id="path7079"
       inkscape:connector-curvature="0" />
    <path
       style="opacity:0.98275865;fill:#552200;fill-opacity:1;fill-rule:nonzero;stroke:#502d16;stroke-width:7.14285707;stroke-miterlimit:4;stroke-opacity:1;stroke-dasharray:none"
       d="m 396.83518,555.06192 c -6.03181,-7.6682 -2.16459,-24.80734 5.59745,-24.80734 4.55467,0 7.19221,1.64046 9.3517,5.81646 7.15887,13.84372 -5.9243,30.46412 -14.94915,18.99088 z"
       id="path7081"
       inkscape:connector-curvature="0" />
    <path
       style="opacity:0.98275865;fill:#552200;fill-opacity:1;fill-rule:nonzero;stroke:#502d16;stroke-width:7.14285707;stroke-miterlimit:4;stroke-opacity:1;stroke-dasharray:none"
       d="m 435.29809,451.8981 c -7.11445,-7.11446 -7.47066,-21.00598 -0.70171,-27.36508 3.01128,-2.82895 4.05682,-3.0838 7.05227,-1.71898 8.68264,3.95608 11.47205,22.60978 4.4335,29.64833 -4.477,4.477 -5.81267,4.40711 -10.78406,-0.56427 l 0,0 z"
       id="path7083"
       inkscape:connector-curvature="0" />
    <path
       style="opacity:0.98275865;fill:#552200;fill-opacity:1;fill-rule:nonzero;stroke:#502d16;stroke-width:7.14285707;stroke-miterlimit:4;stroke-opacity:1;stroke-dasharray:none"
       d="m 507.01721,419.96886 c -5.93252,-5.93252 5.15732,-24 14.73124,-24 1.11396,0 2.75124,1.35629 3.63841,3.01397 2.31141,4.31892 -1.91113,14.62648 -7.84632,19.15347 -5.1441,3.9236 -7.94461,4.41128 -10.52333,1.83256 z"
       id="path7085"
       inkscape:connector-curvature="0" />
    <path
       style="opacity:0.98275865;fill:#552200;fill-opacity:1;fill-rule:nonzero;stroke:#502d16;stroke-width:7.14285707;stroke-miterlimit:4;stroke-opacity:1;stroke-dasharray:none"
       d="m 387.04936,359.45929 c -2.03408,-1.42473 -3.17501,-3.70571 -3.17501,-6.34757 0,-8.2958 13.51834,-11.89942 19.75098,-5.26507 3.97074,4.22666 3.92165,6.85807 -0.20019,10.73034 -3.94204,3.70335 -11.74773,4.1239 -16.37578,0.8823 z"
       id="path7087"
       inkscape:connector-curvature="0" />
    <path
       style="opacity:0.98275865;fill:#552200;fill-opacity:1;fill-rule:nonzero;stroke:#502d16;stroke-width:7.14285707;stroke-miterlimit:4;stroke-opacity:1;stroke-dasharray:none"
       d="m 331.3443,432.18529 c -2.68604,-1.12466 -6.04591,-8.3538 -6.01,-12.9312 0.04,-5.09394 4.39898,-14.64524 8.24422,-18.06435 1.63065,-1.44995 5.00653,-2.73567 7.50195,-2.85715 12.47407,-0.60725 14.02376,21.86733 2.12213,30.77651 -3.69995,2.76967 -9.18938,4.19369 -11.8583,3.07619 z"
       id="path7099"
       inkscape:connector-curvature="0" />
    <path
       style="opacity:0.98275865;fill:#552200;fill-opacity:1;fill-rule:nonzero;stroke:#502d16;stroke-width:7.14285707;stroke-miterlimit:4;stroke-opacity:1;stroke-dasharray:none"
       d="m 238.52635,398.72099 c -6.13004,-1.85277 -14.652,-10.47579 -14.652,-14.82576 0,-5.33838 1.45192,-7.86507 5.81646,-10.12206 5.37304,-2.77851 10.81836,-2.59141 17.75497,0.61004 16.193,7.47355 17.08394,23.0827 1.42857,25.02818 -3.14285,0.39056 -7.79945,0.0799 -10.348,-0.6904 l 0,0 z"
       id="path7101"
       inkscape:connector-curvature="0" />
    <path
       sodipodi:type="arc"
       style="opacity:0.98275865;fill:#552200;fill-opacity:1;fill-rule:nonzero;stroke:#502d16;stroke-width:5;stroke-miterlimit:4;stroke-opacity:1;stroke-dasharray:none"
       id="path7103"
       sodipodi:cx="312.85715"
       sodipodi:cy="354.50504"
       sodipodi:rx="15.714286"
       sodipodi:ry="16.428572"
       d="m 328.57143,354.50504 a 15.714286,16.428572 0 1 1 -31.42857,0 15.714286,16.428572 0 1 1 31.42857,0 z" />
  </g>
</svg>
