<?xml version="1.0" encoding="UTF-8" standalone="no"?>
<!-- Created with Inkscape (http://www.inkscape.org/) -->

<svg
   xmlns:dc="http://purl.org/dc/elements/1.1/"
   xmlns:cc="http://creativecommons.org/ns#"
   xmlns:rdf="http://www.w3.org/1999/02/22-rdf-syntax-ns#"
   xmlns:svg="http://www.w3.org/2000/svg"
   xmlns="http://www.w3.org/2000/svg"
   xmlns:xlink="http://www.w3.org/1999/xlink"
   xmlns:sodipodi="http://sodipodi.sourceforge.net/DTD/sodipodi-0.dtd"
   xmlns:inkscape="http://www.inkscape.org/namespaces/inkscape"
   width="744.09448819"
   height="1052.3622047"
   id="svg9600"
   version="1.1"
   inkscape:version="0.48.2 r9819"
   sodipodi:docname="Fish1.svg">
  <defs
     id="defs9602">
    <linearGradient
       inkscape:collect="always"
       id="linearGradient19574">
      <stop
         style="stop-color:#000000;stop-opacity:1;"
         offset="0"
         id="stop19576" />
      <stop
         style="stop-color:#000000;stop-opacity:0;"
         offset="1"
         id="stop19578" />
    </linearGradient>
    <linearGradient
       inkscape:collect="always"
       id="linearGradient19548">
      <stop
         style="stop-color:#0088e8;stop-opacity:1;"
         offset="0"
         id="stop19550" />
      <stop
         style="stop-color:#0088e8;stop-opacity:0;"
         offset="1"
         id="stop19552" />
    </linearGradient>
    <linearGradient
       id="linearGradient19538">
      <stop
         style="stop-color:#51c8e8;stop-opacity:1;"
         offset="0"
         id="stop19540" />
      <stop
         id="stop19546"
         offset="0.5"
         style="stop-color:#9abccc;stop-opacity:1;" />
      <stop
         style="stop-color:#e4b0b1;stop-opacity:1;"
         offset="1"
         id="stop19542" />
    </linearGradient>
    <filter
       inkscape:collect="always"
       id="filter19457"
       x="-0.11776643"
       width="1.2355329"
       y="-0.11614314"
       height="1.2322863">
      <feGaussianBlur
         inkscape:collect="always"
         stdDeviation="1.3982491"
         id="feGaussianBlur19459" />
    </filter>
    <linearGradient
       inkscape:collect="always"
       xlink:href="#linearGradient19538"
       id="linearGradient19544"
       x1="251.77388"
       y1="516.47312"
       x2="608.55396"
       y2="516.47312"
       gradientUnits="userSpaceOnUse" />
    <linearGradient
       inkscape:collect="always"
       xlink:href="#linearGradient19548"
       id="linearGradient19554"
       x1="184.80544"
       y1="500.04788"
       x2="331.73946"
       y2="500.04788"
       gradientUnits="userSpaceOnUse" />
    <filter
       inkscape:collect="always"
       id="filter19558">
      <feGaussianBlur
         inkscape:collect="always"
         stdDeviation="3.1874709"
         id="feGaussianBlur19560" />
    </filter>
    <filter
       inkscape:collect="always"
       id="filter19564">
      <feGaussianBlur
         inkscape:collect="always"
         stdDeviation="0.76254938"
         id="feGaussianBlur19566" />
    </filter>
    <filter
       inkscape:collect="always"
       id="filter19570">
      <feGaussianBlur
         inkscape:collect="always"
         stdDeviation="10.445845"
         id="feGaussianBlur19572" />
    </filter>
    <linearGradient
       inkscape:collect="always"
       xlink:href="#linearGradient19574"
       id="linearGradient19580"
       x1="247.45912"
       y1="524.77523"
       x2="654.37926"
       y2="524.77523"
       gradientUnits="userSpaceOnUse"
       gradientTransform="translate(-3.6498155e-6,0)" />
    <filter
       inkscape:collect="always"
       id="filter19646"
       x="-0.32824068"
       width="1.6564814"
       y="-0.095087102"
       height="1.1901742">
      <feGaussianBlur
         inkscape:collect="always"
         stdDeviation="8.6589238"
         id="feGaussianBlur19648" />
    </filter>
    <filter
       inkscape:collect="always"
       id="filter19652"
       x="-0.2508137"
       width="1.5016274"
       y="-0.067828176"
       height="1.1356564">
      <feGaussianBlur
         inkscape:collect="always"
         stdDeviation="14.921635"
         id="feGaussianBlur19654" />
    </filter>
  </defs>
  <sodipodi:namedview
     id="base"
     pagecolor="#ffffff"
     bordercolor="#666666"
     borderopacity="1.0"
     inkscape:pageopacity="0.0"
     inkscape:pageshadow="2"
     inkscape:zoom="0.72270792"
     inkscape:cx="486.64649"
     inkscape:cy="505.67647"
     inkscape:document-units="px"
     inkscape:current-layer="layer1"
     showgrid="false"
     inkscape:window-width="1667"
     inkscape:window-height="851"
     inkscape:window-x="23"
     inkscape:window-y="20"
     inkscape:window-maximized="0" />
  <metadata
     id="metadata9605">
    <rdf:RDF>
      <cc:Work
         rdf:about="">
        <dc:format>image/svg+xml</dc:format>
        <dc:type
           rdf:resource="http://purl.org/dc/dcmitype/StillImage" />
        <dc:title></dc:title>
      </cc:Work>
    </rdf:RDF>
  </metadata>
  <g
     inkscape:label="Layer 1"
     inkscape:groupmode="layer"
     id="layer1">
    <path
       inkscape:connector-curvature="0"
       id="path19650"
       d="m 226.29358,781.64689 c -7.23241,-1.77798 -13.145,-4.45868 -13.145,-5.95977 0,-0.48407 0.86034,-1.86314 1.91186,-3.06461 1.05153,-1.20147 2.31106,-3.49807 2.79897,-5.10354 0.81097,-2.66856 0.20655,-2.99907 -7.04287,-3.85109 -15.04276,-1.76799 -14.99983,-1.71636 -6.90678,-8.30302 3.93981,-3.20647 7.35055,-7.10832 7.57943,-8.67077 0.36968,-2.52367 -0.4926,-2.92322 -7.72379,-3.57892 -4.47696,-0.40596 -10.57947,-2.02443 -13.56114,-3.59662 l -5.42122,-2.8585 7.86611,-0.0611 c 9.80263,-0.0762 14.44464,-1.7776 15.7077,-5.75713 1.24729,-3.92987 -1.16104,-5.74976 -12.68282,-9.58397 -4.82241,-1.60478 -10.13306,-4.02315 -11.80144,-5.37412 -3.00044,-2.4296 -2.94188,-2.46665 5.38697,-3.40896 13.57073,-1.53536 14.93977,-6.32701 3.70306,-12.96075 -3.53547,-2.08722 -10.82435,-6.56909 -16.1975,-9.9597 l -9.76938,-6.16477 13.0447,-2.13733 c 11.51139,-1.88612 13.09472,-2.48833 13.47017,-5.12324 0.33096,-2.32268 -0.47078,-3.18272 -3.60962,-3.87213 -2.21929,-0.48743 -7.70301,-3.18056 -12.18605,-5.98471 l -8.15098,-5.09846 4.88917,-0.79472 c 2.68904,-0.4371 5.64862,-1.26408 6.57685,-1.83776 2.76554,-1.7092 0.4545,-7.77834 -6.79815,-17.85298 -3.70967,-5.15309 -6.74485,-9.62236 -6.74485,-9.93173 0,-0.30936 3.33946,-0.2178 7.42103,0.20344 4.66035,0.481 7.76735,0.20558 8.35196,-0.74034 1.07266,-1.73561 -3.18182,-8.63218 -12.2069,-19.7876 l -6.31106,-7.80076 6.10223,-0.91509 c 10.75201,-1.61236 11.31708,-5.72629 2.45749,-17.89153 l -4.9045,-6.73443 4.44444,0.97616 c 5.09172,1.11833 8.48215,-0.91776 8.48215,-5.09387 0,-1.49547 -2.1793,-6.61599 -4.84289,-11.37895 -2.6636,-4.76295 -4.8429,-9.06706 -4.8429,-9.5647 0,-0.49763 2.22024,-0.90479 4.93386,-0.90479 6.5328,0 10.28966,-2.16826 10.27353,-5.92934 -0.007,-1.68553 -2.49787,-6.98126 -5.53474,-11.76825 -3.03688,-4.78701 -5.5216,-8.98995 -5.5216,-9.33987 0,-0.34994 2.4144,-0.63624 5.36532,-0.63624 7.74943,0 8.66817,-1.93522 5.58366,-11.76132 -3.69676,-11.77651 -3.55887,-12.32711 3.56418,-14.23223 4.77362,-1.27676 7.20188,-3.02437 10.49239,-7.55134 6.21906,-8.55597 7.72858,-12.81111 14.56547,-41.05815 12.7661,-52.74385 14.23231,-62.87337 17.84199,-123.26389 1.94907,-32.60825 4.77957,-69.49892 5.38265,-70.15348 0.23855,-0.25893 66.96494,103.13856 68.80292,106.61522 1.21493,2.29812 -5.87019,29.71924 -11.85131,45.86751 -2.81876,7.61027 -11.69964,27.224 -19.7353,43.58607 -26.14155,53.229 -30.3182,63.36575 -37.04874,89.91759 -7.26787,28.67155 -8.31474,40.04464 -8.2171,89.2696 0.0985,49.63964 1.93661,69.65016 11.62483,126.55135 3.16207,18.57155 3.72302,24.40667 2.42555,25.23106 -2.38973,1.51839 -10.20121,1.16762 -18.29201,-0.82138 z"
       style="opacity:0.19396554;fill:#000000;fill-opacity:1;fill-rule:nonzero;stroke:#000000;stroke-width:0.5;stroke-miterlimit:4;stroke-opacity:1;stroke-dasharray:none;filter:url(#filter19652)" />
    <path
       style="fill:#6cdcfc;stroke:#000094;stroke-width:5;stroke-linecap:butt;stroke-linejoin:miter;stroke-miterlimit:4;stroke-opacity:1;stroke-dasharray:none;opacity:1"
       d="M 336.23542,346.68291 258.74907,226.30233 c -9.18962,66.52293 -4.4457,123.88999 -17.48466,172.98131 -10.33319,38.90419 -12.19126,78.99775 -36.47207,76.77711 -2.27011,-0.20762 -1.73522,3.78027 -2.53995,5.75491 -0.66543,1.63286 6.27775,16.39839 5.60854,18.00956 -1.24063,2.98691 -13.41777,-0.88909 -14.36386,2.24756 -1.10781,3.67284 13.69501,21.11756 12.57674,24.67662 -1.03516,3.29458 -15.78161,0.38061 -16.54508,3.73582 -0.99847,4.38795 11.90117,19.7673 11.02717,24.01875 -0.85655,4.16656 -12.60562,-2.67622 -13.08259,1.65299 -0.60121,5.45691 11.40172,15.17076 11.11382,20.9109 -0.14713,2.93353 -16.11854,1.77426 -16.08304,4.8351 0.0369,3.18144 19.49333,23.6852 19.62762,26.92619 0.1236,2.98325 -19.73146,-5.74148 -19.43323,-2.64374 0.43302,4.49777 16.88564,23.0639 18.27354,27.56265 2.69171,8.72493 -16.88769,1.34073 -17.7119,1.31144 -6.12681,-0.21771 18.66474,20.8851 29.52472,21.2517 9.13469,0.30836 -28.9037,4.53279 -28.81771,5.67425 0.44053,5.84744 32.31439,21.94031 34.1178,23.4275 7.65313,6.31121 -20.47073,3.54927 -19.91037,7.07956 1.64489,10.36296 28.73035,14.34284 29.2999,16.501 2.43348,9.22103 -27.69649,2.89082 -27.74474,4.45647 -0.25145,8.15887 24.67906,15.4204 28.41365,14.44127 9.90305,-2.59636 -13.48646,12.20093 -13.84686,12.53447 -5.14091,4.75781 18.76655,7.48802 21.54822,7.21174 4.41445,-0.43845 -6.96134,7.28731 -4.76936,11.38353 26.39776,14.72804 42.83483,5.08505 62.26582,2.76737 z"
       id="path10182"
       inkscape:connector-curvature="0"
       sodipodi:nodetypes="ccssssssssssssssssssssssssccc" />
    <path
       sodipodi:nodetypes="cccccccccccc"
       inkscape:connector-curvature="0"
       id="path19568"
       d="m 370.82754,943.05108 c 13.21252,-4.58422 43.6757,-60.9204 30.44106,13.83685 24.96213,-16.38349 52.81414,7.77316 112.07848,-279.50434 22.32702,-19.42514 47.33698,-79.09493 73.33528,-153.58902 -26.1281,27.3543 -51.09111,78.96823 -78.87002,71.95161 C 491.82647,368.17315 452.46137,374.39232 419.25651,319.00921 411.17425,292.7192 407.61793,266.42919 417.87282,240.13918 489.12699,132.87796 475.67673,68.109774 437.24441,76.864364 207.65363,69.189474 267.3683,118.36352 261.51644,137.7465 c 25.39657,69.77311 76.05373,129.41447 52.58002,206.16904 -24.19448,131.63336 -116.8122,129.27124 -62.26582,415.10545 15.18723,40.36188 5.9067,59.75139 118.9969,184.03009 z"
       style="opacity:0.1896552;fill:url(#linearGradient19580);fill-opacity:1;stroke:#0000a0;stroke-width:5;stroke-linecap:butt;stroke-linejoin:miter;stroke-miterlimit:4;stroke-opacity:1;stroke-dasharray:none;filter:url(#filter19570)" />
    <path
       style="fill:url(#linearGradient19544);stroke:#0000a0;stroke-width:5;stroke-linecap:butt;stroke-linejoin:miter;stroke-miterlimit:4;stroke-opacity:1;stroke-dasharray:none;opacity:1;fill-opacity:1"
       d="m 390.19913,943.05108 c 13.21252,-4.58422 43.6757,-60.9204 30.44106,13.83685 24.96213,-16.38349 52.81414,7.77313 112.07848,-279.50434 22.32702,-19.42514 47.33701,-79.09493 73.33529,-153.58902 -26.12813,27.3543 -51.09112,78.96823 -78.87003,71.95161 C 511.19806,368.17315 471.83296,374.39232 438.6281,319.00921 430.54584,292.7192 426.98952,266.42919 437.24441,240.13918 508.49858,132.87796 495.04832,68.109777 456.616,76.864363 227.02522,69.189476 286.73989,118.36352 280.88803,137.7465 c 25.39657,69.77311 76.05373,129.41447 52.58002,206.16904 -24.19448,131.63336 -116.8122,129.27124 -62.26582,415.10545 15.18723,40.36188 5.9067,59.75139 118.9969,184.03009 z"
       id="path9670"
       inkscape:connector-curvature="0"
       sodipodi:nodetypes="cccccccccccc" />
    <path
       style="fill:none;stroke:#00a0f0;stroke-width:3.23803806;stroke-linecap:butt;stroke-linejoin:miter;stroke-miterlimit:4;stroke-opacity:1;stroke-dasharray:none"
       d="m 337.81367,882.49907 c -7.10726,-29.74283 -10.73026,-61.43845 12.11947,-77.31662 26.35182,-18.31175 81.6272,-17.20911 104.56466,5.63964 16.32958,16.26644 -4.30676,44.64608 4.39728,92.99033"
       id="path10192"
       inkscape:connector-curvature="0"
       sodipodi:nodetypes="cssc" />
    <path
       style="fill:#64dcfc;stroke:#00008c;stroke-width:3;stroke-linecap:butt;stroke-linejoin:miter;stroke-miterlimit:4;stroke-opacity:1;stroke-dasharray:none"
       d="m 514.73076,483.66771 c 45.72567,-83.47259 -0.633,-141.63087 -1.38368,-254.59801 -24.5024,20.4716 -49.59964,33.21024 -70.56793,99.62531 z"
       id="path10180"
       inkscape:connector-curvature="0"
       sodipodi:nodetypes="cccc" />
    <path
       inkscape:connector-curvature="0"
       id="path19620"
       d="m 463.82718,699.82782 c -6.34132,-0.9903 -11.73943,-2.01031 -11.9958,-2.26668 -0.85356,-0.85357 -11.67427,-58.30467 -14.42,-76.56107 -4.91714,-32.69408 -6.03527,-49.66924 -5.23216,-79.4333 0.58181,-21.56272 1.48874,-31.86003 3.72826,-42.33096 1.62768,-7.61027 3.5421,-14.42838 4.25426,-15.15135 0.71216,-0.72298 1.29484,-0.90813 1.29484,-0.41144 0,3.49348 17.45901,62.69246 21.2947,72.20481 6.14241,15.23292 15.66014,29.48016 25.05687,37.50804 l 7.44576,6.36111 -4.57844,5.99807 c -7.4841,9.80471 -9.83821,21.98824 -9.49781,49.1553 0.15733,12.55694 0.80555,28.27906 1.44049,34.93804 l 1.15443,12.10725 -4.20786,-0.15864 c -2.31433,-0.0872 -9.39622,-0.96887 -15.73754,-1.95918 z"
       style="fill:#000000;fill-opacity:0.4;fill-rule:nonzero;stroke:#000004;stroke-width:0.5;stroke-miterlimit:4;stroke-opacity:1;stroke-dasharray:none;filter:url(#filter19646)" />
    <path
       style="fill:#6cdcfc;stroke:#000080;stroke-width:5;stroke-linecap:butt;stroke-linejoin:miter;stroke-miterlimit:4;stroke-opacity:1;stroke-dasharray:none"
       d="m 433.09336,698.13886 c -16.2263,-79.31205 -31.75833,-158.43476 -8.30211,-226.92431 17.83944,45.0811 18.02715,103.401 62.26582,128.68269 -25.01577,12.15708 -18.71685,59.54319 -15.22054,103.77636"
       id="path10184"
       inkscape:connector-curvature="0"
       sodipodi:nodetypes="cccc" />
    <path
       style="fill:none;stroke:#000098;stroke-width:1px;stroke-linecap:butt;stroke-linejoin:miter;stroke-opacity:1"
       d="m 329.31699,247.0576 c 28.60207,-7.60731 63.35195,-23.79854 106.54374,-12.45316"
       id="path10186"
       inkscape:connector-curvature="0"
       sodipodi:nodetypes="cc" />
    <path
       style="fill:none;stroke:#0050dc;stroke-width:1.02708626px;stroke-linecap:butt;stroke-linejoin:miter;stroke-opacity:1"
       d="m 377.74596,230.45338 c -5.2744,34.60817 16.22421,83.47649 6.10154,116.86835 -42.59526,140.50995 -75.91659,282.44688 -36.5426,459.6964"
       id="path10188"
       inkscape:connector-curvature="0"
       sodipodi:nodetypes="csc" />
    <path
       style="fill:none;stroke:#0094ec;stroke-width:3;stroke-linecap:butt;stroke-linejoin:miter;stroke-miterlimit:4;stroke-opacity:1;stroke-dasharray:none"
       d="m 361.14175,734.11466 c 115.70156,-22.76928 150.36493,40.36192 81.63741,213.08747"
       id="path10190"
       inkscape:connector-curvature="0"
       sodipodi:nodetypes="cc" />
    <path
       sodipodi:type="arc"
       style="opacity:0.07758622000000000;fill:#00a0f0;fill-opacity:0.18823529000000000;fill-rule:nonzero;stroke:#007ce8;stroke-width:5;stroke-miterlimit:4;stroke-opacity:1;stroke-dasharray:none"
       id="path19323"
       sodipodi:cx="372.90308"
       sodipodi:cy="882.86078"
       sodipodi:rx="13.145006"
       sodipodi:ry="13.145006"
       d="m 386.04808,882.86078 a 13.145006,13.145006 0 1 1 -26.29001,0 13.145006,13.145006 0 1 1 26.29001,0 z" />
    <path
       sodipodi:type="arc"
       style="opacity:0.07758622000000000;fill:#007ade;fill-opacity:0.09019608;fill-rule:nonzero;stroke:#007ce8;stroke-width:5;stroke-miterlimit:4;stroke-opacity:1;stroke-dasharray:none"
       id="path19325"
       sodipodi:cx="372.21121"
       sodipodi:cy="883.55261"
       sodipodi:rx="4.1510544"
       sodipodi:ry="4.1510544"
       d="m 376.36227,883.55261 a 4.1510544,4.1510544 0 1 1 -8.30211,0 4.1510544,4.1510544 0 1 1 8.30211,0 z" />
    <path
       style="opacity:0.07758622000000000;fill:#000040;fill-opacity:0.09019608000000000;fill-rule:nonzero;stroke:#007ce8;stroke-width:1.72960603000000002;stroke-miterlimit:4;stroke-opacity:1;stroke-dasharray:none"
       d="m 370.99548,884.26617 c -0.56936,-1.06386 0.12406,-2.16861 1.27449,-2.03051 1.15837,0.13905 1.79074,1.09509 1.27216,1.9233 -0.56868,0.90823 -2.08382,0.97202 -2.54665,0.10721 z"
       id="path19327"
       inkscape:connector-curvature="0" />
    <path
       style="opacity:0.07758622;fill:#000040;fill-opacity:0.09019608;fill-rule:nonzero;stroke:#007ce8;stroke-width:1.72960603;stroke-miterlimit:4;stroke-opacity:1;stroke-dasharray:none"
       d=""
       id="path19329"
       inkscape:connector-curvature="0" />
    <path
       style="opacity:0.07758622;fill:#000040;fill-opacity:0.09019608;fill-rule:nonzero;stroke:#007ce8;stroke-width:1.72960603;stroke-miterlimit:4;stroke-opacity:1;stroke-dasharray:none"
       d=""
       id="path19331"
       inkscape:connector-curvature="0" />
    <path
       style="opacity:0.07758622;fill:#000040;fill-opacity:0.09019608;fill-rule:nonzero;stroke:#007ce8;stroke-width:1.72960603;stroke-miterlimit:4;stroke-opacity:1;stroke-dasharray:none"
       d="m 370.81142,898.20387 c -4.04837,-0.84312 -6.43508,-2.02363 -8.76933,-4.33746 -2.99312,-2.96694 -4.54863,-6.73023 -4.54863,-11.00466 0,-9.91742 8.90607,-17.13876 18.6119,-15.09116 4.80584,1.01387 8.57416,3.99949 10.75191,8.51866 1.21346,2.51814 1.25022,2.71135 1.25022,6.5725 0,3.86116 -0.0368,4.05436 -1.25022,6.5725 -1.43133,2.97024 -3.61965,5.35053 -6.36092,6.91892 -2.67201,1.52877 -7.13535,2.38167 -9.68493,1.8507 z m 4.90778,-5.10454 c 7.80114,-2.07699 10.43348,-12.01943 4.70017,-17.75273 -2.20667,-2.20667 -4.27545,-3.03737 -7.53242,-3.02457 -2.23851,0.009 -3.09221,0.17407 -4.46716,0.8648 -7.45772,3.74656 -8.26401,13.95973 -1.45603,18.44336 2.86241,1.88514 5.5188,2.33087 8.75544,1.46914 z"
       id="path19333"
       inkscape:connector-curvature="0" />
    <path
       style="opacity:0.07758622000000000;fill:#000040;fill-opacity:0.09019608000000000;fill-rule:nonzero;stroke:#000010;stroke-width:1.72960603000000002;stroke-miterlimit:4;stroke-opacity:1;stroke-dasharray:none"
       d="m 369.08182,891.58652 c -4.04445,-1.96123 -5.95931,-5.19081 -5.60234,-9.4488 0.3083,-3.6774 2.45823,-6.79708 5.60234,-8.12932 1.98985,-0.84316 5.80114,-0.79145 7.78323,0.1056 4.71802,2.13526 6.85165,7.84041 4.72323,12.6295 -1.52839,3.43898 -4.28513,5.33001 -8.25984,5.66597 -1.90561,0.16107 -2.42489,0.0604 -4.24662,-0.82295 z m 6.80922,-2.41791 c 0.54182,-0.32007 1.40756,-1.20847 1.92387,-1.97423 0.78195,-1.15976 0.93873,-1.76783 0.93873,-3.64079 0,-1.89695 -0.15351,-2.47636 -0.98188,-3.70599 -1.7464,-2.59233 -5.52737,-3.6787 -8.23099,-2.36498 -1.55211,0.75419 -2.06671,1.19144 -3.0508,2.59222 -1.18537,1.68729 -1.19015,5.17853 -0.01,6.96487 2.06467,3.12398 6.15833,4.05006 9.4106,2.1289 l 0,0 z"
       id="path19335"
       inkscape:connector-curvature="0" />
    <path
       style="opacity:0.07758622;fill:#000040;fill-opacity:0.09019608;fill-rule:nonzero;stroke:#000010;stroke-width:1.72960603;stroke-miterlimit:4;stroke-opacity:1;stroke-dasharray:none"
       d="m 374.915,890.65715 c 2.89579,-1.03232 4.71742,-3.77535 4.71742,-7.10356 0,-4.40765 -3.26057,-7.61026 -7.748,-7.61026 -2.43567,0 -5.19286,1.76011 -6.4327,4.10644 -0.36484,0.69044 -0.67022,1.05558 -0.67863,0.81143 -0.0294,-0.85347 1.68926,-3.79753 2.72629,-4.67012 1.52729,-1.28514 3.21058,-1.72091 6.08648,-1.57569 2.15299,0.10872 2.77167,0.28865 4.02752,1.1713 4.24421,2.98293 4.965,8.98066 1.5471,12.87343 -1.18188,1.3461 -3.36212,2.49284 -4.71688,2.48096 -0.70167,-0.006 -0.61275,-0.0974 0.4714,-0.48393 z"
       id="path19337"
       inkscape:connector-curvature="0" />
    <path
       style="opacity:0.07758622;fill:#000040;fill-opacity:0.09019608;fill-rule:nonzero;stroke:#000010;stroke-width:1.72960603;stroke-miterlimit:4;stroke-opacity:1;stroke-dasharray:none"
       d="m 374.78216,889.85213 c 1.29849,-0.65378 2.22427,-1.44159 2.94033,-2.50214 0.90576,-1.34151 1.04234,-1.84773 1.02429,-3.7964 -0.0171,-1.84529 -0.18878,-2.5013 -0.95736,-3.65836 -1.267,-1.9074 -3.38269,-3.06158 -5.59431,-3.05188 -2.45698,0.0108 -4.20146,1.06997 -6.20903,3.76991 -0.44929,0.60424 -0.51582,0.61672 -0.52543,0.0985 -0.006,-0.32633 0.49357,-1.168 1.11027,-1.87039 3.4391,-3.91692 9.88172,-3.17148 12.27845,1.42067 0.71469,1.36935 0.71389,5.2161 -0.001,6.58307 -0.75737,1.44746 -2.63302,3.11654 -4.02362,3.5805 -2.00441,0.66874 -2.02246,0.42353 -0.0422,-0.5735 l 2e-5,0 z"
       id="path19339"
       inkscape:connector-curvature="0" />
    <path
       style="opacity:0.07758622;fill:#000040;fill-opacity:0.09019608;fill-rule:nonzero;stroke:#000010;stroke-width:1.72960603;stroke-miterlimit:4;stroke-opacity:1;stroke-dasharray:none"
       d="m 369.77366,888.54434 c -2.44387,-1.27104 -3.5278,-3.59669 -2.92403,-6.27373 1.04793,-4.64641 7.22898,-5.78594 9.92894,-1.83048 1.0905,1.5976 1.08717,4.62435 -0.007,6.26208 -1.45974,2.1851 -4.69904,3.0378 -6.99801,1.84213 z m 3.68952,-3.23383 c 1.66529,-0.82881 1.58507,-2.76135 -0.14951,-3.60143 -1.11679,-0.54087 -2.55803,-0.27596 -3.09527,0.56895 -0.75295,1.18415 -0.003,2.9496 1.45783,3.43223 0.59962,0.1981 0.57437,0.20374 1.78695,-0.39975 l 0,0 z"
       id="path19341"
       inkscape:connector-curvature="0" />
    <path
       style="opacity:0.07758622;fill:#000040;fill-opacity:0.09019608;fill-rule:nonzero;stroke:#000010;stroke-width:1.72960603;stroke-miterlimit:4;stroke-opacity:1;stroke-dasharray:none"
       d=""
       id="path19343"
       inkscape:connector-curvature="0" />
    <path
       style="opacity:0.07758622;fill:#000040;fill-opacity:0.09019608;fill-rule:nonzero;stroke:#000010;stroke-width:1.72960603;stroke-miterlimit:4;stroke-opacity:1;stroke-dasharray:none"
       d=""
       id="path19345"
       inkscape:connector-curvature="0" />
    <path
       style="opacity:0.07758622;fill:#000040;fill-opacity:0.09019608;fill-rule:nonzero;stroke:#000010;stroke-width:1.72960603;stroke-miterlimit:4;stroke-opacity:1;stroke-dasharray:none"
       d=""
       id="path19347"
       inkscape:connector-curvature="0" />
    <path
       style="opacity:0.07758622;fill:#000040;fill-opacity:0.09019608;fill-rule:nonzero;stroke:#000010;stroke-width:1.72960603;stroke-miterlimit:4;stroke-opacity:1;stroke-dasharray:none"
       d="m 371.33031,886.2837 c -3.01751,-1.184 -2.51537,-5.49748 0.63998,-5.49748 3.38858,0 4.52688,3.46602 1.70361,5.18737 -1.27949,0.7801 -1.17951,0.76687 -2.34359,0.31011 z m 2.13287,-0.97319 c 1.66529,-0.82881 1.58507,-2.76135 -0.14951,-3.60143 -1.11679,-0.54087 -2.55803,-0.27596 -3.09527,0.56895 -0.75295,1.18415 -0.003,2.9496 1.45783,3.43223 0.59962,0.1981 0.57437,0.20374 1.78695,-0.39975 l 0,0 z"
       id="path19349"
       inkscape:connector-curvature="0" />
    <path
       style="opacity:0.07758622;fill:#000040;fill-opacity:0.09019608;fill-rule:nonzero;stroke:#000010;stroke-width:1.72960603;stroke-miterlimit:4;stroke-opacity:1;stroke-dasharray:none"
       d="m 371.33031,886.2837 c -3.09153,-1.21305 -2.52756,-5.49748 0.72364,-5.49748 3.31167,0 4.40192,3.4912 1.61995,5.18737 -1.27949,0.7801 -1.17951,0.76687 -2.34359,0.31011 z m 2.04873,-0.81369 c 2.71283,-1.40285 0.47891,-5.2529 -2.28233,-3.93349 -1.53594,0.73393 -1.5571,3.27863 -0.0334,4.01297 1.05577,0.50882 1.18675,0.50432 2.31569,-0.0795 l 0,0 z"
       id="path19351"
       inkscape:connector-curvature="0" />
    <path
       style="opacity:0.07758622;fill:#000040;fill-opacity:0.09019608;fill-rule:nonzero;stroke:#000010;stroke-width:1.72960603;stroke-miterlimit:4;stroke-opacity:1;stroke-dasharray:none"
       d="m 371.33031,886.2837 c -3.09153,-1.21305 -2.52756,-5.49748 0.72364,-5.49748 3.31167,0 4.40192,3.4912 1.61995,5.18737 -1.27949,0.7801 -1.17951,0.76687 -2.34359,0.31011 z m 2.04873,-0.81369 c 2.71283,-1.40285 0.47891,-5.2529 -2.28233,-3.93349 -1.53594,0.73393 -1.5571,3.27863 -0.0334,4.01297 1.05577,0.50882 1.18675,0.50432 2.31569,-0.0795 l 0,0 z"
       id="path19353"
       inkscape:connector-curvature="0" />
    <path
       style="opacity:0.07758622;fill:#000040;fill-opacity:0.09019608;fill-rule:nonzero;stroke:#000010;stroke-width:1.72960603;stroke-miterlimit:4;stroke-opacity:1;stroke-dasharray:none"
       d="m 371.33031,886.2837 c -3.01751,-1.184 -2.51537,-5.49748 0.63998,-5.49748 3.38858,0 4.52688,3.46602 1.70361,5.18737 -1.27949,0.7801 -1.17951,0.76687 -2.34359,0.31011 z m 2.91069,-1.81449 c 0.68183,-0.91324 0.68176,-0.91809 -0.0235,-1.8669 -1.37393,-1.84838 -4.27088,-1.20312 -4.27088,0.95128 0,0.92204 0.72922,1.82971 1.72961,2.15287 0.80066,0.25865 1.81226,-0.22935 2.56477,-1.23725 l 0,0 z"
       id="path19355"
       inkscape:connector-curvature="0" />
    <path
       style="opacity:0.07758622;fill:#000040;fill-opacity:0.09019608;fill-rule:nonzero;stroke:#000010;stroke-width:1.72960603;stroke-miterlimit:4;stroke-opacity:1;stroke-dasharray:none"
       d="m 371.33031,886.2837 c -3.09153,-1.21305 -2.52756,-5.49748 0.72364,-5.49748 3.31167,0 4.40192,3.4912 1.61995,5.18737 -1.27949,0.7801 -1.17951,0.76687 -2.34359,0.31011 z m 2.48821,-1.25994 c 0.8991,-1.04686 0.96,-1.73677 0.23472,-2.65881 -1.28889,-1.63857 -4.10662,-0.86423 -4.10662,1.12854 0,0.47874 0.25762,1.1551 0.5725,1.50303 0.73269,0.80961 2.61412,0.82515 3.2994,0.0272 z"
       id="path19357"
       inkscape:connector-curvature="0" />
    <path
       style="opacity:0.68534483;fill:#000040;fill-opacity:0.09019608000000000;fill-rule:nonzero;stroke:#000010;stroke-width:1.72960603000000002;stroke-miterlimit:4;stroke-opacity:1;stroke-dasharray:none"
       d="m 371.33031,886.2837 c -3.01751,-1.184 -2.51537,-5.49748 0.63998,-5.49748 3.38858,0 4.52688,3.46602 1.70361,5.18737 -1.27949,0.7801 -1.17951,0.76687 -2.34359,0.31011 z m 2.48069,-1.22707 c 1.3822,-1.25088 0.37024,-3.57856 -1.55579,-3.57856 -2.00078,0 -2.91524,1.74731 -1.77009,3.38224 0.65337,0.93282 2.39824,1.03582 3.32588,0.19632 z"
       id="path19359"
       inkscape:connector-curvature="0" />
    <path
       style="opacity:0.6853448;fill:#000040;fill-opacity:0.09019608;fill-rule:nonzero;stroke:#000010;stroke-width:1.72960603;stroke-miterlimit:4;stroke-opacity:1;stroke-dasharray:none"
       d="m 370.28195,890.61397 c -1.97498,-0.58541 -4.33164,-2.57756 -4.77818,-4.03913 -0.57191,-1.87188 -0.79752,-3.71309 -0.455,-3.71309 0.17728,0 0.43062,0.72219 0.56299,1.60486 0.42411,2.82822 2.59642,5.13109 5.24571,5.56101 1.17907,0.19133 1.7586,0.60482 1.2568,0.89671 -0.14579,0.0848 -0.97034,-0.0549 -1.83232,-0.31036 z"
       id="path19361"
       inkscape:connector-curvature="0" />
    <path
       style="opacity:0.51534484;fill:#000040;fill-opacity:0.09019608000000000;fill-rule:nonzero;stroke:#000010;stroke-width:1.72960603000000002;stroke-miterlimit:4;stroke-opacity:1;stroke-dasharray:none"
       d="m 379.28649,888.26578 c 0,-0.0719 0.22055,-0.65855 0.4901,-1.30369 0.39765,-0.95171 0.77208,-4.42858 0.55333,-5.1381 -0.0293,-0.0951 -0.11174,-0.61903 -0.18312,-1.16423 -0.17158,-1.31039 -1.61073,-3.32859 -3.0167,-4.23048 -1.84497,-1.18349 -6.14652,-1.33571 -8.3942,-0.29704 -0.76103,0.35167 -1.53935,0.71185 -1.72961,0.80038 -0.19026,0.0885 -0.11242,-0.1225 0.17296,-0.46898 1.46339,-1.77665 6.50332,-2.52018 9.26451,-1.36677 4.2048,1.75645 6.10113,7.11222 4.06599,11.48353 -0.71167,1.52863 -1.22326,2.23347 -1.22326,1.68538 z"
       id="path19363"
       inkscape:connector-curvature="0" />
    <path
       style="opacity:0.51534484;fill:#000040;fill-opacity:0.09019608;fill-rule:nonzero;stroke:#000010;stroke-width:1.72960603;stroke-miterlimit:4;stroke-opacity:1;stroke-dasharray:none"
       d=""
       id="path19365"
       inkscape:connector-curvature="0" />
    <path
       style="opacity:0.73275862000000003;fill:#000040;fill-opacity:0.09019608000000000;fill-rule:nonzero;stroke:#000010;stroke-width:1.72960603000000002;stroke-miterlimit:4;stroke-opacity:1;stroke-dasharray:none;"
       d="m 369.21408,886.70758 c -1.21114,-1.21114 -1.34299,-1.51728 -1.34299,-3.11837 0,-1.53916 0.15756,-1.9473 1.18415,-3.06751 1.09992,-1.20022 1.32324,-1.29212 3.13987,-1.29212 1.81663,0 2.03995,0.0919 3.13987,1.29212 0.97873,1.06798 1.18414,1.56022 1.18414,2.83758 0,2.11944 -0.59477,3.24402 -2.12991,4.02719 -2.12723,1.08524 -3.60484,0.8914 -5.17513,-0.67889 z m 4.52431,0.4851 c 1.4908,-0.77093 2.43481,-2.17009 2.43481,-3.60877 0,-4.4627 -6.99673,-5.20917 -7.81751,-0.83403 -0.44806,2.38835 1.32914,4.51036 4.11604,4.91464 0.15214,0.0221 0.72214,-0.19026 1.26666,-0.47184 z"
       id="path19367"
       inkscape:connector-curvature="0" />
    <path
       style="opacity:0.63793102999999995;fill:#14ccfc;fill-opacity:0.09019608000000000;fill-rule:nonzero;stroke:#0000b8;stroke-width:1.72960603000000002;stroke-miterlimit:4;stroke-opacity:1;stroke-dasharray:none;filter:url(#filter19457)"
       d="m 368.83142,896.70522 c -4.21053,-1.32296 -7.14088,-3.8869 -9.01181,-7.88498 -0.84763,-1.81133 -1.10505,-2.88802 -1.22165,-5.10959 -0.24512,-4.67014 1.16853,-8.31508 4.39566,-11.33367 7.23889,-6.77114 18.66848,-4.53514 23.09648,4.51844 0.89337,1.82659 0.97272,2.31166 0.97603,5.96633 0.003,3.73677 -0.0594,4.10266 -1.03417,6.03153 -3.34242,6.61368 -10.56875,9.89565 -17.20054,7.81194 z m 9.28157,-3.55838 c 3.90682,-2.00545 6.20364,-5.96313 6.16968,-10.63101 -0.0231,-3.17279 -0.82302,-5.14704 -3.05034,-7.52822 -2.28148,-2.43909 -4.23714,-3.30237 -7.87944,-3.47819 -2.63084,-0.12699 -3.21916,-0.0411 -4.85869,0.70952 -2.33256,1.06788 -4.19515,2.68457 -5.3363,4.63179 -3.81912,6.51685 -1.03369,14.32145 6.05616,16.96896 2.08469,0.77848 6.76032,0.42495 8.89893,-0.67285 l 0,0 z"
       id="path19375"
       inkscape:connector-curvature="0" />
    <path
       style="fill:#0094ec;fill-opacity:0.09019608;fill-rule:nonzero;stroke:#000098;stroke-width:2.93523884;stroke-miterlimit:4;stroke-opacity:1;stroke-dasharray:none"
       d="M 322.37921,857.32648 C 304.80991,833.619 292.42097,812.02687 285.89049,793.73192 279.02758,774.50571 273.96063,757.31678 272.0465,746.7681 253.33478,643.64903 252.58374,569.74782 269.67002,512.9274 c 5.56338,-18.50099 12.60571,-34.95487 29.49014,-68.90153 17.41813,-35.01969 22.7995,-47.35829 28.68742,-65.77565 4.16181,-13.01811 10.87617,-41.48263 13.12089,-55.62413 3.0961,-19.50502 1.0109,-42.03916 -6.13477,-66.29651 -1.38852,-4.71358 -2.33401,-8.76071 -2.10109,-8.99362 0.49233,-0.49233 36.09387,-10.78195 40.57003,-11.72562 2.87667,-0.60647 2.99744,-0.50585 2.6047,2.17001 -0.72946,4.97015 1.60912,26.54667 5.27235,48.64446 3.07822,18.56884 3.57744,23.80945 3.63487,38.1581 l 0.0665,16.63302 -8.4199,28.37398 c -17.88923,60.28455 -28.88863,105.83623 -36.4296,150.86563 -15.67541,93.60256 -14.62352,183.50456 3.17108,271.02264 l 2.82419,13.89009 -3.3429,3.23214 c -4.4317,4.28488 -9.87278,15.50337 -11.05841,22.80041 -1.25502,7.72415 -1.22049,21.0154 0.0789,30.35745 0.57421,4.12848 0.84734,7.70304 0.60693,7.94343 -0.2404,0.24041 -4.70986,-5.32845 -9.93214,-12.37522 l 0,0 z"
       id="path19377"
       inkscape:connector-curvature="0" />
    <path
       style="fill:#0088e8;fill-opacity:0.40000001000000002;fill-rule:nonzero;stroke:#000098;stroke-width:2.93523883999999979;stroke-miterlimit:4;stroke-opacity:1;stroke-dasharray:none"
       d="m 320.38705,850.80009 c -22.15442,-31.18123 -32.08932,-51.99943 -42.64251,-89.3558 -5.05834,-17.90562 -12.68659,-67.85269 -16.1384,-105.6686 -1.99543,-21.86066 -2.28903,-68.47645 -0.53921,-85.61113 1.77896,-17.42008 5.77941,-39.61983 9.4327,-52.34509 6.02112,-20.97292 12.57331,-36.42592 34.01807,-80.22986 18.43817,-37.66254 23.73636,-51.35465 30.85585,-79.74066 7.04993,-28.10872 8.39079,-36.56669 8.3759,-52.8343 -0.015,-16.34412 -1.04146,-24.45569 -5.42784,-42.89155 -1.65948,-6.97474 -2.61342,-12.9193 -2.14504,-13.36697 0.78016,-0.74568 34.73783,-10.76276 36.48549,-10.76276 0.42867,0 1.09089,3.8391 1.47161,8.53133 0.38073,4.69223 2.42165,20.87274 4.53537,35.95667 3.18659,22.74008 3.84349,30.14015 3.84518,43.31649 l 0.002,15.89115 -10.20218,35.47554 c -20.1191,69.9592 -29.54711,111.12941 -36.69123,160.22318 -5.8833,40.42951 -7.96974,69.82927 -8.05455,113.4959 -0.0881,45.34038 3.41891,84.41523 11.54047,128.58474 1.88774,10.26653 3.67392,20.06868 3.96929,21.78257 0.44204,2.5649 -0.0881,3.879 -2.99645,7.42833 -8.54082,10.42296 -12.00467,23.89442 -11.06242,43.02362 0.31145,6.32299 0.47791,11.4951 0.36992,11.49358 -0.108,-0.002 -4.15893,-5.57989 -9.00207,-12.39638 z"
       id="path19379"
       inkscape:connector-curvature="0" />
    <path
       style="fill:#0088e8;fill-opacity:0.4;fill-rule:nonzero;stroke:#000098;stroke-width:4.15105438;stroke-miterlimit:4;stroke-opacity:1;stroke-dasharray:none"
       d="m 330.76179,244.0108 c 0,-2.33211 -13.5163,-33.54465 -24.29536,-56.10408 -12.88182,-26.96028 -21.43219,-47.55589 -22.11609,-53.27187 -0.31868,-2.66359 -1.28355,-8.72768 -2.14413,-13.47575 -1.84563,-10.18281 -1.14227,-13.86133 3.76566,-19.69407 7.46107,-8.866983 25.09263,-14.817202 55.8594,-18.85118 12.58114,-1.649574 32.00661,-2.419017 71.25977,-2.8226 50.84552,-0.522771 54.24354,-0.404004 58.80661,2.055392 7.53907,4.063406 11.64823,13.391032 12.2652,27.841528 0.95722,22.41952 -6.26959,48.43602 -22.4961,80.98591 -10.35662,20.77507 -25.7206,47.07591 -25.73647,44.05701 -0.0148,-2.82241 -18.64392,-4.92158 -39.17873,-4.41478 -10.79997,0.26655 -19.94765,0.8602 -20.32816,1.31921 -0.38051,0.459 -9.72039,3.37155 -20.75527,6.47232 -11.03489,3.10078 -21.15308,6.0608 -22.48488,6.57783 -1.45995,0.56677 -2.42145,0.29881 -2.42145,-0.67487 z"
       id="path19403"
       inkscape:connector-curvature="0" />
    <path
       style="fill:#0088e8;fill-opacity:0.4;fill-rule:nonzero;stroke:#000098;stroke-width:4.15105438;stroke-miterlimit:4;stroke-opacity:1;stroke-dasharray:none"
       d="m 448.60665,699.82782 c -6.34132,-0.9903 -11.73943,-2.01031 -11.9958,-2.26668 -0.85356,-0.85357 -11.67427,-58.30467 -14.42,-76.56107 -4.91714,-32.69408 -6.03527,-49.66924 -5.23216,-79.4333 0.58181,-21.56272 1.48874,-31.86003 3.72826,-42.33096 1.62768,-7.61027 3.5421,-14.42838 4.25426,-15.15135 0.71216,-0.72298 1.29484,-0.90813 1.29484,-0.41144 0,3.49348 17.45901,62.69246 21.2947,72.20481 6.14241,15.23292 15.66014,29.48016 25.05687,37.50804 l 7.44576,6.36111 -4.57844,5.99807 c -7.4841,9.80471 -9.83821,21.98824 -9.49781,49.1553 0.15733,12.55694 0.80555,28.27906 1.44049,34.93804 l 1.15443,12.10725 -4.20786,-0.15864 c -2.31433,-0.0872 -9.39622,-0.96887 -15.73754,-1.95918 z"
       id="path19405"
       inkscape:connector-curvature="0" />
    <path
       style="fill:#0088e8;fill-opacity:0.4;fill-rule:nonzero;stroke:#000098;stroke-width:4.15105438;stroke-miterlimit:4;stroke-opacity:1;stroke-dasharray:none"
       d="m 479.56668,402.72379 -34.28426,-73.68122 3.8242,-11.06948 c 8.37061,-24.22943 19.40783,-43.71416 33.19188,-58.59582 7.09188,-7.6566 27.05453,-25.11711 28.71647,-25.11711 0.32543,0 0.96586,7.93889 1.42319,17.64198 0.99244,21.05644 4.47934,46.77982 12.05097,88.90175 9.73247,54.14294 10.3711,78.72777 2.75869,106.19806 -3.01181,10.86849 -10.8408,29.40306 -12.41983,29.40306 -0.53738,0 -16.40497,-33.15655 -35.26131,-73.68122 z"
       id="path19407"
       inkscape:connector-curvature="0" />
    <path
       style="fill:url(#linearGradient19554);fill-opacity:1;fill-rule:nonzero;stroke:#000098;stroke-width:4.15105437999999971;stroke-miterlimit:4;stroke-opacity:1;stroke-dasharray:none"
       d="m 248.43254,762.27531 c -7.23241,-1.77798 -13.145,-4.45868 -13.145,-5.95977 0,-0.48407 0.86034,-1.86314 1.91186,-3.06461 1.05153,-1.20147 2.31106,-3.49807 2.79897,-5.10354 0.81097,-2.66856 0.20655,-2.99907 -7.04287,-3.85109 -15.04276,-1.76799 -14.99983,-1.71636 -6.90678,-8.30302 3.93981,-3.20647 7.35055,-7.10832 7.57943,-8.67077 0.36968,-2.52367 -0.4926,-2.92322 -7.72379,-3.57892 -4.47696,-0.40596 -10.57947,-2.02443 -13.56114,-3.59662 l -5.42122,-2.8585 7.86611,-0.0611 c 9.80263,-0.0762 14.44464,-1.7776 15.7077,-5.75713 1.24729,-3.92987 -1.16104,-5.74976 -12.68282,-9.58397 -4.82241,-1.60478 -10.13306,-4.02315 -11.80144,-5.37412 -3.00044,-2.4296 -2.94188,-2.46665 5.38697,-3.40896 13.57073,-1.53536 14.93977,-6.32701 3.70306,-12.96075 -3.53547,-2.08722 -10.82435,-6.56909 -16.1975,-9.9597 l -9.76938,-6.16477 13.0447,-2.13733 c 11.51139,-1.88612 13.09472,-2.48833 13.47017,-5.12324 0.33096,-2.32268 -0.47078,-3.18272 -3.60962,-3.87213 -2.21929,-0.48743 -7.70301,-3.18056 -12.18605,-5.98471 l -8.15098,-5.09846 4.88917,-0.79472 c 2.68904,-0.4371 5.64862,-1.26408 6.57685,-1.83776 2.76554,-1.7092 0.4545,-7.77834 -6.79815,-17.85298 -3.70967,-5.15309 -6.74485,-9.62236 -6.74485,-9.93173 0,-0.30936 3.33946,-0.2178 7.42103,0.20344 4.66035,0.481 7.76735,0.20558 8.35196,-0.74034 1.07266,-1.73561 -3.18182,-8.63218 -12.2069,-19.7876 l -6.31106,-7.80076 6.10223,-0.91509 c 10.75201,-1.61236 11.31708,-5.72629 2.45749,-17.89153 l -4.9045,-6.73443 4.44444,0.97616 c 5.09172,1.11833 8.48215,-0.91776 8.48215,-5.09387 0,-1.49547 -2.1793,-6.61599 -4.84289,-11.37895 -2.6636,-4.76295 -4.8429,-9.06706 -4.8429,-9.5647 0,-0.49763 2.22024,-0.90479 4.93386,-0.90479 6.5328,0 10.28966,-2.16826 10.27353,-5.92934 -0.007,-1.68553 -2.49787,-6.98126 -5.53474,-11.76825 -3.03688,-4.78701 -5.5216,-8.98995 -5.5216,-9.33987 0,-0.34994 2.4144,-0.63624 5.36532,-0.63624 7.74943,0 8.66817,-1.93522 5.58366,-11.76132 -3.69676,-11.77651 -3.55887,-12.32711 3.56418,-14.23223 4.77362,-1.27676 7.20188,-3.02437 10.49239,-7.55134 6.21906,-8.55597 7.72858,-12.81111 14.56547,-41.05815 12.7661,-52.74385 14.23231,-62.87337 17.84199,-123.26389 1.94907,-32.60825 4.77957,-69.49892 5.38265,-70.15348 0.23855,-0.25893 66.96494,103.13856 68.80292,106.61522 1.21493,2.29812 -5.87019,29.71924 -11.85131,45.86751 -2.81876,7.61027 -11.69964,27.224 -19.7353,43.58607 -26.14155,53.229 -30.3182,63.36575 -37.04874,89.91759 -7.26787,28.67155 -8.31474,40.04464 -8.2171,89.2696 0.0985,49.63964 1.93661,69.65016 11.62483,126.55135 3.16207,18.57155 3.72302,24.40667 2.42555,25.23106 -2.38973,1.51839 -10.20121,1.16762 -18.29201,-0.82138 z"
       id="path19409"
       inkscape:connector-curvature="0" />
    <path
       style="fill:none;stroke:#00006c;stroke-width:1px;stroke-linecap:butt;stroke-linejoin:miter;stroke-opacity:1"
       d="m 536.86973,675.99991 c -3.00918,-15.73159 -37.79376,81.17946 -9.6858,-80.25373"
       id="path19411"
       inkscape:connector-curvature="0"
       sodipodi:nodetypes="cc" />
    <path
       style="fill:#0088e8;fill-opacity:0.4;fill-rule:nonzero;stroke:#0000ac;stroke-width:2.07552719;stroke-miterlimit:4;stroke-opacity:1;stroke-dasharray:none"
       d="m 518.0949,687.76819 c -1.10002,-2.7991 -0.2799,-23.99553 1.43879,-37.18653 0.79325,-6.08822 2.53627,-17.91872 3.87339,-26.29002 1.33712,-8.37129 2.7886,-17.47767 3.22553,-20.23639 l -0.79551,-6.85037 6.17444,1.83452 c 7.85969,2.33524 17.56396,-4.69535 27.93029,-14.44629 6.58827,-6.19716 13.23952,-14.47871 27.7776,-33.58397 4.90026,-6.4397 9.01307,-11.39803 9.13957,-11.01851 0.26375,0.79126 -9.78557,27.98717 -16.96219,45.90376 -17.72738,44.25685 -34.65448,75.58286 -47.45743,87.82675 -1.37119,1.31131 -2.49307,2.82987 -2.49307,3.37458 0,1.26325 -6.59861,10.19704 -8.53177,11.55108 -2.02524,1.41853 -2.46236,1.30284 -3.31964,-0.87861 z"
       id="path19413"
       inkscape:connector-curvature="0"
       sodipodi:nodetypes="sssscssscsssss" />
    <path
       style="fill:#0000a0;fill-opacity:1;fill-rule:nonzero;stroke:#00006c;stroke-width:3;stroke-miterlimit:4;stroke-opacity:1;stroke-dasharray:none"
       id="path19417"
       d="m 596.5983,539.00744 c 0.26613,-0.32632 0.42778,-0.71373 0.58474,-1.09954 0,0 1.79585,0.15562 1.79585,0.15562 l 0,0 c -0.16745,0.39607 -0.33714,0.79016 -0.57335,1.15194 0,0 -1.80724,-0.20802 -1.80724,-0.20802 z"
       inkscape:connector-curvature="0" />
    <path
       style="fill:#0000a0;fill-opacity:1;fill-rule:nonzero;stroke:#00006c;stroke-width:3;stroke-miterlimit:4;stroke-opacity:1;stroke-dasharray:none"
       id="path19419"
       d="m 596.98183,537.89683 c 0.30434,-0.23957 0.54059,-0.54162 0.75418,-0.86149 0.18131,-0.23766 0.31652,-0.50074 0.43612,-0.77309 0.0832,-0.23837 0.19016,-0.46896 0.26056,-0.71168 0.0789,-0.1881 0.13484,-0.37889 0.16171,-0.58091 0.0481,-0.18885 0.087,-0.37864 0.11251,-0.57185 0,0 1.81075,0.10869 1.81075,0.10869 l 0,0 c -0.0243,0.19263 -0.0542,0.38515 -0.10988,0.57162 -0.0255,0.21038 -0.0684,0.41626 -0.1641,0.60739 -0.0684,0.25336 -0.18621,0.48757 -0.26867,0.73634 -0.12266,0.28256 -0.24548,0.56459 -0.44704,0.80285 -0.2116,0.32671 -0.4394,0.65137 -0.74289,0.89993 0,0 -1.80325,-0.2278 -1.80325,-0.2278 z"
       inkscape:connector-curvature="0" />
    <path
       style="fill:#000080;fill-opacity:1;fill-rule:nonzero;stroke:#0000ac;stroke-width:3;stroke-miterlimit:4;stroke-opacity:1;stroke-dasharray:none"
       id="path19421"
       d="m 602.29126,533.38691 c -0.79024,0.56473 -1.48216,1.24331 -2.13786,1.956 -0.5947,0.68448 -1.16096,1.40482 -1.55711,2.22411 -0.14679,0.31978 -0.0795,0.16631 -0.2033,0.45978 0,0 -1.78977,-0.15841 -1.78977,-0.15841 l 0,0 c 0.13489,-0.29926 0.0617,-0.14378 0.22106,-0.46573 0.41177,-0.83794 0.99877,-1.56797 1.60974,-2.26937 0.6444,-0.70562 1.30919,-1.39335 2.05788,-1.99028 0,0 1.79936,0.2439 1.79936,0.2439 z"
       inkscape:connector-curvature="0" />
    <path
       style="fill:#000080;fill-opacity:1;fill-rule:nonzero;stroke:#0000ac;stroke-width:3;stroke-miterlimit:4;stroke-opacity:1;stroke-dasharray:none"
       id="path19423"
       d="m 600.457,532.53717 c -0.57895,0.5643 -1.0135,1.25468 -1.45134,1.92877 -0.53956,0.82465 -1.00618,1.68937 -1.30633,2.62922 -0.17355,0.60139 -0.20315,1.22826 -0.26376,1.84755 -0.0564,0.4949 -0.111,0.98669 -0.25768,1.46382 -0.0543,0.20846 -0.15843,0.39767 -0.22725,0.60089 0,0 -1.81096,-0.1426 -1.81096,-0.1426 l 0,0 c 0.065,-0.20727 0.174,-0.393 0.23921,-0.59987 0.15814,-0.46084 0.22128,-0.93898 0.27321,-1.42266 0.0539,-0.63367 0.10568,-1.27251 0.28682,-1.88532 0.31066,-0.95309 0.78672,-1.83151 1.32894,-2.67305 0.43327,-0.67786 0.85359,-1.37023 1.38925,-1.97413 0,0 1.79989,0.22738 1.79989,0.22738 z"
       inkscape:connector-curvature="0" />
    <path
       style="fill:#000080;fill-opacity:1;fill-rule:nonzero;stroke:#0000ac;stroke-width:3;stroke-miterlimit:4;stroke-opacity:1;stroke-dasharray:none"
       id="path19425"
       d="m 597.05078,542.17086 c 0.94269,-0.20257 1.34814,-0.66074 1.92114,-1.39939 0.47038,-0.69448 0.81361,-1.45431 1.06063,-2.25297 0.18266,-0.5557 0.25023,-1.13582 0.28944,-1.71641 0.005,-0.46528 0.0295,-0.92733 0.0736,-1.3904 0.0624,-0.45251 0.18896,-0.89476 0.35621,-1.3191 0.19764,-0.393 0.36435,-0.79812 0.51713,-1.21033 0.12382,-0.31406 0.19871,-0.63889 0.26657,-0.96831 0.0501,-0.28254 0.0273,-0.14116 0.0686,-0.42413 0,0 1.79571,0.11074 1.79571,0.11074 l 0,0 c -0.0419,0.28827 -0.0199,0.14405 -0.0661,0.43267 -0.0618,0.34141 -0.13447,0.67655 -0.26758,0.99875 -0.15745,0.41233 -0.32193,0.82146 -0.52356,1.21455 -0.17006,0.40477 -0.28553,0.83275 -0.35037,1.26692 -0.0436,0.46129 -0.0755,0.92148 -0.082,1.38511 -0.0405,0.59441 -0.11964,1.18855 -0.30139,1.75813 -0.26226,0.81778 -0.62847,1.5909 -1.10089,2.31 -0.30205,0.40759 -0.6134,0.84 -1.02439,1.14902 -0.25263,0.18995 -0.55951,0.27552 -0.85029,0.38379 0,0 -1.78238,-0.32864 -1.78238,-0.32864 z"
       inkscape:connector-curvature="0" />
    <path
       sodipodi:nodetypes="cc"
       inkscape:connector-curvature="0"
       id="path19556"
       d="m 366.67649,734.11467 c 115.70156,-22.76928 150.36493,40.36192 81.63741,213.08747"
       style="opacity:0.11206898;fill:none;stroke:#000000;stroke-width:3;stroke-linecap:butt;stroke-linejoin:miter;stroke-miterlimit:4;stroke-opacity:1;stroke-dasharray:none;filter:url(#filter19558)" />
    <path
       sodipodi:nodetypes="cssc"
       inkscape:connector-curvature="0"
       id="path19562"
       d="m 340.58104,883.88275 c -7.10726,-29.74283 -10.73026,-61.43845 12.11947,-77.31662 26.35182,-18.31175 81.6272,-17.20911 104.56466,5.63964 16.32958,16.26644 -4.30676,44.64608 4.39728,92.99033"
       style="opacity:0.08189655;fill:none;stroke:#000000;stroke-width:3.23803806;stroke-linecap:butt;stroke-linejoin:miter;stroke-miterlimit:4;stroke-opacity:1;stroke-dasharray:none;filter:url(#filter19564)" />
  </g>
</svg>
