<?xml version="1.0" encoding="UTF-8" standalone="no"?>
<!-- Created with Inkscape (http://www.inkscape.org/) -->

<svg
   xmlns:dc="http://purl.org/dc/elements/1.1/"
   xmlns:cc="http://creativecommons.org/ns#"
   xmlns:rdf="http://www.w3.org/1999/02/22-rdf-syntax-ns#"
   xmlns:svg="http://www.w3.org/2000/svg"
   xmlns="http://www.w3.org/2000/svg"
   xmlns:sodipodi="http://sodipodi.sourceforge.net/DTD/sodipodi-0.dtd"
   xmlns:inkscape="http://www.inkscape.org/namespaces/inkscape"
   width="744.09448819"
   height="1052.3622047"
   id="svg3063"
   version="1.1"
   inkscape:version="0.48.2 r9819"
   sodipodi:docname="New document 1">
  <defs
     id="defs3065" />
  <sodipodi:namedview
     id="base"
     pagecolor="#ffffff"
     bordercolor="#666666"
     borderopacity="1.0"
     inkscape:pageopacity="0.0"
     inkscape:pageshadow="2"
     inkscape:zoom="0.53491733"
     inkscape:cx="533.42531"
     inkscape:cy="524.20253"
     inkscape:document-units="px"
     inkscape:current-layer="layer1"
     showgrid="false"
     inkscape:window-width="1271"
     inkscape:window-height="870"
     inkscape:window-x="211"
     inkscape:window-y="29"
     inkscape:window-maximized="0" />
  <metadata
     id="metadata3068">
    <rdf:RDF>
      <cc:Work
         rdf:about="">
        <dc:format>image/svg+xml</dc:format>
        <dc:type
           rdf:resource="http://purl.org/dc/dcmitype/StillImage" />
        <dc:title></dc:title>
      </cc:Work>
    </rdf:RDF>
  </metadata>
  <g
     inkscape:label="Layer 1"
     inkscape:groupmode="layer"
     id="layer1">
    <path
       style="fill:none;stroke:#000000;stroke-width:5;stroke-linecap:butt;stroke-linejoin:miter;stroke-opacity:1;stroke-miterlimit:4;stroke-dasharray:none"
       d="M 302.85714,343.79075 z"
       id="path3922"
       inkscape:connector-curvature="0" />
    <path
       style="fill:#00b400;stroke:#000000;stroke-width:5;stroke-linecap:butt;stroke-linejoin:miter;stroke-miterlimit:4;stroke-opacity:1;stroke-dasharray:none"
       d="m 301.42857,435.21932 c -93.82432,10.0559 -38.21959,162.72659 -57.14286,251.42858 67.54958,46.76647 137.21339,47.01967 208.57143,10 -1.14246,-84.0963 17.84696,-221.8776 -4.28571,-250 -32.29191,-22.42044 -58.25938,-11.42208 -52.85714,-58.57143 -27.78186,-46.71929 -56.98569,-56.46742 -88.57143,-4.28572 z"
       id="path3152"
       inkscape:connector-curvature="0"
       sodipodi:nodetypes="ccccccc" />
    <path
       style="fill:#54dc00;stroke:#000000;stroke-width:0.99422246px;stroke-linecap:butt;stroke-linejoin:miter;stroke-opacity:1"
       d="m 381.42857,388.06001 c -3.02068,42.40078 3.53812,66.12022 34.01632,85.88191 l -1.15918,237.4917 40,-19.76957 C 453.23877,610.23227 468.26357,528.80048 450,447.36871 416.78495,437.99797 387.66869,425.68064 395.71429,386.6479 z"
       id="path3928"
       inkscape:connector-curvature="0"
       sodipodi:nodetypes="ccccccc" />
    <path
       style="fill:#cccccc;stroke:#000000;stroke-width:4.72421265;stroke-linecap:butt;stroke-linejoin:miter;stroke-miterlimit:4;stroke-opacity:1;stroke-dasharray:none"
       d="M 303.82597,350.93361 300,382.36218 c 31.80403,15.47063 65.54731,13.56306 100.75065,-1.42857 l -3.82597,-31.42857 z"
       id="path3926"
       inkscape:connector-curvature="0"
       sodipodi:nodetypes="ccccc" />
    <path
       style="fill:#cccccc;stroke:#000000;stroke-width:5;stroke-linecap:butt;stroke-linejoin:miter;stroke-miterlimit:4;stroke-opacity:1;stroke-dasharray:none"
       d="m 240.75017,546.90787 c 72.38095,32.83782 144.76191,43.574 217.14286,4.28572 l -5.71428,97.14285 c -66.06581,43.52548 -134.89971,51.06565 -208.57143,-4.28571 z"
       id="path3930"
       inkscape:connector-curvature="0"
       sodipodi:nodetypes="ccccc" />
    <path
       style="fill:#ffffff;stroke:#000000;stroke-width:3.21779609;stroke-linecap:butt;stroke-linejoin:miter;stroke-miterlimit:4;stroke-opacity:1;stroke-dasharray:none"
       d="m 298.57143,351.31597 c 1.4999,-27.21948 111.08218,-24.30086 98.85489,1.04621 -0.47156,10.90794 -90.49986,14.20991 -98.85489,-1.04621 z"
       id="path3924"
       inkscape:connector-curvature="0"
       sodipodi:nodetypes="ccc" />
    <path
       style="fill:#ffffff;stroke:#ffffff;stroke-width:0.93060768px;stroke-linecap:butt;stroke-linejoin:miter;stroke-opacity:1"
       d="m 311.17741,631.18305 70.67031,26.16212 -6.99818,10.05458 -69.68391,-26.25339 z"
       id="path3936"
       inkscape:connector-curvature="0" />
    <path
       sodipodi:type="arc"
       style="fill:#ffffff;fill-opacity:1;fill-rule:nonzero;stroke:#ffffff;stroke-width:5;stroke-linecap:round;stroke-linejoin:round;stroke-miterlimit:4;stroke-opacity:1;stroke-dasharray:none;stroke-dashoffset:0"
       id="path3938"
       sodipodi:cx="308.34906"
       sodipodi:cy="621.2796"
       sodipodi:rx="9.3439112"
       sodipodi:ry="7.8286824"
       d="m 317.69297,621.2796 a 9.3439112,7.8286824 0 1 1 -18.68782,0 9.3439112,7.8286824 0 1 1 18.68782,0 z"
       transform="matrix(0.85563773,-0.08053577,0.07376122,0.78366273,-2.2623804,167.53285)" />
    <path
       sodipodi:type="arc"
       style="fill:#ffffff;fill-opacity:1;fill-rule:nonzero;stroke:#ffffff;stroke-width:5;stroke-linecap:round;stroke-linejoin:round;stroke-miterlimit:4;stroke-opacity:1;stroke-dasharray:none;stroke-dashoffset:0"
       id="path3940"
       sodipodi:cx="293.19678"
       sodipodi:cy="636.93695"
       sodipodi:rx="8.8388348"
       sodipodi:ry="7.8286824"
       d="m 302.03561,636.93695 a 8.8388348,7.8286824 0 1 1 -17.67767,0 8.8388348,7.8286824 0 1 1 17.67767,0 z"
       transform="matrix(0.79334315,-0.07467237,0.0724569,0.7698053,23.29942,176.49972)" />
    <path
       sodipodi:type="arc"
       style="fill:#ffffff;fill-opacity:1;fill-rule:nonzero;stroke:#ffffff;stroke-width:5;stroke-linecap:round;stroke-linejoin:round;stroke-miterlimit:4;stroke-opacity:1;stroke-dasharray:none;stroke-dashoffset:0"
       id="path3942"
       sodipodi:cx="383.10034"
       sodipodi:cy="661.1806"
       sodipodi:rx="7.8286824"
       sodipodi:ry="8.3337584"
       d="m 390.92902,661.1806 a 7.8286824,8.3337584 0 1 1 -15.65736,0 7.8286824,8.3337584 0 1 1 15.65736,0 z"
       transform="matrix(0.72918422,-0.07143301,0.06286015,0.69508729,64.683542,227.46525)" />
    <path
       sodipodi:type="arc"
       style="fill:#ffffff;fill-opacity:1;fill-rule:nonzero;stroke:#ffffff;stroke-width:5;stroke-linecap:round;stroke-linejoin:round;stroke-miterlimit:4;stroke-opacity:1;stroke-dasharray:none;stroke-dashoffset:0"
       id="path3944"
       sodipodi:cx="366.43283"
       sodipodi:cy="671.53467"
       sodipodi:rx="8.3337584"
       sodipodi:ry="6.5659914"
       d="m 374.76659,671.53467 a 8.3337584,6.5659914 0 1 1 -16.66752,0 8.3337584,6.5659914 0 1 1 16.66752,0 z"
       transform="matrix(0.98145797,-0.07310955,0.08460769,0.71140102,-38.893886,217.45195)" />
    <path
       sodipodi:nodetypes="ccc"
       inkscape:connector-curvature="0"
       id="path3968"
       d="m 363.7051,585.04075 c 9.23636,-9.15956 32.81062,-8.00651 6.07143,12.32143 z"
       style="fill:#f2f2f2;stroke:#ececec;stroke-width:1px;stroke-linecap:butt;stroke-linejoin:miter;stroke-opacity:1" />
    <path
       style="fill:#f2f2f2;stroke:#ececec;stroke-width:1px;stroke-linecap:butt;stroke-linejoin:miter;stroke-opacity:1"
       d="m 333.92857,584.68361 c -9.23636,-9.15956 -32.81062,-8.00651 -6.07143,12.32143 z"
       id="path3964"
       inkscape:connector-curvature="0"
       sodipodi:nodetypes="ccc" />
    <path
       style="fill:#ffffff;stroke:#cccccc;stroke-width:1px;stroke-linecap:butt;stroke-linejoin:miter;stroke-opacity:1"
       d="m 336.13271,638.16313 22.85714,1.42857 c -1.41864,-12.38484 -6.09994,-19.32947 15.71429,-24.28572 6.67368,-35.71148 -46.9593,-61.00448 -50,-2.85714 17.14286,6.66667 20.95237,15.2381 11.42857,25.71429 z"
       id="path3932"
       inkscape:connector-curvature="0"
       sodipodi:nodetypes="ccccc" />
    <path
       inkscape:connector-curvature="0"
       id="path3946"
       d="m 390.9144,630.18184 -73.44671,26.14921 7.27311,10.04961 72.42157,-26.24043 z"
       style="fill:#ffffff;stroke:#ffffff;stroke-width:0.94847775px;stroke-linecap:butt;stroke-linejoin:miter;stroke-opacity:1" />
    <path
       transform="matrix(-0.85563773,-0.08053577,-0.07376122,0.78366273,699.54855,166.52269)"
       d="m 317.69297,621.2796 a 9.3439112,7.8286824 0 1 1 -18.68782,0 9.3439112,7.8286824 0 1 1 18.68782,0 z"
       sodipodi:ry="7.8286824"
       sodipodi:rx="9.3439112"
       sodipodi:cy="621.2796"
       sodipodi:cx="308.34906"
       id="path3948"
       style="fill:#ffffff;fill-opacity:1;fill-rule:nonzero;stroke:#ffffff;stroke-width:5;stroke-linecap:round;stroke-linejoin:round;stroke-miterlimit:4;stroke-opacity:1;stroke-dasharray:none;stroke-dashoffset:0"
       sodipodi:type="arc" />
    <path
       transform="matrix(-0.79334315,-0.07467237,-0.0724569,0.7698053,672.97659,171.95404)"
       d="m 302.03561,636.93695 a 8.8388348,7.8286824 0 1 1 -17.67767,0 8.8388348,7.8286824 0 1 1 17.67767,0 z"
       sodipodi:ry="7.8286824"
       sodipodi:rx="8.8388348"
       sodipodi:cy="636.93695"
       sodipodi:cx="293.19678"
       id="path3950"
       style="fill:#ffffff;fill-opacity:1;fill-rule:nonzero;stroke:#ffffff;stroke-width:5;stroke-linecap:round;stroke-linejoin:round;stroke-miterlimit:4;stroke-opacity:1;stroke-dasharray:none;stroke-dashoffset:0"
       sodipodi:type="arc" />
    <path
       transform="matrix(-0.85563773,-0.08053577,-0.07376122,0.78366273,692.54772,171.88308)"
       d="m 390.92902,661.1806 a 7.8286824,8.3337584 0 1 1 -15.65736,0 7.8286824,8.3337584 0 1 1 15.65736,0 z"
       sodipodi:ry="8.3337584"
       sodipodi:rx="7.8286824"
       sodipodi:cy="661.1806"
       sodipodi:cx="383.10034"
       id="path3952"
       style="fill:#ffffff;fill-opacity:1;fill-rule:nonzero;stroke:#ffffff;stroke-width:5;stroke-linecap:round;stroke-linejoin:round;stroke-miterlimit:4;stroke-opacity:1;stroke-dasharray:none;stroke-dashoffset:0"
       sodipodi:type="arc" />
    <path
       transform="matrix(-0.85563773,-0.08053577,-0.07376122,0.78366273,690.63812,170.88931)"
       d="m 374.76659,671.53467 a 8.3337584,6.5659914 0 1 1 -16.66752,0 8.3337584,6.5659914 0 1 1 16.66752,0 z"
       sodipodi:ry="6.5659914"
       sodipodi:rx="8.3337584"
       sodipodi:cy="671.53467"
       sodipodi:cx="366.43283"
       id="path3954"
       style="fill:#ffffff;fill-opacity:1;fill-rule:nonzero;stroke:#ffffff;stroke-width:5;stroke-linecap:round;stroke-linejoin:round;stroke-miterlimit:4;stroke-opacity:1;stroke-dasharray:none;stroke-dashoffset:0"
       sodipodi:type="arc" />
    <path
       sodipodi:type="arc"
       style="fill:#666666;fill-opacity:1;fill-rule:nonzero;stroke:#808080;stroke-width:5;stroke-linecap:round;stroke-linejoin:round;stroke-miterlimit:4;stroke-opacity:1;stroke-dasharray:none;stroke-dashoffset:0"
       id="path3956"
       sodipodi:cx="341.17902"
       sodipodi:cy="598.80371"
       sodipodi:rx="3.2829957"
       sodipodi:ry="4.5456862"
       d="m 344.46201,598.80371 a 3.2829957,4.5456862 0 1 1 -6.56599,0 3.2829957,4.5456862 0 1 1 6.56599,0 z" />
    <path
       d="m 344.46201,598.80371 a 3.2829957,4.5456862 0 1 1 -6.56599,0 3.2829957,4.5456862 0 1 1 6.56599,0 z"
       sodipodi:ry="4.5456862"
       sodipodi:rx="3.2829957"
       sodipodi:cy="598.80371"
       sodipodi:cx="341.17902"
       id="path3958"
       style="fill:#666666;fill-opacity:1;fill-rule:nonzero;stroke:#808080;stroke-width:5;stroke-linecap:round;stroke-linejoin:round;stroke-miterlimit:4;stroke-opacity:1;stroke-dasharray:none;stroke-dashoffset:0"
       sodipodi:type="arc"
       transform="translate(15.657364,0.50507627)" />
    <path
       sodipodi:type="arc"
       style="fill:#666666;fill-opacity:1;fill-rule:nonzero;stroke:#808080;stroke-width:2;stroke-linecap:round;stroke-linejoin:round;stroke-miterlimit:4;stroke-opacity:1;stroke-dasharray:none;stroke-dashoffset:0"
       id="path3960"
       sodipodi:cx="344.19644"
       sodipodi:cy="614.23718"
       sodipodi:rx="0.089285716"
       sodipodi:ry="2.0535715"
       d="m 344.28573,614.23718 a 0.08928572,2.0535715 0 1 1 -0.17857,0 0.08928572,2.0535715 0 1 1 0.17857,0 z"
       transform="matrix(0.94043608,-0.21418125,0.33997055,0.59247418,-185.46372,324.93107)" />
    <path
       d="m 344.28573,614.23718 a 0.08928572,2.0535715 0 1 1 -0.17857,0 0.08928572,2.0535715 0 1 1 0.17857,0 z"
       sodipodi:ry="2.0535715"
       sodipodi:rx="0.089285716"
       sodipodi:cy="614.23718"
       sodipodi:cx="344.19644"
       id="path3962"
       style="fill:#666666;fill-opacity:1;fill-rule:nonzero;stroke:#808080;stroke-width:2;stroke-linecap:round;stroke-linejoin:round;stroke-miterlimit:4;stroke-opacity:1;stroke-dasharray:none;stroke-dashoffset:0"
       sodipodi:type="arc"
       transform="matrix(0.97295386,0.14429167,-0.23099954,0.60774641,157.80484,192.20061)" />
    <path
       style="fill:#666666;stroke:#666666;stroke-width:1px;stroke-linecap:butt;stroke-linejoin:miter;stroke-opacity:1"
       d="m 345.89286,629.1479 c 3.06548,-5.87798 5.18355,-2.75565 7.32143,0.17857 -3.0697,1.82815 -5.17768,0.77112 -7.32143,-0.17857 z"
       id="path3972"
       inkscape:connector-curvature="0"
       sodipodi:nodetypes="ccc" />
    <path
       style="fill:#ffffff;stroke:#ffffff;stroke-width:1px;stroke-linecap:butt;stroke-linejoin:miter;stroke-opacity:1"
       d="m 345,589.50504 c -9.71768,-0.53339 -13.61264,4.2266 -12.85714,13.21428 5.7847,-2.90577 9.92811,-7.45284 12.85714,-13.21428 z"
       id="path3974"
       inkscape:connector-curvature="0"
       sodipodi:nodetypes="ccc" />
    <path
       sodipodi:nodetypes="ccc"
       inkscape:connector-curvature="0"
       id="path3976"
       d="m 353.12286,590.57647 c 9.71768,-0.53339 13.61264,4.2266 12.85714,13.21428 -5.7847,-2.90577 -9.92811,-7.45284 -12.85714,-13.21428 z"
       style="fill:#ffffff;stroke:#ffffff;stroke-width:1px;stroke-linecap:butt;stroke-linejoin:miter;stroke-opacity:1" />
  </g>
</svg>
