<?xml version="1.0" encoding="UTF-8" standalone="no"?>
<!-- Created with Inkscape (http://www.inkscape.org/) -->

<svg
   xmlns:dc="http://purl.org/dc/elements/1.1/"
   xmlns:cc="http://creativecommons.org/ns#"
   xmlns:rdf="http://www.w3.org/1999/02/22-rdf-syntax-ns#"
   xmlns:svg="http://www.w3.org/2000/svg"
   xmlns="http://www.w3.org/2000/svg"
   xmlns:xlink="http://www.w3.org/1999/xlink"
   xmlns:sodipodi="http://sodipodi.sourceforge.net/DTD/sodipodi-0.dtd"
   xmlns:inkscape="http://www.inkscape.org/namespaces/inkscape"
   width="744.09448819"
   height="1052.3622047"
   id="svg45740"
   version="1.1"
   inkscape:version="0.48.2 r9819"
   sodipodi:docname="rightcloudwblu.svg">
  <defs
     id="defs45742">
    <linearGradient
       id="linearGradient10539">
      <stop
         style="stop-color:#ffffff;stop-opacity:1;"
         offset="0"
         id="stop10541" />
      <stop
         style="stop-color:#f2f2f2;stop-opacity:1;"
         offset="1"
         id="stop10543" />
    </linearGradient>
    <linearGradient
       inkscape:collect="always"
       xlink:href="#linearGradient10539"
       id="linearGradient10545"
       x1="104.21429"
       y1="975.2193"
       x2="194.35715"
       y2="975.2193"
       gradientUnits="userSpaceOnUse" />
    <linearGradient
       inkscape:collect="always"
       xlink:href="#linearGradient10539"
       id="linearGradient10553"
       x1="221.35713"
       y1="949.50507"
       x2="311.5"
       y2="949.50507"
       gradientUnits="userSpaceOnUse"
       gradientTransform="matrix(0.90807716,0,0,0.92683926,49.716523,73.913675)" />
    <linearGradient
       inkscape:collect="always"
       xlink:href="#linearGradient10539"
       id="linearGradient10561"
       x1="232.78572"
       y1="994.86218"
       x2="327.92859"
       y2="994.86218"
       gradientUnits="userSpaceOnUse"
       gradientTransform="matrix(0.98711757,-0.15999659,0.13807672,0.85188036,-130.41646,193.87541)" />
    <linearGradient
       inkscape:collect="always"
       xlink:href="#linearGradient10539"
       id="linearGradient10569"
       x1="232.78572"
       y1="994.86218"
       x2="327.92859"
       y2="994.86218"
       gradientUnits="userSpaceOnUse"
       gradientTransform="translate(-7.7886863,8.7690859)" />
    <linearGradient
       inkscape:collect="always"
       xlink:href="#linearGradient10539"
       id="linearGradient10577"
       x1="104.21429"
       y1="975.2193"
       x2="194.35715"
       y2="975.2193"
       gradientUnits="userSpaceOnUse" />
    <linearGradient
       inkscape:collect="always"
       xlink:href="#linearGradient10539"
       id="linearGradient10585"
       x1="221.35713"
       y1="949.50507"
       x2="311.5"
       y2="949.50507"
       gradientUnits="userSpaceOnUse"
       gradientTransform="matrix(0.90807716,0,0,0.92683926,49.716523,73.913675)" />
  </defs>
  <sodipodi:namedview
     id="base"
     pagecolor="#ffffff"
     bordercolor="#666666"
     borderopacity="1.0"
     inkscape:pageopacity="0.0"
     inkscape:pageshadow="2"
     inkscape:zoom="1.979899"
     inkscape:cx="329.07404"
     inkscape:cy="308.44584"
     inkscape:document-units="px"
     inkscape:current-layer="layer1"
     showgrid="false"
     inkscape:window-width="1363"
     inkscape:window-height="636"
     inkscape:window-x="536"
     inkscape:window-y="105"
     inkscape:window-maximized="0" />
  <metadata
     id="metadata45745">
    <rdf:RDF>
      <cc:Work
         rdf:about="">
        <dc:format>image/svg+xml</dc:format>
        <dc:type
           rdf:resource="http://purl.org/dc/dcmitype/StillImage" />
        <dc:title></dc:title>
      </cc:Work>
    </rdf:RDF>
  </metadata>
  <g
     inkscape:label="Layer 1"
     inkscape:groupmode="layer"
     id="layer1">
    <path
       sodipodi:type="arc"
       style="opacity:1;fill:url(#linearGradient10561);fill-opacity:1.0;fill-rule:nonzero;stroke:url(#linearGradient10569);stroke-width:3;stroke-linecap:round;stroke-linejoin:round;stroke-miterlimit:4;stroke-opacity:1;stroke-dasharray:none"
       id="path9340"
       sodipodi:cx="280.35715"
       sodipodi:cy="994.86218"
       sodipodi:rx="46.07143"
       sodipodi:ry="16.071428"
       d="m 326.42858,994.86218 a 46.07143,16.071428 0 1 1 -92.14286,0 46.07143,16.071428 0 1 1 92.14286,0 z"
       transform="matrix(0.98711757,0.18539627,-0.15999659,1.1438239,337.73696,-424.07015)" />
    <path
       sodipodi:type="arc"
       style="fill:url(#linearGradient10553);fill-opacity:1.0;fill-rule:nonzero;stroke:url(#linearGradient10585);stroke-width:3;stroke-linecap:round;stroke-linejoin:round;stroke-miterlimit:4;stroke-opacity:1;stroke-dasharray:none;opacity:1"
       id="path9342"
       sodipodi:cx="266.42856"
       sodipodi:cy="949.50507"
       sodipodi:rx="43.57143"
       sodipodi:ry="14.285714"
       d="m 309.99999,949.50507 a 43.57143,14.285714 0 1 1 -87.14286,0 43.57143,14.285714 0 1 1 87.14286,0 z"
       transform="matrix(1.101228,0,0,1.0789357,113.94626,-284.80907)" />
    <path
       sodipodi:type="arc"
       style="opacity:1;fill:url(#linearGradient10545);fill-opacity:1;fill-rule:nonzero;stroke:url(#linearGradient10577);stroke-width:3;stroke-linecap:round;stroke-linejoin:round;stroke-miterlimit:4;stroke-opacity:1;stroke-dasharray:none"
       id="path9338"
       sodipodi:cx="149.28572"
       sodipodi:cy="975.2193"
       sodipodi:rx="43.57143"
       sodipodi:ry="17.142857"
       d="m 192.85715,975.2193 a 43.57143,17.142857 0 1 1 -87.14286,0 43.57143,17.142857 0 1 1 87.14286,0 z"
       transform="translate(224.40976,-209.34668)" />
    <path
       sodipodi:type="spiral"
       style="fill:none;stroke:#ececec;stroke-width:2.42801547;stroke-linecap:round;stroke-linejoin:miter;stroke-miterlimit:4;stroke-opacity:1;stroke-dasharray:none"
       id="path9350"
       sodipodi:cx="403.57144"
       sodipodi:cy="855.93359"
       sodipodi:expansion="1"
       sodipodi:revolution="3"
       sodipodi:radius="24.327694"
       sodipodi:argument="-18.147299"
       sodipodi:t0="0"
       d="m 403.57144,855.93359 c 0.93114,0.78789 -0.60267,1.64388 -1.30952,1.54762 -1.91554,-0.26085 -2.41863,-2.64465 -1.78572,-4.16666 1.13214,-2.72253 4.61139,-3.32035 7.02381,-2.02381 3.54033,1.90273 4.24608,6.60382 2.26191,9.88095 -2.6446,4.3679 -8.60525,5.18188 -12.7381,2.5 -5.20077,-3.37488 -6.12285,-10.61093 -2.73809,-15.59524 4.0994,-6.03667 12.619,-7.06681 18.45238,-2.97619 6.87443,4.82066 8.01265,14.62857 3.21428,21.30953 -5.53991,7.71343 -16.63912,8.95974 -24.16666,3.45237 -8.55328,-6.25782 -9.90771,-18.65037 -3.69048,-27.02381 6.97481,-9.39372 20.66214,-10.85631 29.88096,-3.92856 10.23463,7.69111 11.80539,22.67428 4.16666,32.73809"
       transform="matrix(1.8411934,0,0,0.73007967,-332.38964,115.57224)" />
    <path
       sodipodi:type="spiral"
       style="fill:none;stroke:#e6e6e6;stroke-width:2.16564012;stroke-linecap:round;stroke-linejoin:miter;stroke-miterlimit:4;stroke-opacity:1;stroke-dasharray:none"
       id="path9348"
       sodipodi:cx="365"
       sodipodi:cy="874.50507"
       sodipodi:expansion="1"
       sodipodi:revolution="3"
       sodipodi:radius="22.050499"
       sodipodi:argument="-18.414886"
       sodipodi:t0="0"
       d="m 365,874.50507 c 1.00277,0.46557 -0.13285,1.5814 -0.77381,1.66666 -1.73696,0.23105 -2.74802,-1.73215 -2.55952,-3.21428 0.33717,-2.65118 3.23524,-4.00759 5.65475,-3.45239 3.55074,0.81479 5.29431,4.75505 4.34525,8.09524 -1.26495,4.45194 -6.2803,6.59197 -10.53571,5.2381 -5.355,-1.70371 -7.89519,-7.80803 -6.13096,-12.97618 2.13671,-6.25933 9.33714,-9.20159 15.41666,-7.02383 7.1645,2.56643 10.50998,10.86711 7.91668,17.85714 -2.99407,8.07028 -12.39763,11.81972 -20.29761,8.80954 -8.97647,-3.42035 -13.13038,-13.92855 -9.7024,-22.73809 3.84567,-9.88296 15.45977,-14.44171 25.17856,-10.59525 10.7897,4.2703 15.75357,16.99121 11.48812,27.61903"
       transform="matrix(-2.0738256,-0.24976785,0.11878552,-0.98627766,1114.2981,1720.1456)" />
    <path
       sodipodi:type="spiral"
       style="fill:none;stroke:#ececec;stroke-width:2.32161021;stroke-linecap:round;stroke-linejoin:miter;stroke-miterlimit:4;stroke-opacity:1;stroke-dasharray:none"
       id="path9352"
       sodipodi:cx="433.57144"
       sodipodi:cy="855.93359"
       sodipodi:expansion="1"
       sodipodi:revolution="3"
       sodipodi:radius="25.162735"
       sodipodi:argument="-18.245806"
       sodipodi:t0="0"
       d="m 433.57144,855.93359 c 1.03858,0.71627 -0.45311,1.75337 -1.19048,1.72619 -1.99822,-0.0736 -2.75854,-2.47614 -2.2619,-4.10714 0.88838,-2.91749 4.4088,-3.88676 7.02381,-2.79761 3.83765,1.59836 5.0423,6.36545 3.33333,9.94047 -2.27779,4.76495 -8.33035,6.20912 -12.85715,3.86904 -5.6965,-2.94475 -7.38169,-10.2991 -4.40474,-15.77381 3.60548,-6.63061 12.27001,-8.5576 18.69048,-4.94046 7.5663,4.26266 9.73557,14.24226 5.47617,21.60714 -4.91765,8.50306 -16.21541,10.91495 -24.52382,6.01189 -9.44054,-5.57117 -12.09529,-18.18918 -6.54759,-27.44048 6.22367,-10.37857 20.16341,-13.27634 30.35715,-7.08331 11.31697,6.87544 14.45791,22.138 7.61901,33.27382"
       transform="matrix(1.9206176,0,0,-0.86940678,-462.91913,1509.7289)" />
  </g>
</svg>
